<?xml version="1.0" encoding="UTF-8" standalone="no"?>
<svg
   width="100.0mm"
   height="100.0mm"
   viewBox="0 0 100.0 100.0"
   version="1.1"
   id="svg8"
   inkscape:version="1.1 (c68e22c387, 2021-05-23)"
   sodipodi:docname="sectr_artwork.svg"
   xmlns:inkscape="http://www.inkscape.org/namespaces/inkscape"
   xmlns:sodipodi="http://sodipodi.sourceforge.net/DTD/sodipodi-0.dtd"
   xmlns="http://www.w3.org/2000/svg"
   xmlns:svg="http://www.w3.org/2000/svg"
   xmlns:rdf="http://www.w3.org/1999/02/22-rdf-syntax-ns#"
   xmlns:cc="http://creativecommons.org/ns#"
   xmlns:dc="http://purl.org/dc/elements/1.1/">
  <defs
     id="defs2" />
  <sodipodi:namedview
     id="base"
     pagecolor="#ffffff"
     bordercolor="#666666"
     borderopacity="1.0"
     inkscape:pageopacity="0.0"
     inkscape:pageshadow="2"
     inkscape:zoom="1.0423223"
     inkscape:cx="367.44872"
     inkscape:cy="262.39485"
     inkscape:document-units="mm"
     inkscape:current-layer="g968"
     inkscape:document-rotation="0"
     showgrid="false"
     showguides="false"
     inkscape:guide-bbox="true"
     inkscape:window-width="1920"
     inkscape:window-height="991"
     inkscape:window-x="-9"
     inkscape:window-y="-9"
     inkscape:window-maximized="1"
     inkscape:pagecheckerboard="0">
    <sodipodi:guide
       position="2283.1008,485.48332"
       orientation="0,-1"
       id="guide1378" />
    <sodipodi:guide
       position="613.78567,-160.03934"
       orientation="1,0"
       id="guide1087" />
  </sodipodi:namedview>
  <metadata
     id="metadata5">
    <rdf:RDF>
      <cc:Work
         rdf:about="">
        <dc:format>image/svg+xml</dc:format>
        <dc:type
           rdf:resource="http://purl.org/dc/dcmitype/StillImage" />
      </cc:Work>
    </rdf:RDF>
  </metadata>
  <g
     inkscape:label="[fixed] BG"
     inkscape:groupmode="layer"
     sodipodi:insensitive="true"
     id="g950">
    <rect
       x="0"
       y="0"
       width="100.0"
       height="100.0"
       style="fill:#FFFFFF;fill-opacity:1;stroke:none"
       id="rect948" />
  </g>
  <g
     inkscape:label="Edge.Cuts"
     inkscape:groupmode="layer"
     id="g952" />
  <g
     inkscape:label="B.Cu"
     inkscape:groupmode="layer"
     id="g954" />
  <g
     inkscape:label="B.Mask"
     inkscape:groupmode="layer"
     id="g956" />
  <g
     inkscape:label="B.SilkS"
     inkscape:groupmode="layer"
     id="g958" />
  <g
     inkscape:label="F.Cu"
     inkscape:groupmode="layer"
     id="g960" />
  <g
     inkscape:label="F.Mask"
     inkscape:groupmode="layer"
     id="g962" />
  <g
     inkscape:label="F.SilkS"
     inkscape:groupmode="layer"
     id="g964" />
  <g
     inkscape:label="Dwgs.User"
     inkscape:groupmode="layer"
     id="g966" />
  <g
     inkscape:label="Drill"
     inkscape:groupmode="layer"
     id="g968">
    <path
       id="path1106-2"
       style="fill:#000000;stroke-width:0.211634"
       d="m 38.051281,76.785074 c -6.368127,0 -7.610082,0.04987 -8.147011,0.327524 -1.133398,0.586103 -1.377391,1.647948 -0.751948,2.930355 0.566484,0.841785 0.788582,0.728478 6.771406,0.750999 0.03655,1.616365 0.14752,1.823995 0.43813,2.17314 0.247836,0.297747 0.7469,0.602968 1.109125,0.67816 0.851121,0.176662 2.101905,-0.375302 2.440105,-1.076769 0.117279,-0.325566 0.190821,-0.297852 0.22727,-1.763694 5.540518,-0.0069 5.888852,-0.05855 6.353987,-0.42443 0.29775,-0.234213 0.602967,-0.70608 0.678163,-1.048397 0.176662,-0.804349 -0.375306,-1.986298 -1.076766,-2.305906 -0.363752,-0.165765 -2.874568,-0.240982 -8.042461,-0.240982 z m -9.095883,-2.493437 c -0.625441,-1.28241 -0.381452,-2.344236 0.75196,-2.930339 0.536925,-0.277653 1.778923,-0.327589 8.147057,-0.327589 5.167887,0 7.678693,0.07519 8.042436,0.240955 0.701469,0.319607 1.253387,1.501652 1.076728,2.306001 -0.0752,0.342317 -0.380351,0.814036 -0.678092,1.048249 -0.520761,0.409639 -0.845686,0.425849 -8.53613,0.425849 -7.998183,-0.06897 -8.178762,0.165895 -8.803959,-0.763126 z m 8.994525,-8.950499 c -6.368143,0 -7.610261,0.05003 -8.147172,0.327685 -1.133411,0.586103 -1.377385,1.647787 -0.751951,2.930194 0.625213,0.929021 0.805798,0.694296 8.803967,0.763271 7.690443,0 8.015449,-0.01622 8.536219,-0.425865 0.29775,-0.234213 0.602804,-0.70592 0.678003,-1.04824 C 47.245632,67.083837 46.69368,65.901728 45.99221,65.58212 45.628468,65.416355 43.1178,65.341138 37.949923,65.341138 Z"
       sodipodi:nodetypes="ssccssccsssscsscssccssccsccs"
       inkscape:export-filename="C:\Users\drew\Documents\GitHub\sectr-soldering-kit\sectr-soldering-kit\sectr.png"
       inkscape:export-xdpi="96"
       inkscape:export-ydpi="96" />
    <path
       id="path1106-6-2"
       style="fill:#000000;stroke-width:0.0859803"
       d="m 24.657815,84.713697 c -1.418353,0.0019 0,0 -1.950749,0.04906 -0.03438,2.320111 -0.03375,1.127278 -0.03438,2.320111 l -0.0013,2.168829 -0.243917,0.126072 c -0.260989,0.134964 -0.587551,0.522581 -0.819163,0.972291 l -0.142711,0.27714 0.341497,0.17424 0.438743,0.19287 0.214721,-0.28456 c 0.09918,-0.13144 0.155838,-0.24756 0.17826,-0.22513 0.02246,0.0224 0.03815,1.31698 0.0349,2.87674 -0.0032,1.55977 0,0 -0.01819,2.97647 l -0.005,0.1298 c 3.703943,0.0294 0.475946,0.0108 3.770249,0.0108 h 3.661575 v -0.47184 -0.47184 l -3.219392,-0.0226 -3.20277,-0.0225 v -2.6654 -2.66534 l 0.27817,0.0125 c 0.152989,0.007 0.549594,0.15047 0.881387,0.31903 0.702772,0.35702 1.608064,0.66118 2.132051,0.71634 0.63669,0.067 1.594397,-0.33976 2.089832,-0.88767 0.249735,-0.27619 0.594219,-0.76238 0.594219,-0.838651 0,-0.02748 -0.153105,-0.151246 -0.340201,-0.27506 l -0.340201,-0.22514 -0.426639,0.559591 c -0.24453,0.32073 -0.694126,0.56873 -0.846297,0.63234 -0.564561,0.236 -1.123478,0.13038 -2.302733,-0.43525 -0.504602,-0.242041 -1.747899,-0.60463 -1.747899,-0.60463 0,0 -0.01307,-0.425905 0.005,-1.744273 l 0.02331,-1.700098 3.207237,-0.02261 3.214926,-0.02254 V 84.742 l -3.665139,-0.02248 c -0.706836,-0.0044 -1.286559,-0.0065 -1.759344,-0.006 z m 14.253337,0.01974 c -0.959591,-0.0072 -2.085572,0.254732 -2.867813,0.692184 -2.342924,1.310241 -3.46909,3.807209 -2.918771,6.471459 0.326434,1.58037 1.523992,3.16361 2.936449,3.88213 1.056145,0.49151 1.957967,0.69216 3.01182,0.65586 1.371213,-0.0498 2.788093,-0.64002 3.793362,-1.58011 0.330498,-0.30907 0.86817,-1.03306 0.869474,-1.12971 l -1.048542,-0.0151 c -0.372674,0.36435 -0.209993,0.19776 -0.372674,0.36435 -1.309967,1.34154 -3.3626,1.79071 -5.251937,1.14927 -0.890333,-0.30228 -2.222368,-1.51273 -2.645265,-2.40381 -0.578393,-1.32011 -0.706854,-2.67507 -0.271177,-3.82179 0.335069,-0.874252 0.569473,-1.227527 1.285368,-1.93754 1.145102,-1.135692 2.441122,-1.561146 4.112972,-1.350117 0.998039,0.125977 1.746685,0.638312 2.622343,1.259599 0.151825,0.107722 0.297655,0.247697 0.47577,0.442106 l 1.094049,0.01459 c 0,-0.166259 -0.686752,-0.960443 -1.157423,-1.338659 -0.952214,-0.765174 -1.72087,-1.09566 -3.036552,-1.305505 -0.197459,-0.0315 -0.410009,-0.04748 -0.631453,-0.04915 z m -20.79673,0.04047 -3.245764,0.03277 c -3.701172,0.03735 -3.774009,0.04915 -4.648138,0.751628 -0.3671054,0.295015 -0.5640114,0.542595 -0.7890524,0.992176 -0.390535,0.855167 -0.432316,1.887262 -0.05763,2.619623 0.577363,1.117156 1.6215794,1.461686 4.4301854,1.461686 1.947914,0 2.349088,0.0775 2.917542,0.56411 0.499094,0.44939 0.806374,0.81998 0.918361,1.44071 0.05076,0.28137 -0.01433,1.04269 -0.244887,1.49768 -0.304597,0.60109 -0.880346,1.08409 -1.499176,1.25772 -0.418647,0.11748 -0.977954,0.14064 -3.397346,0.14064 H 9.6023416 l -2.4e-5,0.47857 2.4e-5,0.47858 3.1597764,-0.0292 c 3.05156,-0.0281 3.174541,-0.0357 3.589721,-0.22118 1.011225,-0.45173 1.43451,-0.82634 1.86152,-1.64733 0.406477,-0.92187 0.424206,-2.1779 0.02998,-2.97038 -0.496925,-0.93375 -1.430492,-1.57246 -2.063479,-1.78926 -0.120877,-0.0414 -0.983485,-0.1183 -2.45043,-0.15307 -1.510666,-0.0358 -2.379891,-0.0911 -2.579413,-0.164079 -0.404034,-0.147822 -0.920621,-0.653252 -1.041259,-1.01879 -0.1248074,-0.37817 -0.0531,-1.191525 0.13753,-1.560171 0.200031,-0.386812 0.694986,-0.839882 1.161631,-1.063273 0.370827,-0.177522 0.518309,-0.186386 3.546726,-0.212448 l 3.159775,-0.0272 v -0.429753 z m 28.58295,0.0112 v 0.408386 0.474751 l 4.046345,0.01962 0.02214,5.395296 0.02221,5.39523 h 0.428588 0.428584 l 0.02215,-5.3953 0.02214,-5.395226 1.987917,-0.02304 1.987849,-0.02304 0.0097,-0.428325 0.0097,-0.428329 h -4.493702 z m 11.836451,0 -0.0064,5.787303 c -0.0035,3.18192 0,0 -0.0094,5.92032 l 0.976113,0.006 0.01968,-4.70657 1.305961,-0.0262 1.305961,-0.0262 0.370629,0.3751 c 0.203868,0.2063 0.815619,0.85341 1.359447,1.43806 2.074477,2.2302 2.226352,2.37682 2.702115,2.60978 0.39649,0.19414 0.581366,0.22935 1.204624,0.22935 h 0.736216 v -0.47288 -0.47288 h -0.649125 c -0.388302,0 -0.742372,-0.0483 -0.881262,-0.1203 -0.127695,-0.0662 -0.679767,-0.54164 -1.178011,-1.10168 l -2.222672,-2.49834 c 0.488516,0.0232 0.154323,0.0232 0.488516,0.0232 0.577384,0 1.473685,-0.29169 1.990702,-0.64777 0.523185,-0.36034 1.07708,-1.0206 1.299484,-1.5491 0.211371,-0.502298 0.259873,-1.702974 0.09207,-2.280201 -0.235823,-0.811205 -0.952979,-1.629747 -1.820014,-2.077337 -0.698583,-0.360624 -1.142144,-0.403713 -4.187243,-0.406958 z m 1.023064,0.945752 h 2.480603 c 1.623573,0 2.581598,0.03375 2.772888,0.09771 0.46478,0.155394 1.131664,0.700489 1.485383,1.214077 0.370864,0.538483 0.489133,1.214604 0.321098,1.835623 -0.211412,0.781381 -1.151598,1.650011 -2.034985,1.880101 -0.390217,0.10163 -1.014811,0.13132 -2.764536,0.13132 h -2.260451 v -2.579414 z"
       sodipodi:nodetypes="cccccccccsssccsccccccccssssscssscccccccccsssccscccsccsssccssssccsccscssssccccsccssssssscccccccccccccccccccccccccccssscccssscssssscccssssssccc"
       inkscape:export-filename="C:\Users\drew\Documents\GitHub\sectr-soldering-kit\sectr-soldering-kit\sectr.png"
       inkscape:export-xdpi="96"
       inkscape:export-ydpi="96" />
    <path
       style="fill:#000000;stroke-width:0.0816023"
       d="m 33.811617,63.721219 -2.386869,-0.02282 V 62.81512 61.931871 l -0.05357,-1.599489 -0.05357,-1.599488 -1.190868,-0.404584 -1.190868,-0.404583 -1.142435,-0.491156 -1.142431,-0.491156 -1.183235,-0.569958 -1.183234,-0.569957 -1.795723,1.787038 -1.795723,1.787007 -4.519746,-4.520303 -4.519745,-4.520273 1.801231,-1.826176 1.801229,-1.826177 -0.644058,-1.221953 -0.644058,-1.221954 -0.482749,-1.224051 -0.482749,-1.22402 -0.341687,-1.036255 -0.341691,-1.036224 -0.34145,-0.04204 -0.34145,-0.04204 -2.1959514,-0.08404 -2.195955,-0.08404 -0.0177,-0.02097 -0.0177,-0.02097 -0.05915,-6.315083 -0.05915,-6.315083 2.480097,0.03864 2.4801014,0.03868 0.340978,-0.822984 0.340981,-0.822984 0.28009,-0.77524 0.280093,-0.77521 0.258066,-0.647648 0.25807,-0.647617 0.73241,-1.546625 0.73241,-1.546657 -1.084417,-1.026447 -1.084418,-1.026417 -0.693617,-0.673493 -0.693621,-0.673493 1.10163,-1.112126 1.101634,-1.112095 3.333479,-3.255943 3.333478,-3.2559417 h 0.08142 0.08142 l 1.689917,1.458356 1.689917,1.4583257 0.164702,0.102858 0.164702,0.102857 1.870684,-0.8331297 1.870687,-0.833162 1.558386,-0.580042 1.558382,-0.580074 0.05305,-1.637239 0.05305,-1.637221 2.16e-4,-0.83643 2.13e-4,-0.836431 h 6.405785 6.405786 v 2.350765 2.350778 l 2.346068,1.009546 2.346068,1.009515 1.039802,0.476938 1.039798,0.4769067 0.244903,0.04901 0.244903,0.04898 0.286228,-0.21833 0.286224,-0.2182977 1.197296,-1.14488 1.197296,-1.144849 0.274625,-0.209447 0.274625,-0.209478 0.221247,0.114115 0.221244,0.114084 4.324926,4.3072167 4.324924,4.307248 -1.776987,1.737074 -1.776989,1.737075 0.809635,1.707928 0.809635,1.707898 0.417858,1.119127 0.41786,1.119127 0.35615,0.767345 0.356152,0.767345 1.580583,0.05293 1.580585,0.05289 0.836425,0.04922 0.836421,0.04922 v 6.343025 6.343026 l -0.746955,0.05302 -0.746959,0.05302 -1.517508,0.0096 -1.517508,0.0096 -0.235264,0.05157 -0.235265,0.05154 -0.712801,1.876849 -0.712801,1.87685 -0.343884,0.77524 -0.343883,0.77521 -0.148914,0.244822 -0.148917,0.244792 -0.211029,0.522708 -0.211029,0.522738 0.101448,0.126082 0.101448,0.126112 1.448444,1.705554 1.448441,1.705584 v 0.0636 0.0636 l -1.624057,1.702932 -1.624058,1.702932 -2.736167,2.727745 -2.736171,2.727714 -1.04593,-0.985335 -1.045931,-0.985335 -0.204006,-0.220611 -0.204006,-0.220612 -0.545105,-0.48468 -0.545108,-0.48471 -1.168542,0.524866 -1.168545,0.524836 -2.490232,1.030549 -2.490232,1.03055 v 2.32788 2.32788 l -0.121042,0.07652 -0.121045,0.07655 -3.876113,-0.01789 -3.87611,-0.01789 z m 4.776501,-11.669195 -0.02316,-0.877204 -0.836424,-0.02313 -0.836425,-0.02344 v 0.855429 0.855429 l 0.428415,0.02992 0.428412,0.02992 0.431172,0.01511 0.431175,0.01511 z m -3.083364,-0.237544 0.130051,-0.829152 -0.778991,-0.120499 -0.778988,-0.120499 -0.04675,0.07427 -0.04675,0.07427 -0.09896,0.743288 -0.09896,0.743258 0.04102,0.04102 0.04102,0.04102 0.512708,0.103598 0.512706,0.103598 0.240927,-0.01265 0.240927,-0.01234 z m 5.365469,0.69866 0.591617,-0.09743 v -0.162383 -0.162413 l -0.0942,-0.707512 -0.0942,-0.707542 -0.756523,0.127068 -0.756523,0.127069 -0.04909,0.04978 -0.04909,0.04981 0.124268,0.766235 0.124265,0.766234 3.09e-4,0.07004 3.08e-4,0.07004 0.183605,-0.0458 0.183604,-0.04577 0.591618,-0.09743 z m -8.272464,-1.155613 0.234586,-0.753929 0.0329,-0.08845 0.0329,-0.08842 -0.7571,-0.228353 -0.757102,-0.228322 -0.06853,-0.0096 -0.06853,-0.0096 -0.3098,0.787978 -0.3098,0.787979 0.78634,0.28541 0.786338,0.28541 0.0816,0.0071 0.0816,0.0068 0.234583,-0.753898 z m 11.205884,0.418185 0.718284,-0.255926 0.05559,-0.05009 0.05559,-0.05009 -0.283566,-0.731199 -0.283566,-0.731198 -0.03554,-0.03553 -0.03554,-0.03553 -0.776915,0.229433 -0.776918,0.229432 v 0.104678 0.104677 l 0.213024,0.67741 0.213025,0.677441 0.0366,0.06119 0.0366,0.06122 h 0.07252 0.07252 z m -13.900036,-1.236018 0.23331,-0.507317 0.115727,-0.267923 0.115731,-0.267924 -0.703974,-0.323685 -0.703974,-0.323716 h -0.05506 -0.05506 l -0.387016,0.779096 -0.387015,0.779096 0.4706,0.201644 0.470603,0.201644 0.244807,0.115688 0.244807,0.115656 0.0816,0.0031 0.0816,0.0031 0.233309,-0.507318 z m 16.568623,0.137339 0.701775,-0.293769 v -0.02992 -0.02992 l -0.369075,-0.752695 -0.369075,-0.752695 -0.02628,-0.02622 -0.02628,-0.02622 -0.735429,0.347772 -0.735427,0.347742 0.352553,0.754823 0.35255,0.754823 h 0.07645 0.07645 z M 27.915848,48.20691 v -0.07162 l -0.654819,-0.429904 -0.654818,-0.429905 -0.02662,0.03201 -0.02662,0.03198 -0.43136,0.678397 -0.43136,0.678366 0.0735,0.0735 0.0735,0.0735 0.566093,0.400265 0.566093,0.400296 0.473206,-0.682622 0.47321,-0.682654 z m 21.051838,0.918963 0.639271,-0.457693 -0.452058,-0.705137 -0.452058,-0.705137 -0.01397,-0.01789 -0.01397,-0.01789 -0.673847,0.451123 -0.673852,0.451155 0.147801,0.227828 0.147797,0.227829 0.326408,0.501118 0.326412,0.501119 h 0.0264 0.0264 l 0.639268,-0.457693 z m -23.66335,-1.832468 0.594239,-0.658103 -0.597721,-0.54553 -0.597718,-0.545531 h -0.05534 -0.05535 l -0.592645,0.55907 -0.592644,0.55907 0.640785,0.644564 0.640783,0.644563 h 0.01067 0.0107 z m 25.961851,-0.0475 0.62769,-0.624023 -0.624692,-0.589295 -0.624696,-0.589295 -0.630854,0.569618 -0.630855,0.569648 0.58404,0.64367 0.584043,0.643669 h 0.04382 0.04382 z m -12.123786,-0.607122 0.891397,-0.0887 0.762201,-0.155782 0.7622,-0.155782 0.747446,-0.24837 0.747443,-0.248338 0.816023,-0.397922 0.816022,-0.39789 0.708339,-0.476106 0.708338,-0.476105 0.694059,-0.596851 0.694061,-0.596852 0.581471,-0.677348 0.58147,-0.677349 0.443444,-0.6371 0.443444,-0.637069 0.401283,-0.781594 0.401284,-0.781594 0.245602,-0.618687 0.2456,-0.618718 0.209512,-0.769041 0.209512,-0.769042 0.121695,-0.856323 0.121693,-0.856324 0.0015,-0.899749 0.0015,-0.89978 L 51.41302,31.628893 51.3271,30.937419 51.203668,30.325393 51.080236,29.713368 50.765923,28.766369 50.451614,27.81937 50.069536,27.052735 49.687461,26.286068 49.148216,25.470055 48.608972,24.654041 47.503881,23.546357 46.398787,22.438703 45.509912,21.848236 44.621035,21.2578 43.796263,20.861544 42.971487,20.465288 42.114664,20.181204 41.257837,19.89715 40.60502,19.767337 39.9522,19.637524 l -0.734421,-0.08195 -0.734421,-0.08195 h -0.709841 -0.709843 l -0.922205,0.121856 -0.922205,0.121825 -0.775225,0.208399 -0.775222,0.208398 -0.816023,0.325782 -0.816023,0.325783 -0.880238,0.502043 -0.880239,0.502075 -0.833411,0.66168 -0.833411,0.66165 -0.645131,0.704922 -0.645131,0.70489 -0.480069,0.671581 -0.480066,0.671581 -0.441753,0.781902 -0.441751,0.781872 -0.327322,0.817925 -0.327315,0.817957 -0.203806,0.773297 -0.203806,0.773329 -0.08479,0.691474 -0.08479,0.691474 v 0.964178 0.964177 l 0.08599,0.79242 0.08599,0.792419 0.19211,0.856817 0.192108,0.856817 0.258504,0.709794 0.258504,0.709795 0.381427,0.737891 0.381424,0.73786 0.530415,0.755255 0.530418,0.755224 0.938425,0.949343 0.938428,0.949342 0.676784,0.496862 0.676784,0.496862 0.792058,0.447546 0.792059,0.447577 0.838744,0.331673 0.838741,0.331674 0.793304,0.197788 0.793308,0.197789 0.652817,0.0862 0.65282,0.0862 0.285608,0.02807 0.285607,0.02807 0.577446,0.01295 0.577442,0.01295 0.891401,-0.0887 z M 35.912878,45.045899 35.21926,44.920588 34.271669,44.606557 33.324078,44.292525 32.676076,43.966712 32.02807,43.640899 31.297998,43.148385 30.567925,42.655903 29.996706,42.157437 29.425491,41.658971 28.869628,41.031124 28.313766,40.403307 27.878788,39.750478 27.44381,39.097649 27.118043,38.44485 l -0.32577,-0.652829 -0.253409,-0.718183 -0.253412,-0.718183 -0.167977,-0.791464 -0.167977,-0.791463 -0.04713,-1.183247 -0.04714,-1.183216 0.135174,-0.915818 0.135173,-0.915787 0.247559,-0.838651 0.247555,-0.838652 0.406412,-0.854534 0.406412,-0.854535 0.540596,-0.818327 0.540593,-0.818296 1.02661,-1.020741 1.026611,-1.020711 0.693618,-0.459697 0.69362,-0.459667 0.65282,-0.325351 0.65282,-0.32535 0.775222,-0.246581 0.775222,-0.24655 0.816023,-0.144925 0.816026,-0.144957 1.428039,-0.0034 1.428042,-0.0034 0.612019,0.108378 0.612016,0.108347 0.775222,0.24362 0.775225,0.24362 0.864482,0.429411 0.864478,0.42938 0.52276,0.35246 0.52276,0.352461 0.571216,0.464663 0.571215,0.464694 0.653252,0.683795 0.653245,0.683825 0.422281,0.566287 0.42228,0.566287 0.333391,0.582664 0.333391,0.582695 0.33109,0.809506 0.331091,0.809475 0.159199,0.668558 0.159203,0.668559 0.07112,1.136121 0.07112,1.13609 -0.06575,0.888214 -0.06576,0.888214 -0.096,0.530418 -0.09599,0.530418 -0.246769,0.77521 -0.246772,0.775209 -0.346736,0.694559 -0.346739,0.694589 -0.294167,0.459852 -0.294163,0.459851 -0.486185,0.600028 -0.486181,0.600028 -0.597925,0.585317 -0.597927,0.585286 -0.775222,0.580412 -0.775222,0.580413 -0.979229,0.482181 -0.979228,0.482151 -0.65282,0.209539 -0.652817,0.209509 -0.571219,0.129319 -0.571215,0.12932 -1.550444,0.02992 -1.550447,0.02992 -0.693621,-0.12531 z M 23.998934,44.718451 v -0.03596 l -0.459504,-0.548337 -0.459503,-0.548368 -0.05731,-0.0639 -0.0573,-0.06394 -0.703447,0.56274 -0.70345,0.56274 0.572536,0.62134 0.572532,0.621371 0.647722,-0.535877 0.647725,-0.535877 z m 29.178654,0.414267 0.550894,-0.615541 -0.155945,-0.110013 -0.155949,-0.110013 -0.520416,-0.416889 -0.520416,-0.416889 h -0.06022 -0.06023 l -0.500245,0.604778 -0.500246,0.604777 0.632073,0.534335 0.632073,0.534335 0.05387,0.0034 0.05387,0.0034 0.550894,-0.615541 z m -31.361519,-2.261046 0.550816,-0.324518 v -0.06557 -0.06554 l -0.376323,-0.639167 -0.376319,-0.639166 -0.01564,-0.01789 -0.01564,-0.01789 -0.689287,0.420004 -0.689285,0.420035 -0.03943,0.03174 -0.03943,0.03177 0.316662,0.586211 0.316663,0.58618 0.07814,0.100298 0.07815,0.100266 0.175037,-0.09107 0.175036,-0.09108 z m 32.986123,-0.266535 0.35766,-0.654248 -0.689886,-0.426974 -0.689882,-0.427006 h -0.06351 -0.06351 l -0.363046,0.632412 -0.363045,0.632443 v 0.06181 0.06181 l 0.652817,0.401777 0.65282,0.401776 0.10596,-0.0148 0.10596,-0.0148 z m -34.465021,-2.195754 0.764878,-0.27952 -0.02412,-0.1081 -0.02412,-0.10807 -0.248313,-0.702978 -0.248314,-0.702978 -0.774596,0.226749 -0.774596,0.226749 -0.04228,0.04225 -0.04227,0.04228 0.255241,0.821565 0.255241,0.821565 h 0.06917 0.06917 z m 35.771712,-0.628217 0.27296,-0.841243 -0.748208,-0.224559 -0.748204,-0.224529 -0.08161,-0.0031 -0.0816,-0.0031 -0.265209,0.722594 -0.265206,0.722624 v 0.08201 0.08204 l 0.795624,0.283405 0.795621,0.283406 0.02643,-0.02005 0.02643,-0.02005 0.272963,-0.841273 z m -36.578516,-2.046357 0.79646,-0.179622 v -0.04892 -0.04895 l -0.156676,-0.716949 -0.156674,-0.71695 -0.04014,-0.04013 -0.04014,-0.04016 -0.818509,0.16963 -0.818508,0.1696 h -0.03766 -0.03766 l 0.212031,0.816013 0.212035,0.816044 h 0.04449 0.04449 z m 37.219968,-0.330408 0.122035,-0.428393 0.09312,-0.355052 0.09313,-0.355051 -0.02575,-0.02221 -0.02575,-0.02221 -0.856824,-0.159792 -0.856826,-0.159791 -0.06525,0.292226 -0.06525,0.292257 -0.113815,0.487332 -0.113819,0.487363 0.03122,0.03124 0.03122,0.03121 0.637455,0.144771 0.637451,0.144803 0.177816,0.0099 0.177816,0.0099 z m -37.606743,-2.509416 0.571216,-0.0031 0.110398,-0.06998 0.110399,-0.06995 -0.05823,-0.776629 -0.05823,-0.776659 -0.296979,0.02992 -0.296979,0.02992 -0.550814,0.04916 -0.550817,0.04916 v 0.755132 0.755131 l 0.05913,0.05912 0.05913,0.05912 0.165278,-0.04441 0.165282,-0.04441 0.571215,-0.0031 z m 37.985903,-0.686786 v -0.686971 l 0.04566,-0.118988 0.04566,-0.118988 -0.867069,-0.05909 -0.867069,-0.05912 -0.02504,0.02868 -0.02504,0.02868 -0.03964,0.792173 -0.03963,0.792142 0.539264,0.02837 0.539263,0.02837 0.34681,0.01604 0.346811,0.01604 z m -37.162099,-3.025985 0.08939,-0.816014 -0.01536,-0.02128 -0.01536,-0.02128 -0.823471,-0.1506 -0.823471,-0.150601 -0.0904,0.538992 -0.0904,0.538992 -0.01696,0.36711 -0.01696,0.367142 0.693621,0.09246 0.693621,0.09243 0.163202,-0.0108 0.163206,-0.0108 z m 36.526184,0.682684 0.721572,-0.09253 -0.0385,-0.13188 -0.0385,-0.131848 -0.0955,-0.693633 -0.0955,-0.693603 -0.06057,-0.06606 -0.06057,-0.06606 -0.794899,0.141996 -0.794896,0.141965 0.05255,0.6177 0.05255,0.617701 0.04375,0.224405 0.04374,0.224405 H 55.600405 55.772 Z m -35.989061,-3.295667 0.202896,-0.776906 -0.455503,-0.126482 -0.4555,-0.126483 -0.405039,-0.112788 -0.40504,-0.112789 -0.02239,0.02251 -0.02239,0.02221 -0.15774,0.769072 -0.157741,0.769041 0.04013,0.04117 0.04014,0.04114 0.667436,0.175799 0.667439,0.175798 0.130202,0.0077 0.130205,0.0077 0.202893,-0.776937 z m 35.400941,0.529246 0.69362,-0.174102 0.02474,-0.02467 0.02474,-0.02467 -0.144349,-0.753004 -0.144346,-0.753003 -0.08898,-0.03414 -0.08897,-0.03414 -0.760779,0.203587 -0.760779,0.203618 -0.03047,0.03053 -0.03047,0.03053 0.183824,0.787269 0.183824,0.787238 0.122405,-0.03544 0.122402,-0.03544 z m -34.471519,-3.052232 0.280127,-0.644224 v -0.09117 -0.0912 l -0.34681,-0.130831 -0.34681,-0.130831 -0.42679,-0.170556 -0.426786,-0.170524 -0.285367,0.617639 -0.28537,0.617638 -0.02227,0.126267 -0.02227,0.126266 0.734421,0.310886 0.734422,0.310917 0.06668,-0.0182 0.06668,-0.01789 z m 33.7983,0.224714 0.510013,-0.20624 v -0.06603 -0.06606 l -0.297306,-0.659707 -0.297303,-0.659676 h -0.06934 -0.06934 l -0.738464,0.295557 -0.738465,0.295557 0.02387,0.06057 0.02387,0.06054 0.284649,0.697704 0.284648,0.697674 0.286567,-0.121825 0.28657,-0.121826 z m -32.538774,-2.596421 0.413157,-0.612272 0.04097,-0.106743 0.04097,-0.106744 -0.662427,-0.513486 -0.66243,-0.513486 -0.109159,0.15128 -0.109158,0.151279 -0.416186,0.586149 -0.416186,0.586149 0.266924,0.198375 0.26692,0.198375 0.447725,0.296698 0.447722,0.296699 h 0.019 0.019 z m 31.064219,0.06952 0.678931,-0.461147 v -0.03729 -0.03729 l -0.507049,-0.715993 -0.507049,-0.715993 -0.655784,0.493747 -0.655787,0.493747 -0.02887,0.0219 -0.0289,0.0219 0.455463,0.698753 0.455463,0.698753 h 0.05732 0.05732 z m -29.355992,-2.23224 0.508123,-0.571715 -0.02702,-0.07994 -0.02702,-0.07994 -0.60397,-0.531313 -0.603966,-0.531281 -0.112773,0.09357 -0.112777,0.09361 -0.412155,0.517958 -0.412158,0.517958 0.02726,0.0697 0.02726,0.06973 0.571218,0.498342 0.571216,0.498373 0.04932,0.0034 0.04932,0.0034 0.508126,-0.571716 z m 27.662855,0.0052 0.657585,-0.56641 -0.483606,-0.608571 -0.483609,-0.608572 -0.06679,-0.04 -0.06679,-0.04003 -0.644687,0.592348 -0.644693,0.592349 0.522288,0.615449 0.522285,0.615418 0.01524,0.0071 0.0152,0.0071 0.657586,-0.566411 z M 26.433576,19.62997 27.02165,19.134959 26.857081,18.915951 26.692515,18.696943 26.293372,18.25575 25.89423,17.814558 l -0.620427,0.506978 -0.62043,0.506978 0.542622,0.648234 0.542622,0.648234 h 0.05344 0.05345 z m 23.664788,-0.221105 0.502941,-0.593705 v -0.02714 -0.02714 l -0.605713,-0.49714 -0.605715,-0.497139 -0.536719,0.599689 -0.536719,0.599688 v 0.0833 0.0833 l 0.591618,0.491958 0.591617,0.491928 0.04787,-0.05703 0.04787,-0.05706 z m -21.448095,-1.445002 0.530415,-0.314216 0.03614,-0.0293 0.03614,-0.0293 -0.358935,-0.732309 -0.358934,-0.732277 h -0.07381 -0.07381 l -0.72462,0.38762 -0.724623,0.38762 -9.25e-4,0.05252 -9.26e-4,0.05252 0.4244,0.741747 0.424399,0.741746 0.167218,-0.106096 0.167218,-0.106096 0.530415,-0.314186 z m 19.224268,-0.185668 0.305751,-0.550095 0.112298,-0.174503 0.112298,-0.174503 -0.780653,-0.417105 -0.780653,-0.417136 h -0.03797 -0.03797 l -0.373122,0.742949 -0.373121,0.742918 0.02551,0.02406 0.02551,0.02406 0.68753,0.412293 0.687532,0.412263 0.06067,-0.0375 0.06067,-0.03747 z m -16.928266,-0.881274 0.678416,-0.290376 0.02582,-0.02591 0.02581,-0.02591 -0.323944,-0.805866 -0.323947,-0.805836 -0.06704,0.0148 -0.06704,0.0148 -0.70832,0.32862 -0.708317,0.32862 0.334409,0.778541 0.334412,0.77854 h 0.06067 0.06067 z m 14.506969,-0.518976 0.33324,-0.768579 -0.02026,-0.01758 -0.02026,-0.01758 -0.671406,-0.335868 -0.671411,-0.335899 h -0.07179 -0.07179 l -0.297232,0.717073 -0.297229,0.717104 0.0019,0.119327 0.0019,0.119327 0.71211,0.29784 0.712107,0.297839 0.01342,-0.01234 0.01342,-0.01234 0.33324,-0.768548 z M 33.597686,16.114124 34.342584,15.93592 34.123872,15.113183 33.905163,14.290415 h -0.07737 -0.07737 l -0.715383,0.155104 -0.71538,0.155134 0.0387,0.129782 0.0387,0.129752 0.176684,0.71402 0.176683,0.714019 h 0.05118 0.05118 l 0.744896,-0.178173 z m 9.138508,-0.678459 0.199473,-0.785573 -0.03977,-0.06434 -0.03977,-0.06437 -0.705248,-0.147979 -0.705245,-0.14801 -0.06728,0.108872 -0.06728,0.108841 -0.172742,0.68876 -0.172742,0.68876 0.03835,0.03834 0.03835,0.03834 0.719793,0.183879 0.71979,0.183848 0.02742,-0.0219 0.02742,-0.0219 z m -5.986892,0.146437 0.469216,-0.05012 v -0.343609 -0.343609 l -0.0535,-0.511882 -0.0535,-0.511851 -0.864524,0.05789 -0.864528,0.05792 -0.02905,0.02899 -0.02905,0.02899 0.103234,0.871066 0.103237,0.871097 0.374632,-0.05243 0.374636,-0.05243 z m 3.025317,-0.128857 0.04412,-0.183602 0.05611,-0.66461 0.05612,-0.664611 -0.15259,-0.04262 -0.15259,-0.04259 -0.742671,-0.05277 -0.742672,-0.0528 -0.04636,0.841396 -0.04637,0.841397 0.01684,0.01696 0.01684,0.01696 0.527389,0.07528 0.527392,0.07531 0.297161,0.01018 0.297161,0.01018 z"
       id="path1228"
       inkscape:export-filename="C:\Users\drew\Documents\GitHub\sectr-soldering-kit\sectr-soldering-kit\sectr.png"
       inkscape:export-xdpi="96"
       inkscape:export-ydpi="96" />
  </g>
</svg>
