%TF.GenerationSoftware,KiCad,Pcbnew,7.0.2*%
%TF.CreationDate,2023-06-01T22:40:15-04:00*%
%TF.ProjectId,sectr-soldering-kit,73656374-722d-4736-9f6c-646572696e67,rev?*%
%TF.SameCoordinates,Original*%
%TF.FileFunction,Copper,L2,Bot*%
%TF.FilePolarity,Positive*%
%FSLAX46Y46*%
G04 Gerber Fmt 4.6, Leading zero omitted, Abs format (unit mm)*
G04 Created by KiCad (PCBNEW 7.0.2) date 2023-06-01 22:40:15*
%MOMM*%
%LPD*%
G01*
G04 APERTURE LIST*
G04 Aperture macros list*
%AMFreePoly0*
4,1,6,1.000000,0.000000,0.500000,-0.750000,-0.500000,-0.750000,-0.500000,0.750000,0.500000,0.750000,1.000000,0.000000,1.000000,0.000000,$1*%
%AMFreePoly1*
4,1,6,0.500000,-0.750000,-0.650000,-0.750000,-0.150000,0.000000,-0.650000,0.750000,0.500000,0.750000,0.500000,-0.750000,0.500000,-0.750000,$1*%
G04 Aperture macros list end*
%TA.AperFunction,ComponentPad*%
%ADD10C,1.650000*%
%TD*%
%TA.AperFunction,ComponentPad*%
%ADD11C,1.524000*%
%TD*%
%TA.AperFunction,SMDPad,CuDef*%
%ADD12C,17.800000*%
%TD*%
%TA.AperFunction,ComponentPad*%
%ADD13C,2.300000*%
%TD*%
%TA.AperFunction,SMDPad,CuDef*%
%ADD14FreePoly0,180.000000*%
%TD*%
%TA.AperFunction,SMDPad,CuDef*%
%ADD15FreePoly1,180.000000*%
%TD*%
%TA.AperFunction,ComponentPad*%
%ADD16R,1.800000X1.800000*%
%TD*%
%TA.AperFunction,ComponentPad*%
%ADD17C,1.800000*%
%TD*%
%TA.AperFunction,ViaPad*%
%ADD18C,0.800000*%
%TD*%
%TA.AperFunction,Conductor*%
%ADD19C,1.000000*%
%TD*%
%TA.AperFunction,Conductor*%
%ADD20C,0.500000*%
%TD*%
G04 APERTURE END LIST*
D10*
%TO.P,U1,1*%
%TO.N,unconnected-(U1-Pad1)*%
X177000000Y-90100000D03*
X177000000Y-81900000D03*
D11*
%TO.P,U1,2*%
%TO.N,Net-(D1-A)*%
X177000000Y-88000000D03*
%TO.P,U1,3*%
%TO.N,Net-(JP1-B)*%
X177000000Y-86000000D03*
%TO.P,U1,4*%
%TO.N,unconnected-(U1-Pad4)*%
X177000000Y-84000000D03*
%TD*%
D12*
%TO.P,BT2,N*%
%TO.N,Net-(D1-K)*%
X144500000Y-70500000D03*
D13*
%TO.P,BT2,P1*%
%TO.N,Net-(JP1-B)*%
X154900000Y-69000000D03*
%TO.P,BT2,P2*%
X154900000Y-72100000D03*
%TO.P,BT2,P3*%
X134100000Y-72100000D03*
%TO.P,BT2,P4*%
X134100000Y-69000000D03*
%TD*%
D14*
%TO.P,JP1,1,A*%
%TO.N,Net-(D1-A)*%
X146000000Y-41500000D03*
D15*
%TO.P,JP1,2,B*%
%TO.N,Net-(JP1-B)*%
X144550000Y-41500000D03*
%TD*%
D16*
%TO.P,D2,1,K*%
%TO.N,Net-(D1-K)*%
X161460000Y-52500000D03*
D17*
%TO.P,D2,2,A*%
%TO.N,Net-(D1-A)*%
X164000000Y-52500000D03*
%TD*%
D16*
%TO.P,D3,1,K*%
%TO.N,Net-(D1-K)*%
X144500000Y-95500000D03*
D17*
%TO.P,D3,2,A*%
%TO.N,Net-(D1-A)*%
X147040000Y-95500000D03*
%TD*%
D16*
%TO.P,D1,1,K*%
%TO.N,Net-(D1-K)*%
X125460000Y-51500000D03*
D17*
%TO.P,D1,2,A*%
%TO.N,Net-(D1-A)*%
X128000000Y-51500000D03*
%TD*%
D18*
%TO.N,Net-(D1-K)*%
X144500000Y-70500000D03*
X144500000Y-61000000D03*
X145000000Y-52500000D03*
%TO.N,Net-(D1-A)*%
X164500000Y-88000000D03*
X164000000Y-43000000D03*
X128500000Y-43000000D03*
X147500000Y-88000000D03*
%TO.N,Net-(JP1-B)*%
X134500000Y-41500000D03*
X172000000Y-72000000D03*
X172000000Y-86000000D03*
%TD*%
D19*
%TO.N,Net-(D1-K)*%
X145000000Y-52500000D02*
X161460000Y-52500000D01*
X144400000Y-53100000D02*
X127060000Y-53100000D01*
X145000000Y-52500000D02*
X144400000Y-53100000D01*
X144500000Y-70500000D02*
X144500000Y-61000000D01*
X127060000Y-53100000D02*
X125460000Y-51500000D01*
%TO.N,Net-(D1-A)*%
X154500000Y-88000000D02*
X147500000Y-88000000D01*
X148500000Y-43500000D02*
X164000000Y-43000000D01*
X147000000Y-44000000D02*
X148500000Y-43500000D01*
X128950000Y-43450000D02*
X147000000Y-44000000D01*
D20*
X146000000Y-41500000D02*
X148000000Y-43500000D01*
D19*
X128500000Y-43000000D02*
X128950000Y-43450000D01*
X177000000Y-88000000D02*
X164500000Y-88000000D01*
D20*
X148000000Y-43500000D02*
X148500000Y-43500000D01*
D19*
X164500000Y-88000000D02*
X154500000Y-88000000D01*
%TO.N,Net-(JP1-B)*%
X171900000Y-72100000D02*
X172000000Y-72000000D01*
X154900000Y-72100000D02*
X171900000Y-72100000D01*
D20*
X144550000Y-41500000D02*
X134500000Y-41500000D01*
D19*
X172000000Y-86000000D02*
X177000000Y-86000000D01*
%TD*%
M02*
