M48
; DRILL file {KiCad 7.0.2} date Thu Jun  1 22:42:25 2023
; FORMAT={-:-/ absolute / metric / decimal}
; #@! TF.CreationDate,2023-06-01T22:42:25-04:00
; #@! TF.GenerationSoftware,Kicad,Pcbnew,7.0.2
; #@! TF.FileFunction,Plated,1,2,PTH
FMAT,2
METRIC
; #@! TA.AperFunction,Plated,PTH,ViaDrill
T1C0.400
; #@! TA.AperFunction,Plated,PTH,ComponentDrill
T2C0.800
; #@! TA.AperFunction,Plated,PTH,ComponentDrill
T3C0.900
; #@! TA.AperFunction,Plated,PTH,ComponentDrill
T4C1.000
; #@! TA.AperFunction,Plated,PTH,ComponentDrill
T5C1.250
%
G90
G05
T1
X128.5Y-43.0
X134.5Y-41.5
X144.5Y-61.0
X144.5Y-70.5
X145.0Y-52.5
X147.5Y-88.0
X164.0Y-43.0
X164.5Y-88.0
X172.0Y-72.0
X172.0Y-86.0
T2
X177.0Y-84.0
X177.0Y-86.0
X177.0Y-88.0
T3
X125.46Y-51.5
X128.0Y-51.5
X144.5Y-95.5
X147.04Y-95.5
X161.46Y-52.5
X164.0Y-52.5
T4
X134.1Y-69.0
X134.1Y-72.1
X154.9Y-69.0
X154.9Y-72.1
T5
X177.0Y-81.9
X177.0Y-90.1
T0
M30
