%TF.GenerationSoftware,KiCad,Pcbnew,7.0.2*%
%TF.CreationDate,2023-06-01T22:40:15-04:00*%
%TF.ProjectId,sectr-soldering-kit,73656374-722d-4736-9f6c-646572696e67,rev?*%
%TF.SameCoordinates,Original*%
%TF.FileFunction,Legend,Bot*%
%TF.FilePolarity,Positive*%
%FSLAX46Y46*%
G04 Gerber Fmt 4.6, Leading zero omitted, Abs format (unit mm)*
G04 Created by KiCad (PCBNEW 7.0.2) date 2023-06-01 22:40:15*
%MOMM*%
%LPD*%
G01*
G04 APERTURE LIST*
G04 Aperture macros list*
%AMRoundRect*
0 Rectangle with rounded corners*
0 $1 Rounding radius*
0 $2 $3 $4 $5 $6 $7 $8 $9 X,Y pos of 4 corners*
0 Add a 4 corners polygon primitive as box body*
4,1,4,$2,$3,$4,$5,$6,$7,$8,$9,$2,$3,0*
0 Add four circle primitives for the rounded corners*
1,1,$1+$1,$2,$3*
1,1,$1+$1,$4,$5*
1,1,$1+$1,$6,$7*
1,1,$1+$1,$8,$9*
0 Add four rect primitives between the rounded corners*
20,1,$1+$1,$2,$3,$4,$5,0*
20,1,$1+$1,$4,$5,$6,$7,0*
20,1,$1+$1,$6,$7,$8,$9,0*
20,1,$1+$1,$8,$9,$2,$3,0*%
%AMFreePoly0*
4,1,23,0.586777,0.930194,0.656366,0.874698,0.666410,0.860940,1.166410,0.110940,1.198065,0.027751,1.190491,-0.060935,1.166410,-0.110940,0.666410,-0.860940,0.601795,-0.922156,0.517019,-0.949275,0.500000,-0.950000,-0.500000,-0.950000,-0.586777,-0.930194,-0.656366,-0.874698,-0.694986,-0.794504,-0.700000,-0.750000,-0.700000,0.750000,-0.680194,0.836777,-0.624698,0.906366,-0.544504,0.944986,
-0.500000,0.950000,0.500000,0.950000,0.586777,0.930194,0.586777,0.930194,$1*%
%AMFreePoly1*
4,1,24,0.586777,0.930194,0.656366,0.874698,0.694986,0.794504,0.700000,0.750000,0.700000,-0.750000,0.680194,-0.836777,0.624698,-0.906366,0.544504,-0.944986,0.500000,-0.950000,-0.650000,-0.950000,-0.736777,-0.930194,-0.806366,-0.874698,-0.844986,-0.794504,-0.844986,-0.705496,-0.816410,-0.639060,-0.390370,0.000000,-0.816410,0.639060,-0.848065,0.722249,-0.840491,0.810935,-0.795188,0.887551,
-0.721129,0.936924,-0.650000,0.950000,0.500000,0.950000,0.586777,0.930194,0.586777,0.930194,$1*%
G04 Aperture macros list end*
%ADD10C,0.153000*%
%ADD11C,0.127000*%
%ADD12C,0.120000*%
%ADD13C,5.300000*%
%ADD14C,2.050000*%
%ADD15C,1.924000*%
%ADD16C,18.200000*%
%ADD17C,2.700000*%
%ADD18FreePoly0,180.000000*%
%ADD19FreePoly1,180.000000*%
%ADD20RoundRect,0.200000X-0.900000X-0.900000X0.900000X-0.900000X0.900000X0.900000X-0.900000X0.900000X0*%
%ADD21C,2.200000*%
G04 APERTURE END LIST*
D10*
X167857142Y-131710952D02*
X167666666Y-132377619D01*
X167666666Y-132377619D02*
X167476190Y-131901428D01*
X167476190Y-131901428D02*
X167285714Y-132377619D01*
X167285714Y-132377619D02*
X167095238Y-131710952D01*
X166809523Y-131710952D02*
X166619047Y-132377619D01*
X166619047Y-132377619D02*
X166428571Y-131901428D01*
X166428571Y-131901428D02*
X166238095Y-132377619D01*
X166238095Y-132377619D02*
X166047619Y-131710952D01*
X165761904Y-131710952D02*
X165571428Y-132377619D01*
X165571428Y-132377619D02*
X165380952Y-131901428D01*
X165380952Y-131901428D02*
X165190476Y-132377619D01*
X165190476Y-132377619D02*
X165000000Y-131710952D01*
X164619047Y-132282380D02*
X164571428Y-132330000D01*
X164571428Y-132330000D02*
X164619047Y-132377619D01*
X164619047Y-132377619D02*
X164666666Y-132330000D01*
X164666666Y-132330000D02*
X164619047Y-132282380D01*
X164619047Y-132282380D02*
X164619047Y-132377619D01*
X164190476Y-132330000D02*
X164095238Y-132377619D01*
X164095238Y-132377619D02*
X163904762Y-132377619D01*
X163904762Y-132377619D02*
X163809524Y-132330000D01*
X163809524Y-132330000D02*
X163761905Y-132234761D01*
X163761905Y-132234761D02*
X163761905Y-132187142D01*
X163761905Y-132187142D02*
X163809524Y-132091904D01*
X163809524Y-132091904D02*
X163904762Y-132044285D01*
X163904762Y-132044285D02*
X164047619Y-132044285D01*
X164047619Y-132044285D02*
X164142857Y-131996666D01*
X164142857Y-131996666D02*
X164190476Y-131901428D01*
X164190476Y-131901428D02*
X164190476Y-131853809D01*
X164190476Y-131853809D02*
X164142857Y-131758571D01*
X164142857Y-131758571D02*
X164047619Y-131710952D01*
X164047619Y-131710952D02*
X163904762Y-131710952D01*
X163904762Y-131710952D02*
X163809524Y-131758571D01*
X163333333Y-131710952D02*
X163333333Y-132710952D01*
X163333333Y-131758571D02*
X163238095Y-131710952D01*
X163238095Y-131710952D02*
X163047619Y-131710952D01*
X163047619Y-131710952D02*
X162952381Y-131758571D01*
X162952381Y-131758571D02*
X162904762Y-131806190D01*
X162904762Y-131806190D02*
X162857143Y-131901428D01*
X162857143Y-131901428D02*
X162857143Y-132187142D01*
X162857143Y-132187142D02*
X162904762Y-132282380D01*
X162904762Y-132282380D02*
X162952381Y-132330000D01*
X162952381Y-132330000D02*
X163047619Y-132377619D01*
X163047619Y-132377619D02*
X163238095Y-132377619D01*
X163238095Y-132377619D02*
X163333333Y-132330000D01*
X162000000Y-132377619D02*
X162000000Y-131853809D01*
X162000000Y-131853809D02*
X162047619Y-131758571D01*
X162047619Y-131758571D02*
X162142857Y-131710952D01*
X162142857Y-131710952D02*
X162333333Y-131710952D01*
X162333333Y-131710952D02*
X162428571Y-131758571D01*
X162000000Y-132330000D02*
X162095238Y-132377619D01*
X162095238Y-132377619D02*
X162333333Y-132377619D01*
X162333333Y-132377619D02*
X162428571Y-132330000D01*
X162428571Y-132330000D02*
X162476190Y-132234761D01*
X162476190Y-132234761D02*
X162476190Y-132139523D01*
X162476190Y-132139523D02*
X162428571Y-132044285D01*
X162428571Y-132044285D02*
X162333333Y-131996666D01*
X162333333Y-131996666D02*
X162095238Y-131996666D01*
X162095238Y-131996666D02*
X162000000Y-131949047D01*
X161523809Y-132377619D02*
X161523809Y-131710952D01*
X161523809Y-131901428D02*
X161476190Y-131806190D01*
X161476190Y-131806190D02*
X161428571Y-131758571D01*
X161428571Y-131758571D02*
X161333333Y-131710952D01*
X161333333Y-131710952D02*
X161238095Y-131710952D01*
X160904761Y-132377619D02*
X160904761Y-131377619D01*
X160809523Y-131996666D02*
X160523809Y-132377619D01*
X160523809Y-131710952D02*
X160904761Y-132091904D01*
X160095237Y-132377619D02*
X160095237Y-131710952D01*
X160095237Y-131806190D02*
X160047618Y-131758571D01*
X160047618Y-131758571D02*
X159952380Y-131710952D01*
X159952380Y-131710952D02*
X159809523Y-131710952D01*
X159809523Y-131710952D02*
X159714285Y-131758571D01*
X159714285Y-131758571D02*
X159666666Y-131853809D01*
X159666666Y-131853809D02*
X159666666Y-132377619D01*
X159666666Y-131853809D02*
X159619047Y-131758571D01*
X159619047Y-131758571D02*
X159523809Y-131710952D01*
X159523809Y-131710952D02*
X159380952Y-131710952D01*
X159380952Y-131710952D02*
X159285713Y-131758571D01*
X159285713Y-131758571D02*
X159238094Y-131853809D01*
X159238094Y-131853809D02*
X159238094Y-132377619D01*
X158333333Y-132377619D02*
X158333333Y-131853809D01*
X158333333Y-131853809D02*
X158380952Y-131758571D01*
X158380952Y-131758571D02*
X158476190Y-131710952D01*
X158476190Y-131710952D02*
X158666666Y-131710952D01*
X158666666Y-131710952D02*
X158761904Y-131758571D01*
X158333333Y-132330000D02*
X158428571Y-132377619D01*
X158428571Y-132377619D02*
X158666666Y-132377619D01*
X158666666Y-132377619D02*
X158761904Y-132330000D01*
X158761904Y-132330000D02*
X158809523Y-132234761D01*
X158809523Y-132234761D02*
X158809523Y-132139523D01*
X158809523Y-132139523D02*
X158761904Y-132044285D01*
X158761904Y-132044285D02*
X158666666Y-131996666D01*
X158666666Y-131996666D02*
X158428571Y-131996666D01*
X158428571Y-131996666D02*
X158333333Y-131949047D01*
X157857142Y-132377619D02*
X157857142Y-131377619D01*
X157761904Y-131996666D02*
X157476190Y-132377619D01*
X157476190Y-131710952D02*
X157857142Y-132091904D01*
X156666666Y-132330000D02*
X156761904Y-132377619D01*
X156761904Y-132377619D02*
X156952380Y-132377619D01*
X156952380Y-132377619D02*
X157047618Y-132330000D01*
X157047618Y-132330000D02*
X157095237Y-132234761D01*
X157095237Y-132234761D02*
X157095237Y-131853809D01*
X157095237Y-131853809D02*
X157047618Y-131758571D01*
X157047618Y-131758571D02*
X156952380Y-131710952D01*
X156952380Y-131710952D02*
X156761904Y-131710952D01*
X156761904Y-131710952D02*
X156666666Y-131758571D01*
X156666666Y-131758571D02*
X156619047Y-131853809D01*
X156619047Y-131853809D02*
X156619047Y-131949047D01*
X156619047Y-131949047D02*
X157095237Y-132044285D01*
X156190475Y-132377619D02*
X156190475Y-131710952D01*
X156190475Y-131901428D02*
X156142856Y-131806190D01*
X156142856Y-131806190D02*
X156095237Y-131758571D01*
X156095237Y-131758571D02*
X155999999Y-131710952D01*
X155999999Y-131710952D02*
X155904761Y-131710952D01*
X155619046Y-132330000D02*
X155523808Y-132377619D01*
X155523808Y-132377619D02*
X155333332Y-132377619D01*
X155333332Y-132377619D02*
X155238094Y-132330000D01*
X155238094Y-132330000D02*
X155190475Y-132234761D01*
X155190475Y-132234761D02*
X155190475Y-132187142D01*
X155190475Y-132187142D02*
X155238094Y-132091904D01*
X155238094Y-132091904D02*
X155333332Y-132044285D01*
X155333332Y-132044285D02*
X155476189Y-132044285D01*
X155476189Y-132044285D02*
X155571427Y-131996666D01*
X155571427Y-131996666D02*
X155619046Y-131901428D01*
X155619046Y-131901428D02*
X155619046Y-131853809D01*
X155619046Y-131853809D02*
X155571427Y-131758571D01*
X155571427Y-131758571D02*
X155476189Y-131710952D01*
X155476189Y-131710952D02*
X155333332Y-131710952D01*
X155333332Y-131710952D02*
X155238094Y-131758571D01*
X154761903Y-131710952D02*
X154761903Y-132710952D01*
X154761903Y-131758571D02*
X154666665Y-131710952D01*
X154666665Y-131710952D02*
X154476189Y-131710952D01*
X154476189Y-131710952D02*
X154380951Y-131758571D01*
X154380951Y-131758571D02*
X154333332Y-131806190D01*
X154333332Y-131806190D02*
X154285713Y-131901428D01*
X154285713Y-131901428D02*
X154285713Y-132187142D01*
X154285713Y-132187142D02*
X154333332Y-132282380D01*
X154333332Y-132282380D02*
X154380951Y-132330000D01*
X154380951Y-132330000D02*
X154476189Y-132377619D01*
X154476189Y-132377619D02*
X154666665Y-132377619D01*
X154666665Y-132377619D02*
X154761903Y-132330000D01*
X153428570Y-132377619D02*
X153428570Y-131853809D01*
X153428570Y-131853809D02*
X153476189Y-131758571D01*
X153476189Y-131758571D02*
X153571427Y-131710952D01*
X153571427Y-131710952D02*
X153761903Y-131710952D01*
X153761903Y-131710952D02*
X153857141Y-131758571D01*
X153428570Y-132330000D02*
X153523808Y-132377619D01*
X153523808Y-132377619D02*
X153761903Y-132377619D01*
X153761903Y-132377619D02*
X153857141Y-132330000D01*
X153857141Y-132330000D02*
X153904760Y-132234761D01*
X153904760Y-132234761D02*
X153904760Y-132139523D01*
X153904760Y-132139523D02*
X153857141Y-132044285D01*
X153857141Y-132044285D02*
X153761903Y-131996666D01*
X153761903Y-131996666D02*
X153523808Y-131996666D01*
X153523808Y-131996666D02*
X153428570Y-131949047D01*
X152523808Y-132330000D02*
X152619046Y-132377619D01*
X152619046Y-132377619D02*
X152809522Y-132377619D01*
X152809522Y-132377619D02*
X152904760Y-132330000D01*
X152904760Y-132330000D02*
X152952379Y-132282380D01*
X152952379Y-132282380D02*
X152999998Y-132187142D01*
X152999998Y-132187142D02*
X152999998Y-131901428D01*
X152999998Y-131901428D02*
X152952379Y-131806190D01*
X152952379Y-131806190D02*
X152904760Y-131758571D01*
X152904760Y-131758571D02*
X152809522Y-131710952D01*
X152809522Y-131710952D02*
X152619046Y-131710952D01*
X152619046Y-131710952D02*
X152523808Y-131758571D01*
X151714284Y-132330000D02*
X151809522Y-132377619D01*
X151809522Y-132377619D02*
X151999998Y-132377619D01*
X151999998Y-132377619D02*
X152095236Y-132330000D01*
X152095236Y-132330000D02*
X152142855Y-132234761D01*
X152142855Y-132234761D02*
X152142855Y-131853809D01*
X152142855Y-131853809D02*
X152095236Y-131758571D01*
X152095236Y-131758571D02*
X151999998Y-131710952D01*
X151999998Y-131710952D02*
X151809522Y-131710952D01*
X151809522Y-131710952D02*
X151714284Y-131758571D01*
X151714284Y-131758571D02*
X151666665Y-131853809D01*
X151666665Y-131853809D02*
X151666665Y-131949047D01*
X151666665Y-131949047D02*
X152142855Y-132044285D01*
X151238093Y-132282380D02*
X151190474Y-132330000D01*
X151190474Y-132330000D02*
X151238093Y-132377619D01*
X151238093Y-132377619D02*
X151285712Y-132330000D01*
X151285712Y-132330000D02*
X151238093Y-132282380D01*
X151238093Y-132282380D02*
X151238093Y-132377619D01*
X150619046Y-132377619D02*
X150714284Y-132330000D01*
X150714284Y-132330000D02*
X150761903Y-132282380D01*
X150761903Y-132282380D02*
X150809522Y-132187142D01*
X150809522Y-132187142D02*
X150809522Y-131901428D01*
X150809522Y-131901428D02*
X150761903Y-131806190D01*
X150761903Y-131806190D02*
X150714284Y-131758571D01*
X150714284Y-131758571D02*
X150619046Y-131710952D01*
X150619046Y-131710952D02*
X150476189Y-131710952D01*
X150476189Y-131710952D02*
X150380951Y-131758571D01*
X150380951Y-131758571D02*
X150333332Y-131806190D01*
X150333332Y-131806190D02*
X150285713Y-131901428D01*
X150285713Y-131901428D02*
X150285713Y-132187142D01*
X150285713Y-132187142D02*
X150333332Y-132282380D01*
X150333332Y-132282380D02*
X150380951Y-132330000D01*
X150380951Y-132330000D02*
X150476189Y-132377619D01*
X150476189Y-132377619D02*
X150619046Y-132377619D01*
X149857141Y-132377619D02*
X149857141Y-131710952D01*
X149857141Y-131901428D02*
X149809522Y-131806190D01*
X149809522Y-131806190D02*
X149761903Y-131758571D01*
X149761903Y-131758571D02*
X149666665Y-131710952D01*
X149666665Y-131710952D02*
X149571427Y-131710952D01*
X148809522Y-131710952D02*
X148809522Y-132520476D01*
X148809522Y-132520476D02*
X148857141Y-132615714D01*
X148857141Y-132615714D02*
X148904760Y-132663333D01*
X148904760Y-132663333D02*
X148999998Y-132710952D01*
X148999998Y-132710952D02*
X149142855Y-132710952D01*
X149142855Y-132710952D02*
X149238093Y-132663333D01*
X148809522Y-132330000D02*
X148904760Y-132377619D01*
X148904760Y-132377619D02*
X149095236Y-132377619D01*
X149095236Y-132377619D02*
X149190474Y-132330000D01*
X149190474Y-132330000D02*
X149238093Y-132282380D01*
X149238093Y-132282380D02*
X149285712Y-132187142D01*
X149285712Y-132187142D02*
X149285712Y-131901428D01*
X149285712Y-131901428D02*
X149238093Y-131806190D01*
X149238093Y-131806190D02*
X149190474Y-131758571D01*
X149190474Y-131758571D02*
X149095236Y-131710952D01*
X149095236Y-131710952D02*
X148904760Y-131710952D01*
X148904760Y-131710952D02*
X148809522Y-131758571D01*
X165261904Y-111637619D02*
X165261904Y-110637619D01*
X165261904Y-110637619D02*
X165023809Y-110637619D01*
X165023809Y-110637619D02*
X164880952Y-110685238D01*
X164880952Y-110685238D02*
X164785714Y-110780476D01*
X164785714Y-110780476D02*
X164738095Y-110875714D01*
X164738095Y-110875714D02*
X164690476Y-111066190D01*
X164690476Y-111066190D02*
X164690476Y-111209047D01*
X164690476Y-111209047D02*
X164738095Y-111399523D01*
X164738095Y-111399523D02*
X164785714Y-111494761D01*
X164785714Y-111494761D02*
X164880952Y-111590000D01*
X164880952Y-111590000D02*
X165023809Y-111637619D01*
X165023809Y-111637619D02*
X165261904Y-111637619D01*
X163880952Y-111590000D02*
X163976190Y-111637619D01*
X163976190Y-111637619D02*
X164166666Y-111637619D01*
X164166666Y-111637619D02*
X164261904Y-111590000D01*
X164261904Y-111590000D02*
X164309523Y-111494761D01*
X164309523Y-111494761D02*
X164309523Y-111113809D01*
X164309523Y-111113809D02*
X164261904Y-111018571D01*
X164261904Y-111018571D02*
X164166666Y-110970952D01*
X164166666Y-110970952D02*
X163976190Y-110970952D01*
X163976190Y-110970952D02*
X163880952Y-111018571D01*
X163880952Y-111018571D02*
X163833333Y-111113809D01*
X163833333Y-111113809D02*
X163833333Y-111209047D01*
X163833333Y-111209047D02*
X164309523Y-111304285D01*
X163452380Y-111590000D02*
X163357142Y-111637619D01*
X163357142Y-111637619D02*
X163166666Y-111637619D01*
X163166666Y-111637619D02*
X163071428Y-111590000D01*
X163071428Y-111590000D02*
X163023809Y-111494761D01*
X163023809Y-111494761D02*
X163023809Y-111447142D01*
X163023809Y-111447142D02*
X163071428Y-111351904D01*
X163071428Y-111351904D02*
X163166666Y-111304285D01*
X163166666Y-111304285D02*
X163309523Y-111304285D01*
X163309523Y-111304285D02*
X163404761Y-111256666D01*
X163404761Y-111256666D02*
X163452380Y-111161428D01*
X163452380Y-111161428D02*
X163452380Y-111113809D01*
X163452380Y-111113809D02*
X163404761Y-111018571D01*
X163404761Y-111018571D02*
X163309523Y-110970952D01*
X163309523Y-110970952D02*
X163166666Y-110970952D01*
X163166666Y-110970952D02*
X163071428Y-111018571D01*
X162595237Y-111637619D02*
X162595237Y-110970952D01*
X162595237Y-110637619D02*
X162642856Y-110685238D01*
X162642856Y-110685238D02*
X162595237Y-110732857D01*
X162595237Y-110732857D02*
X162547618Y-110685238D01*
X162547618Y-110685238D02*
X162595237Y-110637619D01*
X162595237Y-110637619D02*
X162595237Y-110732857D01*
X161690476Y-110970952D02*
X161690476Y-111780476D01*
X161690476Y-111780476D02*
X161738095Y-111875714D01*
X161738095Y-111875714D02*
X161785714Y-111923333D01*
X161785714Y-111923333D02*
X161880952Y-111970952D01*
X161880952Y-111970952D02*
X162023809Y-111970952D01*
X162023809Y-111970952D02*
X162119047Y-111923333D01*
X161690476Y-111590000D02*
X161785714Y-111637619D01*
X161785714Y-111637619D02*
X161976190Y-111637619D01*
X161976190Y-111637619D02*
X162071428Y-111590000D01*
X162071428Y-111590000D02*
X162119047Y-111542380D01*
X162119047Y-111542380D02*
X162166666Y-111447142D01*
X162166666Y-111447142D02*
X162166666Y-111161428D01*
X162166666Y-111161428D02*
X162119047Y-111066190D01*
X162119047Y-111066190D02*
X162071428Y-111018571D01*
X162071428Y-111018571D02*
X161976190Y-110970952D01*
X161976190Y-110970952D02*
X161785714Y-110970952D01*
X161785714Y-110970952D02*
X161690476Y-111018571D01*
X161214285Y-110970952D02*
X161214285Y-111637619D01*
X161214285Y-111066190D02*
X161166666Y-111018571D01*
X161166666Y-111018571D02*
X161071428Y-110970952D01*
X161071428Y-110970952D02*
X160928571Y-110970952D01*
X160928571Y-110970952D02*
X160833333Y-111018571D01*
X160833333Y-111018571D02*
X160785714Y-111113809D01*
X160785714Y-111113809D02*
X160785714Y-111637619D01*
X159928571Y-111590000D02*
X160023809Y-111637619D01*
X160023809Y-111637619D02*
X160214285Y-111637619D01*
X160214285Y-111637619D02*
X160309523Y-111590000D01*
X160309523Y-111590000D02*
X160357142Y-111494761D01*
X160357142Y-111494761D02*
X160357142Y-111113809D01*
X160357142Y-111113809D02*
X160309523Y-111018571D01*
X160309523Y-111018571D02*
X160214285Y-110970952D01*
X160214285Y-110970952D02*
X160023809Y-110970952D01*
X160023809Y-110970952D02*
X159928571Y-111018571D01*
X159928571Y-111018571D02*
X159880952Y-111113809D01*
X159880952Y-111113809D02*
X159880952Y-111209047D01*
X159880952Y-111209047D02*
X160357142Y-111304285D01*
X159023809Y-111637619D02*
X159023809Y-110637619D01*
X159023809Y-111590000D02*
X159119047Y-111637619D01*
X159119047Y-111637619D02*
X159309523Y-111637619D01*
X159309523Y-111637619D02*
X159404761Y-111590000D01*
X159404761Y-111590000D02*
X159452380Y-111542380D01*
X159452380Y-111542380D02*
X159499999Y-111447142D01*
X159499999Y-111447142D02*
X159499999Y-111161428D01*
X159499999Y-111161428D02*
X159452380Y-111066190D01*
X159452380Y-111066190D02*
X159404761Y-111018571D01*
X159404761Y-111018571D02*
X159309523Y-110970952D01*
X159309523Y-110970952D02*
X159119047Y-110970952D01*
X159119047Y-110970952D02*
X159023809Y-111018571D01*
X157880951Y-110970952D02*
X157690475Y-111637619D01*
X157690475Y-111637619D02*
X157499999Y-111161428D01*
X157499999Y-111161428D02*
X157309523Y-111637619D01*
X157309523Y-111637619D02*
X157119047Y-110970952D01*
X156738094Y-111637619D02*
X156738094Y-110970952D01*
X156738094Y-110637619D02*
X156785713Y-110685238D01*
X156785713Y-110685238D02*
X156738094Y-110732857D01*
X156738094Y-110732857D02*
X156690475Y-110685238D01*
X156690475Y-110685238D02*
X156738094Y-110637619D01*
X156738094Y-110637619D02*
X156738094Y-110732857D01*
X156404761Y-110970952D02*
X156023809Y-110970952D01*
X156261904Y-110637619D02*
X156261904Y-111494761D01*
X156261904Y-111494761D02*
X156214285Y-111590000D01*
X156214285Y-111590000D02*
X156119047Y-111637619D01*
X156119047Y-111637619D02*
X156023809Y-111637619D01*
X155690475Y-111637619D02*
X155690475Y-110637619D01*
X155261904Y-111637619D02*
X155261904Y-111113809D01*
X155261904Y-111113809D02*
X155309523Y-111018571D01*
X155309523Y-111018571D02*
X155404761Y-110970952D01*
X155404761Y-110970952D02*
X155547618Y-110970952D01*
X155547618Y-110970952D02*
X155642856Y-111018571D01*
X155642856Y-111018571D02*
X155690475Y-111066190D01*
X154023808Y-111637619D02*
X154023808Y-110637619D01*
X153452380Y-111637619D02*
X153880951Y-111066190D01*
X153452380Y-110637619D02*
X154023808Y-111209047D01*
X153023808Y-111637619D02*
X153023808Y-110970952D01*
X153023808Y-110637619D02*
X153071427Y-110685238D01*
X153071427Y-110685238D02*
X153023808Y-110732857D01*
X153023808Y-110732857D02*
X152976189Y-110685238D01*
X152976189Y-110685238D02*
X153023808Y-110637619D01*
X153023808Y-110637619D02*
X153023808Y-110732857D01*
X151976190Y-111542380D02*
X152023809Y-111590000D01*
X152023809Y-111590000D02*
X152166666Y-111637619D01*
X152166666Y-111637619D02*
X152261904Y-111637619D01*
X152261904Y-111637619D02*
X152404761Y-111590000D01*
X152404761Y-111590000D02*
X152499999Y-111494761D01*
X152499999Y-111494761D02*
X152547618Y-111399523D01*
X152547618Y-111399523D02*
X152595237Y-111209047D01*
X152595237Y-111209047D02*
X152595237Y-111066190D01*
X152595237Y-111066190D02*
X152547618Y-110875714D01*
X152547618Y-110875714D02*
X152499999Y-110780476D01*
X152499999Y-110780476D02*
X152404761Y-110685238D01*
X152404761Y-110685238D02*
X152261904Y-110637619D01*
X152261904Y-110637619D02*
X152166666Y-110637619D01*
X152166666Y-110637619D02*
X152023809Y-110685238D01*
X152023809Y-110685238D02*
X151976190Y-110732857D01*
X151595237Y-111351904D02*
X151119047Y-111351904D01*
X151690475Y-111637619D02*
X151357142Y-110637619D01*
X151357142Y-110637619D02*
X151023809Y-111637619D01*
X150690475Y-111637619D02*
X150690475Y-110637619D01*
X150690475Y-110637619D02*
X150452380Y-110637619D01*
X150452380Y-110637619D02*
X150309523Y-110685238D01*
X150309523Y-110685238D02*
X150214285Y-110780476D01*
X150214285Y-110780476D02*
X150166666Y-110875714D01*
X150166666Y-110875714D02*
X150119047Y-111066190D01*
X150119047Y-111066190D02*
X150119047Y-111209047D01*
X150119047Y-111209047D02*
X150166666Y-111399523D01*
X150166666Y-111399523D02*
X150214285Y-111494761D01*
X150214285Y-111494761D02*
X150309523Y-111590000D01*
X150309523Y-111590000D02*
X150452380Y-111637619D01*
X150452380Y-111637619D02*
X150690475Y-111637619D01*
X165261904Y-113257619D02*
X165261904Y-112257619D01*
X165261904Y-112638571D02*
X165166666Y-112590952D01*
X165166666Y-112590952D02*
X164976190Y-112590952D01*
X164976190Y-112590952D02*
X164880952Y-112638571D01*
X164880952Y-112638571D02*
X164833333Y-112686190D01*
X164833333Y-112686190D02*
X164785714Y-112781428D01*
X164785714Y-112781428D02*
X164785714Y-113067142D01*
X164785714Y-113067142D02*
X164833333Y-113162380D01*
X164833333Y-113162380D02*
X164880952Y-113210000D01*
X164880952Y-113210000D02*
X164976190Y-113257619D01*
X164976190Y-113257619D02*
X165166666Y-113257619D01*
X165166666Y-113257619D02*
X165261904Y-113210000D01*
X164452380Y-112590952D02*
X164214285Y-113257619D01*
X163976190Y-112590952D02*
X164214285Y-113257619D01*
X164214285Y-113257619D02*
X164309523Y-113495714D01*
X164309523Y-113495714D02*
X164357142Y-113543333D01*
X164357142Y-113543333D02*
X164452380Y-113590952D01*
X162976189Y-112590952D02*
X162595237Y-112590952D01*
X162833332Y-112257619D02*
X162833332Y-113114761D01*
X162833332Y-113114761D02*
X162785713Y-113210000D01*
X162785713Y-113210000D02*
X162690475Y-113257619D01*
X162690475Y-113257619D02*
X162595237Y-113257619D01*
X162261903Y-113257619D02*
X162261903Y-112257619D01*
X161833332Y-113257619D02*
X161833332Y-112733809D01*
X161833332Y-112733809D02*
X161880951Y-112638571D01*
X161880951Y-112638571D02*
X161976189Y-112590952D01*
X161976189Y-112590952D02*
X162119046Y-112590952D01*
X162119046Y-112590952D02*
X162214284Y-112638571D01*
X162214284Y-112638571D02*
X162261903Y-112686190D01*
X160976189Y-113210000D02*
X161071427Y-113257619D01*
X161071427Y-113257619D02*
X161261903Y-113257619D01*
X161261903Y-113257619D02*
X161357141Y-113210000D01*
X161357141Y-113210000D02*
X161404760Y-113114761D01*
X161404760Y-113114761D02*
X161404760Y-112733809D01*
X161404760Y-112733809D02*
X161357141Y-112638571D01*
X161357141Y-112638571D02*
X161261903Y-112590952D01*
X161261903Y-112590952D02*
X161071427Y-112590952D01*
X161071427Y-112590952D02*
X160976189Y-112638571D01*
X160976189Y-112638571D02*
X160928570Y-112733809D01*
X160928570Y-112733809D02*
X160928570Y-112829047D01*
X160928570Y-112829047D02*
X161404760Y-112924285D01*
X159738093Y-112590952D02*
X159738093Y-113257619D01*
X159738093Y-112686190D02*
X159690474Y-112638571D01*
X159690474Y-112638571D02*
X159595236Y-112590952D01*
X159595236Y-112590952D02*
X159452379Y-112590952D01*
X159452379Y-112590952D02*
X159357141Y-112638571D01*
X159357141Y-112638571D02*
X159309522Y-112733809D01*
X159309522Y-112733809D02*
X159309522Y-113257619D01*
X158452379Y-113210000D02*
X158547617Y-113257619D01*
X158547617Y-113257619D02*
X158738093Y-113257619D01*
X158738093Y-113257619D02*
X158833331Y-113210000D01*
X158833331Y-113210000D02*
X158880950Y-113114761D01*
X158880950Y-113114761D02*
X158880950Y-112733809D01*
X158880950Y-112733809D02*
X158833331Y-112638571D01*
X158833331Y-112638571D02*
X158738093Y-112590952D01*
X158738093Y-112590952D02*
X158547617Y-112590952D01*
X158547617Y-112590952D02*
X158452379Y-112638571D01*
X158452379Y-112638571D02*
X158404760Y-112733809D01*
X158404760Y-112733809D02*
X158404760Y-112829047D01*
X158404760Y-112829047D02*
X158880950Y-112924285D01*
X157976188Y-113257619D02*
X157976188Y-112590952D01*
X157976188Y-112781428D02*
X157928569Y-112686190D01*
X157928569Y-112686190D02*
X157880950Y-112638571D01*
X157880950Y-112638571D02*
X157785712Y-112590952D01*
X157785712Y-112590952D02*
X157690474Y-112590952D01*
X156928569Y-113257619D02*
X156928569Y-112257619D01*
X156928569Y-113210000D02*
X157023807Y-113257619D01*
X157023807Y-113257619D02*
X157214283Y-113257619D01*
X157214283Y-113257619D02*
X157309521Y-113210000D01*
X157309521Y-113210000D02*
X157357140Y-113162380D01*
X157357140Y-113162380D02*
X157404759Y-113067142D01*
X157404759Y-113067142D02*
X157404759Y-112781428D01*
X157404759Y-112781428D02*
X157357140Y-112686190D01*
X157357140Y-112686190D02*
X157309521Y-112638571D01*
X157309521Y-112638571D02*
X157214283Y-112590952D01*
X157214283Y-112590952D02*
X157023807Y-112590952D01*
X157023807Y-112590952D02*
X156928569Y-112638571D01*
X156499997Y-113210000D02*
X156404759Y-113257619D01*
X156404759Y-113257619D02*
X156214283Y-113257619D01*
X156214283Y-113257619D02*
X156119045Y-113210000D01*
X156119045Y-113210000D02*
X156071426Y-113114761D01*
X156071426Y-113114761D02*
X156071426Y-113067142D01*
X156071426Y-113067142D02*
X156119045Y-112971904D01*
X156119045Y-112971904D02*
X156214283Y-112924285D01*
X156214283Y-112924285D02*
X156357140Y-112924285D01*
X156357140Y-112924285D02*
X156452378Y-112876666D01*
X156452378Y-112876666D02*
X156499997Y-112781428D01*
X156499997Y-112781428D02*
X156499997Y-112733809D01*
X156499997Y-112733809D02*
X156452378Y-112638571D01*
X156452378Y-112638571D02*
X156357140Y-112590952D01*
X156357140Y-112590952D02*
X156214283Y-112590952D01*
X156214283Y-112590952D02*
X156119045Y-112638571D01*
X154452378Y-113257619D02*
X154452378Y-112733809D01*
X154452378Y-112733809D02*
X154499997Y-112638571D01*
X154499997Y-112638571D02*
X154595235Y-112590952D01*
X154595235Y-112590952D02*
X154785711Y-112590952D01*
X154785711Y-112590952D02*
X154880949Y-112638571D01*
X154452378Y-113210000D02*
X154547616Y-113257619D01*
X154547616Y-113257619D02*
X154785711Y-113257619D01*
X154785711Y-113257619D02*
X154880949Y-113210000D01*
X154880949Y-113210000D02*
X154928568Y-113114761D01*
X154928568Y-113114761D02*
X154928568Y-113019523D01*
X154928568Y-113019523D02*
X154880949Y-112924285D01*
X154880949Y-112924285D02*
X154785711Y-112876666D01*
X154785711Y-112876666D02*
X154547616Y-112876666D01*
X154547616Y-112876666D02*
X154452378Y-112829047D01*
X154119044Y-112590952D02*
X153738092Y-112590952D01*
X153976187Y-112257619D02*
X153976187Y-113114761D01*
X153976187Y-113114761D02*
X153928568Y-113210000D01*
X153928568Y-113210000D02*
X153833330Y-113257619D01*
X153833330Y-113257619D02*
X153738092Y-113257619D01*
X165309523Y-114830000D02*
X165166666Y-114877619D01*
X165166666Y-114877619D02*
X164928571Y-114877619D01*
X164928571Y-114877619D02*
X164833333Y-114830000D01*
X164833333Y-114830000D02*
X164785714Y-114782380D01*
X164785714Y-114782380D02*
X164738095Y-114687142D01*
X164738095Y-114687142D02*
X164738095Y-114591904D01*
X164738095Y-114591904D02*
X164785714Y-114496666D01*
X164785714Y-114496666D02*
X164833333Y-114449047D01*
X164833333Y-114449047D02*
X164928571Y-114401428D01*
X164928571Y-114401428D02*
X165119047Y-114353809D01*
X165119047Y-114353809D02*
X165214285Y-114306190D01*
X165214285Y-114306190D02*
X165261904Y-114258571D01*
X165261904Y-114258571D02*
X165309523Y-114163333D01*
X165309523Y-114163333D02*
X165309523Y-114068095D01*
X165309523Y-114068095D02*
X165261904Y-113972857D01*
X165261904Y-113972857D02*
X165214285Y-113925238D01*
X165214285Y-113925238D02*
X165119047Y-113877619D01*
X165119047Y-113877619D02*
X164880952Y-113877619D01*
X164880952Y-113877619D02*
X164738095Y-113925238D01*
X164309523Y-114210952D02*
X164309523Y-115210952D01*
X164309523Y-114258571D02*
X164214285Y-114210952D01*
X164214285Y-114210952D02*
X164023809Y-114210952D01*
X164023809Y-114210952D02*
X163928571Y-114258571D01*
X163928571Y-114258571D02*
X163880952Y-114306190D01*
X163880952Y-114306190D02*
X163833333Y-114401428D01*
X163833333Y-114401428D02*
X163833333Y-114687142D01*
X163833333Y-114687142D02*
X163880952Y-114782380D01*
X163880952Y-114782380D02*
X163928571Y-114830000D01*
X163928571Y-114830000D02*
X164023809Y-114877619D01*
X164023809Y-114877619D02*
X164214285Y-114877619D01*
X164214285Y-114877619D02*
X164309523Y-114830000D01*
X162976190Y-114877619D02*
X162976190Y-114353809D01*
X162976190Y-114353809D02*
X163023809Y-114258571D01*
X163023809Y-114258571D02*
X163119047Y-114210952D01*
X163119047Y-114210952D02*
X163309523Y-114210952D01*
X163309523Y-114210952D02*
X163404761Y-114258571D01*
X162976190Y-114830000D02*
X163071428Y-114877619D01*
X163071428Y-114877619D02*
X163309523Y-114877619D01*
X163309523Y-114877619D02*
X163404761Y-114830000D01*
X163404761Y-114830000D02*
X163452380Y-114734761D01*
X163452380Y-114734761D02*
X163452380Y-114639523D01*
X163452380Y-114639523D02*
X163404761Y-114544285D01*
X163404761Y-114544285D02*
X163309523Y-114496666D01*
X163309523Y-114496666D02*
X163071428Y-114496666D01*
X163071428Y-114496666D02*
X162976190Y-114449047D01*
X162499999Y-114877619D02*
X162499999Y-114210952D01*
X162499999Y-114401428D02*
X162452380Y-114306190D01*
X162452380Y-114306190D02*
X162404761Y-114258571D01*
X162404761Y-114258571D02*
X162309523Y-114210952D01*
X162309523Y-114210952D02*
X162214285Y-114210952D01*
X161880951Y-114877619D02*
X161880951Y-113877619D01*
X161785713Y-114496666D02*
X161499999Y-114877619D01*
X161499999Y-114210952D02*
X161880951Y-114591904D01*
X160309522Y-114877619D02*
X160309522Y-113877619D01*
X160309522Y-113877619D02*
X159976189Y-114591904D01*
X159976189Y-114591904D02*
X159642856Y-113877619D01*
X159642856Y-113877619D02*
X159642856Y-114877619D01*
X158738094Y-114877619D02*
X158738094Y-114353809D01*
X158738094Y-114353809D02*
X158785713Y-114258571D01*
X158785713Y-114258571D02*
X158880951Y-114210952D01*
X158880951Y-114210952D02*
X159071427Y-114210952D01*
X159071427Y-114210952D02*
X159166665Y-114258571D01*
X158738094Y-114830000D02*
X158833332Y-114877619D01*
X158833332Y-114877619D02*
X159071427Y-114877619D01*
X159071427Y-114877619D02*
X159166665Y-114830000D01*
X159166665Y-114830000D02*
X159214284Y-114734761D01*
X159214284Y-114734761D02*
X159214284Y-114639523D01*
X159214284Y-114639523D02*
X159166665Y-114544285D01*
X159166665Y-114544285D02*
X159071427Y-114496666D01*
X159071427Y-114496666D02*
X158833332Y-114496666D01*
X158833332Y-114496666D02*
X158738094Y-114449047D01*
X158261903Y-114877619D02*
X158261903Y-113877619D01*
X158166665Y-114496666D02*
X157880951Y-114877619D01*
X157880951Y-114210952D02*
X158261903Y-114591904D01*
X157071427Y-114830000D02*
X157166665Y-114877619D01*
X157166665Y-114877619D02*
X157357141Y-114877619D01*
X157357141Y-114877619D02*
X157452379Y-114830000D01*
X157452379Y-114830000D02*
X157499998Y-114734761D01*
X157499998Y-114734761D02*
X157499998Y-114353809D01*
X157499998Y-114353809D02*
X157452379Y-114258571D01*
X157452379Y-114258571D02*
X157357141Y-114210952D01*
X157357141Y-114210952D02*
X157166665Y-114210952D01*
X157166665Y-114210952D02*
X157071427Y-114258571D01*
X157071427Y-114258571D02*
X157023808Y-114353809D01*
X157023808Y-114353809D02*
X157023808Y-114449047D01*
X157023808Y-114449047D02*
X157499998Y-114544285D01*
X156595236Y-114877619D02*
X156595236Y-114210952D01*
X156595236Y-114401428D02*
X156547617Y-114306190D01*
X156547617Y-114306190D02*
X156499998Y-114258571D01*
X156499998Y-114258571D02*
X156404760Y-114210952D01*
X156404760Y-114210952D02*
X156309522Y-114210952D01*
X156023807Y-114830000D02*
X155928569Y-114877619D01*
X155928569Y-114877619D02*
X155738093Y-114877619D01*
X155738093Y-114877619D02*
X155642855Y-114830000D01*
X155642855Y-114830000D02*
X155595236Y-114734761D01*
X155595236Y-114734761D02*
X155595236Y-114687142D01*
X155595236Y-114687142D02*
X155642855Y-114591904D01*
X155642855Y-114591904D02*
X155738093Y-114544285D01*
X155738093Y-114544285D02*
X155880950Y-114544285D01*
X155880950Y-114544285D02*
X155976188Y-114496666D01*
X155976188Y-114496666D02*
X156023807Y-114401428D01*
X156023807Y-114401428D02*
X156023807Y-114353809D01*
X156023807Y-114353809D02*
X155976188Y-114258571D01*
X155976188Y-114258571D02*
X155880950Y-114210952D01*
X155880950Y-114210952D02*
X155738093Y-114210952D01*
X155738093Y-114210952D02*
X155642855Y-114258571D01*
X155166664Y-114210952D02*
X155166664Y-115210952D01*
X155166664Y-114258571D02*
X155071426Y-114210952D01*
X155071426Y-114210952D02*
X154880950Y-114210952D01*
X154880950Y-114210952D02*
X154785712Y-114258571D01*
X154785712Y-114258571D02*
X154738093Y-114306190D01*
X154738093Y-114306190D02*
X154690474Y-114401428D01*
X154690474Y-114401428D02*
X154690474Y-114687142D01*
X154690474Y-114687142D02*
X154738093Y-114782380D01*
X154738093Y-114782380D02*
X154785712Y-114830000D01*
X154785712Y-114830000D02*
X154880950Y-114877619D01*
X154880950Y-114877619D02*
X155071426Y-114877619D01*
X155071426Y-114877619D02*
X155166664Y-114830000D01*
X153833331Y-114877619D02*
X153833331Y-114353809D01*
X153833331Y-114353809D02*
X153880950Y-114258571D01*
X153880950Y-114258571D02*
X153976188Y-114210952D01*
X153976188Y-114210952D02*
X154166664Y-114210952D01*
X154166664Y-114210952D02*
X154261902Y-114258571D01*
X153833331Y-114830000D02*
X153928569Y-114877619D01*
X153928569Y-114877619D02*
X154166664Y-114877619D01*
X154166664Y-114877619D02*
X154261902Y-114830000D01*
X154261902Y-114830000D02*
X154309521Y-114734761D01*
X154309521Y-114734761D02*
X154309521Y-114639523D01*
X154309521Y-114639523D02*
X154261902Y-114544285D01*
X154261902Y-114544285D02*
X154166664Y-114496666D01*
X154166664Y-114496666D02*
X153928569Y-114496666D01*
X153928569Y-114496666D02*
X153833331Y-114449047D01*
X152928569Y-114830000D02*
X153023807Y-114877619D01*
X153023807Y-114877619D02*
X153214283Y-114877619D01*
X153214283Y-114877619D02*
X153309521Y-114830000D01*
X153309521Y-114830000D02*
X153357140Y-114782380D01*
X153357140Y-114782380D02*
X153404759Y-114687142D01*
X153404759Y-114687142D02*
X153404759Y-114401428D01*
X153404759Y-114401428D02*
X153357140Y-114306190D01*
X153357140Y-114306190D02*
X153309521Y-114258571D01*
X153309521Y-114258571D02*
X153214283Y-114210952D01*
X153214283Y-114210952D02*
X153023807Y-114210952D01*
X153023807Y-114210952D02*
X152928569Y-114258571D01*
X152119045Y-114830000D02*
X152214283Y-114877619D01*
X152214283Y-114877619D02*
X152404759Y-114877619D01*
X152404759Y-114877619D02*
X152499997Y-114830000D01*
X152499997Y-114830000D02*
X152547616Y-114734761D01*
X152547616Y-114734761D02*
X152547616Y-114353809D01*
X152547616Y-114353809D02*
X152499997Y-114258571D01*
X152499997Y-114258571D02*
X152404759Y-114210952D01*
X152404759Y-114210952D02*
X152214283Y-114210952D01*
X152214283Y-114210952D02*
X152119045Y-114258571D01*
X152119045Y-114258571D02*
X152071426Y-114353809D01*
X152071426Y-114353809D02*
X152071426Y-114449047D01*
X152071426Y-114449047D02*
X152547616Y-114544285D01*
X151642854Y-114782380D02*
X151595235Y-114830000D01*
X151595235Y-114830000D02*
X151642854Y-114877619D01*
X151642854Y-114877619D02*
X151690473Y-114830000D01*
X151690473Y-114830000D02*
X151642854Y-114782380D01*
X151642854Y-114782380D02*
X151642854Y-114877619D01*
X155738095Y-81657619D02*
X156309523Y-81657619D01*
X156023809Y-81657619D02*
X156023809Y-80657619D01*
X156023809Y-80657619D02*
X156119047Y-80800476D01*
X156119047Y-80800476D02*
X156214285Y-80895714D01*
X156214285Y-80895714D02*
X156309523Y-80943333D01*
X155404761Y-82038571D02*
X155357142Y-81990952D01*
X155357142Y-81990952D02*
X155261904Y-81848095D01*
X155261904Y-81848095D02*
X155214285Y-81752857D01*
X155214285Y-81752857D02*
X155166666Y-81610000D01*
X155166666Y-81610000D02*
X155119047Y-81371904D01*
X155119047Y-81371904D02*
X155119047Y-81181428D01*
X155119047Y-81181428D02*
X155166666Y-80943333D01*
X155166666Y-80943333D02*
X155214285Y-80800476D01*
X155214285Y-80800476D02*
X155261904Y-80705238D01*
X155261904Y-80705238D02*
X155357142Y-80562380D01*
X155357142Y-80562380D02*
X155404761Y-80514761D01*
X153928570Y-81610000D02*
X153785713Y-81657619D01*
X153785713Y-81657619D02*
X153547618Y-81657619D01*
X153547618Y-81657619D02*
X153452380Y-81610000D01*
X153452380Y-81610000D02*
X153404761Y-81562380D01*
X153404761Y-81562380D02*
X153357142Y-81467142D01*
X153357142Y-81467142D02*
X153357142Y-81371904D01*
X153357142Y-81371904D02*
X153404761Y-81276666D01*
X153404761Y-81276666D02*
X153452380Y-81229047D01*
X153452380Y-81229047D02*
X153547618Y-81181428D01*
X153547618Y-81181428D02*
X153738094Y-81133809D01*
X153738094Y-81133809D02*
X153833332Y-81086190D01*
X153833332Y-81086190D02*
X153880951Y-81038571D01*
X153880951Y-81038571D02*
X153928570Y-80943333D01*
X153928570Y-80943333D02*
X153928570Y-80848095D01*
X153928570Y-80848095D02*
X153880951Y-80752857D01*
X153880951Y-80752857D02*
X153833332Y-80705238D01*
X153833332Y-80705238D02*
X153738094Y-80657619D01*
X153738094Y-80657619D02*
X153499999Y-80657619D01*
X153499999Y-80657619D02*
X153357142Y-80705238D01*
X152785713Y-81657619D02*
X152880951Y-81610000D01*
X152880951Y-81610000D02*
X152928570Y-81562380D01*
X152928570Y-81562380D02*
X152976189Y-81467142D01*
X152976189Y-81467142D02*
X152976189Y-81181428D01*
X152976189Y-81181428D02*
X152928570Y-81086190D01*
X152928570Y-81086190D02*
X152880951Y-81038571D01*
X152880951Y-81038571D02*
X152785713Y-80990952D01*
X152785713Y-80990952D02*
X152642856Y-80990952D01*
X152642856Y-80990952D02*
X152547618Y-81038571D01*
X152547618Y-81038571D02*
X152499999Y-81086190D01*
X152499999Y-81086190D02*
X152452380Y-81181428D01*
X152452380Y-81181428D02*
X152452380Y-81467142D01*
X152452380Y-81467142D02*
X152499999Y-81562380D01*
X152499999Y-81562380D02*
X152547618Y-81610000D01*
X152547618Y-81610000D02*
X152642856Y-81657619D01*
X152642856Y-81657619D02*
X152785713Y-81657619D01*
X151880951Y-81657619D02*
X151976189Y-81610000D01*
X151976189Y-81610000D02*
X152023808Y-81514761D01*
X152023808Y-81514761D02*
X152023808Y-80657619D01*
X151071427Y-81657619D02*
X151071427Y-80657619D01*
X151071427Y-81610000D02*
X151166665Y-81657619D01*
X151166665Y-81657619D02*
X151357141Y-81657619D01*
X151357141Y-81657619D02*
X151452379Y-81610000D01*
X151452379Y-81610000D02*
X151499998Y-81562380D01*
X151499998Y-81562380D02*
X151547617Y-81467142D01*
X151547617Y-81467142D02*
X151547617Y-81181428D01*
X151547617Y-81181428D02*
X151499998Y-81086190D01*
X151499998Y-81086190D02*
X151452379Y-81038571D01*
X151452379Y-81038571D02*
X151357141Y-80990952D01*
X151357141Y-80990952D02*
X151166665Y-80990952D01*
X151166665Y-80990952D02*
X151071427Y-81038571D01*
X150214284Y-81610000D02*
X150309522Y-81657619D01*
X150309522Y-81657619D02*
X150499998Y-81657619D01*
X150499998Y-81657619D02*
X150595236Y-81610000D01*
X150595236Y-81610000D02*
X150642855Y-81514761D01*
X150642855Y-81514761D02*
X150642855Y-81133809D01*
X150642855Y-81133809D02*
X150595236Y-81038571D01*
X150595236Y-81038571D02*
X150499998Y-80990952D01*
X150499998Y-80990952D02*
X150309522Y-80990952D01*
X150309522Y-80990952D02*
X150214284Y-81038571D01*
X150214284Y-81038571D02*
X150166665Y-81133809D01*
X150166665Y-81133809D02*
X150166665Y-81229047D01*
X150166665Y-81229047D02*
X150642855Y-81324285D01*
X149738093Y-81657619D02*
X149738093Y-80990952D01*
X149738093Y-81181428D02*
X149690474Y-81086190D01*
X149690474Y-81086190D02*
X149642855Y-81038571D01*
X149642855Y-81038571D02*
X149547617Y-80990952D01*
X149547617Y-80990952D02*
X149452379Y-80990952D01*
X148023807Y-81133809D02*
X147880950Y-81181428D01*
X147880950Y-81181428D02*
X147833331Y-81229047D01*
X147833331Y-81229047D02*
X147785712Y-81324285D01*
X147785712Y-81324285D02*
X147785712Y-81467142D01*
X147785712Y-81467142D02*
X147833331Y-81562380D01*
X147833331Y-81562380D02*
X147880950Y-81610000D01*
X147880950Y-81610000D02*
X147976188Y-81657619D01*
X147976188Y-81657619D02*
X148357140Y-81657619D01*
X148357140Y-81657619D02*
X148357140Y-80657619D01*
X148357140Y-80657619D02*
X148023807Y-80657619D01*
X148023807Y-80657619D02*
X147928569Y-80705238D01*
X147928569Y-80705238D02*
X147880950Y-80752857D01*
X147880950Y-80752857D02*
X147833331Y-80848095D01*
X147833331Y-80848095D02*
X147833331Y-80943333D01*
X147833331Y-80943333D02*
X147880950Y-81038571D01*
X147880950Y-81038571D02*
X147928569Y-81086190D01*
X147928569Y-81086190D02*
X148023807Y-81133809D01*
X148023807Y-81133809D02*
X148357140Y-81133809D01*
X146928569Y-81657619D02*
X146928569Y-81133809D01*
X146928569Y-81133809D02*
X146976188Y-81038571D01*
X146976188Y-81038571D02*
X147071426Y-80990952D01*
X147071426Y-80990952D02*
X147261902Y-80990952D01*
X147261902Y-80990952D02*
X147357140Y-81038571D01*
X146928569Y-81610000D02*
X147023807Y-81657619D01*
X147023807Y-81657619D02*
X147261902Y-81657619D01*
X147261902Y-81657619D02*
X147357140Y-81610000D01*
X147357140Y-81610000D02*
X147404759Y-81514761D01*
X147404759Y-81514761D02*
X147404759Y-81419523D01*
X147404759Y-81419523D02*
X147357140Y-81324285D01*
X147357140Y-81324285D02*
X147261902Y-81276666D01*
X147261902Y-81276666D02*
X147023807Y-81276666D01*
X147023807Y-81276666D02*
X146928569Y-81229047D01*
X146595235Y-80990952D02*
X146214283Y-80990952D01*
X146452378Y-80657619D02*
X146452378Y-81514761D01*
X146452378Y-81514761D02*
X146404759Y-81610000D01*
X146404759Y-81610000D02*
X146309521Y-81657619D01*
X146309521Y-81657619D02*
X146214283Y-81657619D01*
X146023806Y-80990952D02*
X145642854Y-80990952D01*
X145880949Y-80657619D02*
X145880949Y-81514761D01*
X145880949Y-81514761D02*
X145833330Y-81610000D01*
X145833330Y-81610000D02*
X145738092Y-81657619D01*
X145738092Y-81657619D02*
X145642854Y-81657619D01*
X144928568Y-81610000D02*
X145023806Y-81657619D01*
X145023806Y-81657619D02*
X145214282Y-81657619D01*
X145214282Y-81657619D02*
X145309520Y-81610000D01*
X145309520Y-81610000D02*
X145357139Y-81514761D01*
X145357139Y-81514761D02*
X145357139Y-81133809D01*
X145357139Y-81133809D02*
X145309520Y-81038571D01*
X145309520Y-81038571D02*
X145214282Y-80990952D01*
X145214282Y-80990952D02*
X145023806Y-80990952D01*
X145023806Y-80990952D02*
X144928568Y-81038571D01*
X144928568Y-81038571D02*
X144880949Y-81133809D01*
X144880949Y-81133809D02*
X144880949Y-81229047D01*
X144880949Y-81229047D02*
X145357139Y-81324285D01*
X144452377Y-81657619D02*
X144452377Y-80990952D01*
X144452377Y-81181428D02*
X144404758Y-81086190D01*
X144404758Y-81086190D02*
X144357139Y-81038571D01*
X144357139Y-81038571D02*
X144261901Y-80990952D01*
X144261901Y-80990952D02*
X144166663Y-80990952D01*
X143928567Y-80990952D02*
X143690472Y-81657619D01*
X143452377Y-80990952D02*
X143690472Y-81657619D01*
X143690472Y-81657619D02*
X143785710Y-81895714D01*
X143785710Y-81895714D02*
X143833329Y-81943333D01*
X143833329Y-81943333D02*
X143928567Y-81990952D01*
X141738091Y-81562380D02*
X141785710Y-81610000D01*
X141785710Y-81610000D02*
X141928567Y-81657619D01*
X141928567Y-81657619D02*
X142023805Y-81657619D01*
X142023805Y-81657619D02*
X142166662Y-81610000D01*
X142166662Y-81610000D02*
X142261900Y-81514761D01*
X142261900Y-81514761D02*
X142309519Y-81419523D01*
X142309519Y-81419523D02*
X142357138Y-81229047D01*
X142357138Y-81229047D02*
X142357138Y-81086190D01*
X142357138Y-81086190D02*
X142309519Y-80895714D01*
X142309519Y-80895714D02*
X142261900Y-80800476D01*
X142261900Y-80800476D02*
X142166662Y-80705238D01*
X142166662Y-80705238D02*
X142023805Y-80657619D01*
X142023805Y-80657619D02*
X141928567Y-80657619D01*
X141928567Y-80657619D02*
X141785710Y-80705238D01*
X141785710Y-80705238D02*
X141738091Y-80752857D01*
X141166662Y-81657619D02*
X141261900Y-81610000D01*
X141261900Y-81610000D02*
X141309519Y-81514761D01*
X141309519Y-81514761D02*
X141309519Y-80657619D01*
X140785709Y-81657619D02*
X140785709Y-80990952D01*
X140785709Y-80657619D02*
X140833328Y-80705238D01*
X140833328Y-80705238D02*
X140785709Y-80752857D01*
X140785709Y-80752857D02*
X140738090Y-80705238D01*
X140738090Y-80705238D02*
X140785709Y-80657619D01*
X140785709Y-80657619D02*
X140785709Y-80752857D01*
X140309519Y-80990952D02*
X140309519Y-81990952D01*
X140309519Y-81038571D02*
X140214281Y-80990952D01*
X140214281Y-80990952D02*
X140023805Y-80990952D01*
X140023805Y-80990952D02*
X139928567Y-81038571D01*
X139928567Y-81038571D02*
X139880948Y-81086190D01*
X139880948Y-81086190D02*
X139833329Y-81181428D01*
X139833329Y-81181428D02*
X139833329Y-81467142D01*
X139833329Y-81467142D02*
X139880948Y-81562380D01*
X139880948Y-81562380D02*
X139928567Y-81610000D01*
X139928567Y-81610000D02*
X140023805Y-81657619D01*
X140023805Y-81657619D02*
X140214281Y-81657619D01*
X140214281Y-81657619D02*
X140309519Y-81610000D01*
X156309523Y-82372857D02*
X156261904Y-82325238D01*
X156261904Y-82325238D02*
X156166666Y-82277619D01*
X156166666Y-82277619D02*
X155928571Y-82277619D01*
X155928571Y-82277619D02*
X155833333Y-82325238D01*
X155833333Y-82325238D02*
X155785714Y-82372857D01*
X155785714Y-82372857D02*
X155738095Y-82468095D01*
X155738095Y-82468095D02*
X155738095Y-82563333D01*
X155738095Y-82563333D02*
X155785714Y-82706190D01*
X155785714Y-82706190D02*
X156357142Y-83277619D01*
X156357142Y-83277619D02*
X155738095Y-83277619D01*
X155404761Y-83658571D02*
X155357142Y-83610952D01*
X155357142Y-83610952D02*
X155261904Y-83468095D01*
X155261904Y-83468095D02*
X155214285Y-83372857D01*
X155214285Y-83372857D02*
X155166666Y-83230000D01*
X155166666Y-83230000D02*
X155119047Y-82991904D01*
X155119047Y-82991904D02*
X155119047Y-82801428D01*
X155119047Y-82801428D02*
X155166666Y-82563333D01*
X155166666Y-82563333D02*
X155214285Y-82420476D01*
X155214285Y-82420476D02*
X155261904Y-82325238D01*
X155261904Y-82325238D02*
X155357142Y-82182380D01*
X155357142Y-82182380D02*
X155404761Y-82134761D01*
X153880951Y-83277619D02*
X153880951Y-82277619D01*
X153404761Y-82610952D02*
X153404761Y-83277619D01*
X153404761Y-82706190D02*
X153357142Y-82658571D01*
X153357142Y-82658571D02*
X153261904Y-82610952D01*
X153261904Y-82610952D02*
X153119047Y-82610952D01*
X153119047Y-82610952D02*
X153023809Y-82658571D01*
X153023809Y-82658571D02*
X152976190Y-82753809D01*
X152976190Y-82753809D02*
X152976190Y-83277619D01*
X152547618Y-83230000D02*
X152452380Y-83277619D01*
X152452380Y-83277619D02*
X152261904Y-83277619D01*
X152261904Y-83277619D02*
X152166666Y-83230000D01*
X152166666Y-83230000D02*
X152119047Y-83134761D01*
X152119047Y-83134761D02*
X152119047Y-83087142D01*
X152119047Y-83087142D02*
X152166666Y-82991904D01*
X152166666Y-82991904D02*
X152261904Y-82944285D01*
X152261904Y-82944285D02*
X152404761Y-82944285D01*
X152404761Y-82944285D02*
X152499999Y-82896666D01*
X152499999Y-82896666D02*
X152547618Y-82801428D01*
X152547618Y-82801428D02*
X152547618Y-82753809D01*
X152547618Y-82753809D02*
X152499999Y-82658571D01*
X152499999Y-82658571D02*
X152404761Y-82610952D01*
X152404761Y-82610952D02*
X152261904Y-82610952D01*
X152261904Y-82610952D02*
X152166666Y-82658571D01*
X151833332Y-82610952D02*
X151452380Y-82610952D01*
X151690475Y-82277619D02*
X151690475Y-83134761D01*
X151690475Y-83134761D02*
X151642856Y-83230000D01*
X151642856Y-83230000D02*
X151547618Y-83277619D01*
X151547618Y-83277619D02*
X151452380Y-83277619D01*
X150690475Y-83277619D02*
X150690475Y-82753809D01*
X150690475Y-82753809D02*
X150738094Y-82658571D01*
X150738094Y-82658571D02*
X150833332Y-82610952D01*
X150833332Y-82610952D02*
X151023808Y-82610952D01*
X151023808Y-82610952D02*
X151119046Y-82658571D01*
X150690475Y-83230000D02*
X150785713Y-83277619D01*
X150785713Y-83277619D02*
X151023808Y-83277619D01*
X151023808Y-83277619D02*
X151119046Y-83230000D01*
X151119046Y-83230000D02*
X151166665Y-83134761D01*
X151166665Y-83134761D02*
X151166665Y-83039523D01*
X151166665Y-83039523D02*
X151119046Y-82944285D01*
X151119046Y-82944285D02*
X151023808Y-82896666D01*
X151023808Y-82896666D02*
X150785713Y-82896666D01*
X150785713Y-82896666D02*
X150690475Y-82849047D01*
X150071427Y-83277619D02*
X150166665Y-83230000D01*
X150166665Y-83230000D02*
X150214284Y-83134761D01*
X150214284Y-83134761D02*
X150214284Y-82277619D01*
X149547617Y-83277619D02*
X149642855Y-83230000D01*
X149642855Y-83230000D02*
X149690474Y-83134761D01*
X149690474Y-83134761D02*
X149690474Y-82277619D01*
X148071426Y-82753809D02*
X147928569Y-82801428D01*
X147928569Y-82801428D02*
X147880950Y-82849047D01*
X147880950Y-82849047D02*
X147833331Y-82944285D01*
X147833331Y-82944285D02*
X147833331Y-83087142D01*
X147833331Y-83087142D02*
X147880950Y-83182380D01*
X147880950Y-83182380D02*
X147928569Y-83230000D01*
X147928569Y-83230000D02*
X148023807Y-83277619D01*
X148023807Y-83277619D02*
X148404759Y-83277619D01*
X148404759Y-83277619D02*
X148404759Y-82277619D01*
X148404759Y-82277619D02*
X148071426Y-82277619D01*
X148071426Y-82277619D02*
X147976188Y-82325238D01*
X147976188Y-82325238D02*
X147928569Y-82372857D01*
X147928569Y-82372857D02*
X147880950Y-82468095D01*
X147880950Y-82468095D02*
X147880950Y-82563333D01*
X147880950Y-82563333D02*
X147928569Y-82658571D01*
X147928569Y-82658571D02*
X147976188Y-82706190D01*
X147976188Y-82706190D02*
X148071426Y-82753809D01*
X148071426Y-82753809D02*
X148404759Y-82753809D01*
X146976188Y-83277619D02*
X146976188Y-82753809D01*
X146976188Y-82753809D02*
X147023807Y-82658571D01*
X147023807Y-82658571D02*
X147119045Y-82610952D01*
X147119045Y-82610952D02*
X147309521Y-82610952D01*
X147309521Y-82610952D02*
X147404759Y-82658571D01*
X146976188Y-83230000D02*
X147071426Y-83277619D01*
X147071426Y-83277619D02*
X147309521Y-83277619D01*
X147309521Y-83277619D02*
X147404759Y-83230000D01*
X147404759Y-83230000D02*
X147452378Y-83134761D01*
X147452378Y-83134761D02*
X147452378Y-83039523D01*
X147452378Y-83039523D02*
X147404759Y-82944285D01*
X147404759Y-82944285D02*
X147309521Y-82896666D01*
X147309521Y-82896666D02*
X147071426Y-82896666D01*
X147071426Y-82896666D02*
X146976188Y-82849047D01*
X146642854Y-82610952D02*
X146261902Y-82610952D01*
X146499997Y-82277619D02*
X146499997Y-83134761D01*
X146499997Y-83134761D02*
X146452378Y-83230000D01*
X146452378Y-83230000D02*
X146357140Y-83277619D01*
X146357140Y-83277619D02*
X146261902Y-83277619D01*
X146071425Y-82610952D02*
X145690473Y-82610952D01*
X145928568Y-82277619D02*
X145928568Y-83134761D01*
X145928568Y-83134761D02*
X145880949Y-83230000D01*
X145880949Y-83230000D02*
X145785711Y-83277619D01*
X145785711Y-83277619D02*
X145690473Y-83277619D01*
X144976187Y-83230000D02*
X145071425Y-83277619D01*
X145071425Y-83277619D02*
X145261901Y-83277619D01*
X145261901Y-83277619D02*
X145357139Y-83230000D01*
X145357139Y-83230000D02*
X145404758Y-83134761D01*
X145404758Y-83134761D02*
X145404758Y-82753809D01*
X145404758Y-82753809D02*
X145357139Y-82658571D01*
X145357139Y-82658571D02*
X145261901Y-82610952D01*
X145261901Y-82610952D02*
X145071425Y-82610952D01*
X145071425Y-82610952D02*
X144976187Y-82658571D01*
X144976187Y-82658571D02*
X144928568Y-82753809D01*
X144928568Y-82753809D02*
X144928568Y-82849047D01*
X144928568Y-82849047D02*
X145404758Y-82944285D01*
X144499996Y-83277619D02*
X144499996Y-82610952D01*
X144499996Y-82801428D02*
X144452377Y-82706190D01*
X144452377Y-82706190D02*
X144404758Y-82658571D01*
X144404758Y-82658571D02*
X144309520Y-82610952D01*
X144309520Y-82610952D02*
X144214282Y-82610952D01*
X143976186Y-82610952D02*
X143738091Y-83277619D01*
X143499996Y-82610952D02*
X143738091Y-83277619D01*
X143738091Y-83277619D02*
X143833329Y-83515714D01*
X143833329Y-83515714D02*
X143880948Y-83563333D01*
X143880948Y-83563333D02*
X143976186Y-83610952D01*
X156357142Y-83897619D02*
X155738095Y-83897619D01*
X155738095Y-83897619D02*
X156071428Y-84278571D01*
X156071428Y-84278571D02*
X155928571Y-84278571D01*
X155928571Y-84278571D02*
X155833333Y-84326190D01*
X155833333Y-84326190D02*
X155785714Y-84373809D01*
X155785714Y-84373809D02*
X155738095Y-84469047D01*
X155738095Y-84469047D02*
X155738095Y-84707142D01*
X155738095Y-84707142D02*
X155785714Y-84802380D01*
X155785714Y-84802380D02*
X155833333Y-84850000D01*
X155833333Y-84850000D02*
X155928571Y-84897619D01*
X155928571Y-84897619D02*
X156214285Y-84897619D01*
X156214285Y-84897619D02*
X156309523Y-84850000D01*
X156309523Y-84850000D02*
X156357142Y-84802380D01*
X155404761Y-85278571D02*
X155357142Y-85230952D01*
X155357142Y-85230952D02*
X155261904Y-85088095D01*
X155261904Y-85088095D02*
X155214285Y-84992857D01*
X155214285Y-84992857D02*
X155166666Y-84850000D01*
X155166666Y-84850000D02*
X155119047Y-84611904D01*
X155119047Y-84611904D02*
X155119047Y-84421428D01*
X155119047Y-84421428D02*
X155166666Y-84183333D01*
X155166666Y-84183333D02*
X155214285Y-84040476D01*
X155214285Y-84040476D02*
X155261904Y-83945238D01*
X155261904Y-83945238D02*
X155357142Y-83802380D01*
X155357142Y-83802380D02*
X155404761Y-83754761D01*
X153928570Y-84850000D02*
X153785713Y-84897619D01*
X153785713Y-84897619D02*
X153547618Y-84897619D01*
X153547618Y-84897619D02*
X153452380Y-84850000D01*
X153452380Y-84850000D02*
X153404761Y-84802380D01*
X153404761Y-84802380D02*
X153357142Y-84707142D01*
X153357142Y-84707142D02*
X153357142Y-84611904D01*
X153357142Y-84611904D02*
X153404761Y-84516666D01*
X153404761Y-84516666D02*
X153452380Y-84469047D01*
X153452380Y-84469047D02*
X153547618Y-84421428D01*
X153547618Y-84421428D02*
X153738094Y-84373809D01*
X153738094Y-84373809D02*
X153833332Y-84326190D01*
X153833332Y-84326190D02*
X153880951Y-84278571D01*
X153880951Y-84278571D02*
X153928570Y-84183333D01*
X153928570Y-84183333D02*
X153928570Y-84088095D01*
X153928570Y-84088095D02*
X153880951Y-83992857D01*
X153880951Y-83992857D02*
X153833332Y-83945238D01*
X153833332Y-83945238D02*
X153738094Y-83897619D01*
X153738094Y-83897619D02*
X153499999Y-83897619D01*
X153499999Y-83897619D02*
X153357142Y-83945238D01*
X152785713Y-84897619D02*
X152880951Y-84850000D01*
X152880951Y-84850000D02*
X152928570Y-84802380D01*
X152928570Y-84802380D02*
X152976189Y-84707142D01*
X152976189Y-84707142D02*
X152976189Y-84421428D01*
X152976189Y-84421428D02*
X152928570Y-84326190D01*
X152928570Y-84326190D02*
X152880951Y-84278571D01*
X152880951Y-84278571D02*
X152785713Y-84230952D01*
X152785713Y-84230952D02*
X152642856Y-84230952D01*
X152642856Y-84230952D02*
X152547618Y-84278571D01*
X152547618Y-84278571D02*
X152499999Y-84326190D01*
X152499999Y-84326190D02*
X152452380Y-84421428D01*
X152452380Y-84421428D02*
X152452380Y-84707142D01*
X152452380Y-84707142D02*
X152499999Y-84802380D01*
X152499999Y-84802380D02*
X152547618Y-84850000D01*
X152547618Y-84850000D02*
X152642856Y-84897619D01*
X152642856Y-84897619D02*
X152785713Y-84897619D01*
X151880951Y-84897619D02*
X151976189Y-84850000D01*
X151976189Y-84850000D02*
X152023808Y-84754761D01*
X152023808Y-84754761D02*
X152023808Y-83897619D01*
X151071427Y-84897619D02*
X151071427Y-83897619D01*
X151071427Y-84850000D02*
X151166665Y-84897619D01*
X151166665Y-84897619D02*
X151357141Y-84897619D01*
X151357141Y-84897619D02*
X151452379Y-84850000D01*
X151452379Y-84850000D02*
X151499998Y-84802380D01*
X151499998Y-84802380D02*
X151547617Y-84707142D01*
X151547617Y-84707142D02*
X151547617Y-84421428D01*
X151547617Y-84421428D02*
X151499998Y-84326190D01*
X151499998Y-84326190D02*
X151452379Y-84278571D01*
X151452379Y-84278571D02*
X151357141Y-84230952D01*
X151357141Y-84230952D02*
X151166665Y-84230952D01*
X151166665Y-84230952D02*
X151071427Y-84278571D01*
X150214284Y-84850000D02*
X150309522Y-84897619D01*
X150309522Y-84897619D02*
X150499998Y-84897619D01*
X150499998Y-84897619D02*
X150595236Y-84850000D01*
X150595236Y-84850000D02*
X150642855Y-84754761D01*
X150642855Y-84754761D02*
X150642855Y-84373809D01*
X150642855Y-84373809D02*
X150595236Y-84278571D01*
X150595236Y-84278571D02*
X150499998Y-84230952D01*
X150499998Y-84230952D02*
X150309522Y-84230952D01*
X150309522Y-84230952D02*
X150214284Y-84278571D01*
X150214284Y-84278571D02*
X150166665Y-84373809D01*
X150166665Y-84373809D02*
X150166665Y-84469047D01*
X150166665Y-84469047D02*
X150642855Y-84564285D01*
X149738093Y-84897619D02*
X149738093Y-84230952D01*
X149738093Y-84421428D02*
X149690474Y-84326190D01*
X149690474Y-84326190D02*
X149642855Y-84278571D01*
X149642855Y-84278571D02*
X149547617Y-84230952D01*
X149547617Y-84230952D02*
X149452379Y-84230952D01*
X148071426Y-83897619D02*
X148071426Y-84611904D01*
X148071426Y-84611904D02*
X148119045Y-84754761D01*
X148119045Y-84754761D02*
X148214283Y-84850000D01*
X148214283Y-84850000D02*
X148357140Y-84897619D01*
X148357140Y-84897619D02*
X148452378Y-84897619D01*
X147166664Y-84230952D02*
X147166664Y-84897619D01*
X147595235Y-84230952D02*
X147595235Y-84754761D01*
X147595235Y-84754761D02*
X147547616Y-84850000D01*
X147547616Y-84850000D02*
X147452378Y-84897619D01*
X147452378Y-84897619D02*
X147309521Y-84897619D01*
X147309521Y-84897619D02*
X147214283Y-84850000D01*
X147214283Y-84850000D02*
X147166664Y-84802380D01*
X146690473Y-84897619D02*
X146690473Y-84230952D01*
X146690473Y-84326190D02*
X146642854Y-84278571D01*
X146642854Y-84278571D02*
X146547616Y-84230952D01*
X146547616Y-84230952D02*
X146404759Y-84230952D01*
X146404759Y-84230952D02*
X146309521Y-84278571D01*
X146309521Y-84278571D02*
X146261902Y-84373809D01*
X146261902Y-84373809D02*
X146261902Y-84897619D01*
X146261902Y-84373809D02*
X146214283Y-84278571D01*
X146214283Y-84278571D02*
X146119045Y-84230952D01*
X146119045Y-84230952D02*
X145976188Y-84230952D01*
X145976188Y-84230952D02*
X145880949Y-84278571D01*
X145880949Y-84278571D02*
X145833330Y-84373809D01*
X145833330Y-84373809D02*
X145833330Y-84897619D01*
X145357140Y-84230952D02*
X145357140Y-85230952D01*
X145357140Y-84278571D02*
X145261902Y-84230952D01*
X145261902Y-84230952D02*
X145071426Y-84230952D01*
X145071426Y-84230952D02*
X144976188Y-84278571D01*
X144976188Y-84278571D02*
X144928569Y-84326190D01*
X144928569Y-84326190D02*
X144880950Y-84421428D01*
X144880950Y-84421428D02*
X144880950Y-84707142D01*
X144880950Y-84707142D02*
X144928569Y-84802380D01*
X144928569Y-84802380D02*
X144976188Y-84850000D01*
X144976188Y-84850000D02*
X145071426Y-84897619D01*
X145071426Y-84897619D02*
X145261902Y-84897619D01*
X145261902Y-84897619D02*
X145357140Y-84850000D01*
X144071426Y-84850000D02*
X144166664Y-84897619D01*
X144166664Y-84897619D02*
X144357140Y-84897619D01*
X144357140Y-84897619D02*
X144452378Y-84850000D01*
X144452378Y-84850000D02*
X144499997Y-84754761D01*
X144499997Y-84754761D02*
X144499997Y-84373809D01*
X144499997Y-84373809D02*
X144452378Y-84278571D01*
X144452378Y-84278571D02*
X144357140Y-84230952D01*
X144357140Y-84230952D02*
X144166664Y-84230952D01*
X144166664Y-84230952D02*
X144071426Y-84278571D01*
X144071426Y-84278571D02*
X144023807Y-84373809D01*
X144023807Y-84373809D02*
X144023807Y-84469047D01*
X144023807Y-84469047D02*
X144499997Y-84564285D01*
X143595235Y-84897619D02*
X143595235Y-84230952D01*
X143595235Y-84421428D02*
X143547616Y-84326190D01*
X143547616Y-84326190D02*
X143499997Y-84278571D01*
X143499997Y-84278571D02*
X143404759Y-84230952D01*
X143404759Y-84230952D02*
X143309521Y-84230952D01*
X142071425Y-84897619D02*
X142166663Y-84850000D01*
X142166663Y-84850000D02*
X142214282Y-84802380D01*
X142214282Y-84802380D02*
X142261901Y-84707142D01*
X142261901Y-84707142D02*
X142261901Y-84421428D01*
X142261901Y-84421428D02*
X142214282Y-84326190D01*
X142214282Y-84326190D02*
X142166663Y-84278571D01*
X142166663Y-84278571D02*
X142071425Y-84230952D01*
X142071425Y-84230952D02*
X141928568Y-84230952D01*
X141928568Y-84230952D02*
X141833330Y-84278571D01*
X141833330Y-84278571D02*
X141785711Y-84326190D01*
X141785711Y-84326190D02*
X141738092Y-84421428D01*
X141738092Y-84421428D02*
X141738092Y-84707142D01*
X141738092Y-84707142D02*
X141785711Y-84802380D01*
X141785711Y-84802380D02*
X141833330Y-84850000D01*
X141833330Y-84850000D02*
X141928568Y-84897619D01*
X141928568Y-84897619D02*
X142071425Y-84897619D01*
X141309520Y-84897619D02*
X141309520Y-84230952D01*
X141309520Y-84421428D02*
X141261901Y-84326190D01*
X141261901Y-84326190D02*
X141214282Y-84278571D01*
X141214282Y-84278571D02*
X141119044Y-84230952D01*
X141119044Y-84230952D02*
X141023806Y-84230952D01*
X139976186Y-84850000D02*
X139833329Y-84897619D01*
X139833329Y-84897619D02*
X139595234Y-84897619D01*
X139595234Y-84897619D02*
X139499996Y-84850000D01*
X139499996Y-84850000D02*
X139452377Y-84802380D01*
X139452377Y-84802380D02*
X139404758Y-84707142D01*
X139404758Y-84707142D02*
X139404758Y-84611904D01*
X139404758Y-84611904D02*
X139452377Y-84516666D01*
X139452377Y-84516666D02*
X139499996Y-84469047D01*
X139499996Y-84469047D02*
X139595234Y-84421428D01*
X139595234Y-84421428D02*
X139785710Y-84373809D01*
X139785710Y-84373809D02*
X139880948Y-84326190D01*
X139880948Y-84326190D02*
X139928567Y-84278571D01*
X139928567Y-84278571D02*
X139976186Y-84183333D01*
X139976186Y-84183333D02*
X139976186Y-84088095D01*
X139976186Y-84088095D02*
X139928567Y-83992857D01*
X139928567Y-83992857D02*
X139880948Y-83945238D01*
X139880948Y-83945238D02*
X139785710Y-83897619D01*
X139785710Y-83897619D02*
X139547615Y-83897619D01*
X139547615Y-83897619D02*
X139404758Y-83945238D01*
X139071424Y-84230952D02*
X138880948Y-84897619D01*
X138880948Y-84897619D02*
X138690472Y-84421428D01*
X138690472Y-84421428D02*
X138499996Y-84897619D01*
X138499996Y-84897619D02*
X138309520Y-84230952D01*
X137928567Y-84897619D02*
X137928567Y-84230952D01*
X137928567Y-83897619D02*
X137976186Y-83945238D01*
X137976186Y-83945238D02*
X137928567Y-83992857D01*
X137928567Y-83992857D02*
X137880948Y-83945238D01*
X137880948Y-83945238D02*
X137928567Y-83897619D01*
X137928567Y-83897619D02*
X137928567Y-83992857D01*
X137595234Y-84230952D02*
X137214282Y-84230952D01*
X137452377Y-83897619D02*
X137452377Y-84754761D01*
X137452377Y-84754761D02*
X137404758Y-84850000D01*
X137404758Y-84850000D02*
X137309520Y-84897619D01*
X137309520Y-84897619D02*
X137214282Y-84897619D01*
X136452377Y-84850000D02*
X136547615Y-84897619D01*
X136547615Y-84897619D02*
X136738091Y-84897619D01*
X136738091Y-84897619D02*
X136833329Y-84850000D01*
X136833329Y-84850000D02*
X136880948Y-84802380D01*
X136880948Y-84802380D02*
X136928567Y-84707142D01*
X136928567Y-84707142D02*
X136928567Y-84421428D01*
X136928567Y-84421428D02*
X136880948Y-84326190D01*
X136880948Y-84326190D02*
X136833329Y-84278571D01*
X136833329Y-84278571D02*
X136738091Y-84230952D01*
X136738091Y-84230952D02*
X136547615Y-84230952D01*
X136547615Y-84230952D02*
X136452377Y-84278571D01*
X136023805Y-84897619D02*
X136023805Y-83897619D01*
X135595234Y-84897619D02*
X135595234Y-84373809D01*
X135595234Y-84373809D02*
X135642853Y-84278571D01*
X135642853Y-84278571D02*
X135738091Y-84230952D01*
X135738091Y-84230952D02*
X135880948Y-84230952D01*
X135880948Y-84230952D02*
X135976186Y-84278571D01*
X135976186Y-84278571D02*
X136023805Y-84326190D01*
X155833333Y-85850952D02*
X155833333Y-86517619D01*
X156071428Y-85470000D02*
X156309523Y-86184285D01*
X156309523Y-86184285D02*
X155690476Y-86184285D01*
X155404761Y-86898571D02*
X155357142Y-86850952D01*
X155357142Y-86850952D02*
X155261904Y-86708095D01*
X155261904Y-86708095D02*
X155214285Y-86612857D01*
X155214285Y-86612857D02*
X155166666Y-86470000D01*
X155166666Y-86470000D02*
X155119047Y-86231904D01*
X155119047Y-86231904D02*
X155119047Y-86041428D01*
X155119047Y-86041428D02*
X155166666Y-85803333D01*
X155166666Y-85803333D02*
X155214285Y-85660476D01*
X155214285Y-85660476D02*
X155261904Y-85565238D01*
X155261904Y-85565238D02*
X155357142Y-85422380D01*
X155357142Y-85422380D02*
X155404761Y-85374761D01*
X153928570Y-86470000D02*
X153785713Y-86517619D01*
X153785713Y-86517619D02*
X153547618Y-86517619D01*
X153547618Y-86517619D02*
X153452380Y-86470000D01*
X153452380Y-86470000D02*
X153404761Y-86422380D01*
X153404761Y-86422380D02*
X153357142Y-86327142D01*
X153357142Y-86327142D02*
X153357142Y-86231904D01*
X153357142Y-86231904D02*
X153404761Y-86136666D01*
X153404761Y-86136666D02*
X153452380Y-86089047D01*
X153452380Y-86089047D02*
X153547618Y-86041428D01*
X153547618Y-86041428D02*
X153738094Y-85993809D01*
X153738094Y-85993809D02*
X153833332Y-85946190D01*
X153833332Y-85946190D02*
X153880951Y-85898571D01*
X153880951Y-85898571D02*
X153928570Y-85803333D01*
X153928570Y-85803333D02*
X153928570Y-85708095D01*
X153928570Y-85708095D02*
X153880951Y-85612857D01*
X153880951Y-85612857D02*
X153833332Y-85565238D01*
X153833332Y-85565238D02*
X153738094Y-85517619D01*
X153738094Y-85517619D02*
X153499999Y-85517619D01*
X153499999Y-85517619D02*
X153357142Y-85565238D01*
X152785713Y-86517619D02*
X152880951Y-86470000D01*
X152880951Y-86470000D02*
X152928570Y-86422380D01*
X152928570Y-86422380D02*
X152976189Y-86327142D01*
X152976189Y-86327142D02*
X152976189Y-86041428D01*
X152976189Y-86041428D02*
X152928570Y-85946190D01*
X152928570Y-85946190D02*
X152880951Y-85898571D01*
X152880951Y-85898571D02*
X152785713Y-85850952D01*
X152785713Y-85850952D02*
X152642856Y-85850952D01*
X152642856Y-85850952D02*
X152547618Y-85898571D01*
X152547618Y-85898571D02*
X152499999Y-85946190D01*
X152499999Y-85946190D02*
X152452380Y-86041428D01*
X152452380Y-86041428D02*
X152452380Y-86327142D01*
X152452380Y-86327142D02*
X152499999Y-86422380D01*
X152499999Y-86422380D02*
X152547618Y-86470000D01*
X152547618Y-86470000D02*
X152642856Y-86517619D01*
X152642856Y-86517619D02*
X152785713Y-86517619D01*
X151880951Y-86517619D02*
X151976189Y-86470000D01*
X151976189Y-86470000D02*
X152023808Y-86374761D01*
X152023808Y-86374761D02*
X152023808Y-85517619D01*
X151071427Y-86517619D02*
X151071427Y-85517619D01*
X151071427Y-86470000D02*
X151166665Y-86517619D01*
X151166665Y-86517619D02*
X151357141Y-86517619D01*
X151357141Y-86517619D02*
X151452379Y-86470000D01*
X151452379Y-86470000D02*
X151499998Y-86422380D01*
X151499998Y-86422380D02*
X151547617Y-86327142D01*
X151547617Y-86327142D02*
X151547617Y-86041428D01*
X151547617Y-86041428D02*
X151499998Y-85946190D01*
X151499998Y-85946190D02*
X151452379Y-85898571D01*
X151452379Y-85898571D02*
X151357141Y-85850952D01*
X151357141Y-85850952D02*
X151166665Y-85850952D01*
X151166665Y-85850952D02*
X151071427Y-85898571D01*
X150214284Y-86470000D02*
X150309522Y-86517619D01*
X150309522Y-86517619D02*
X150499998Y-86517619D01*
X150499998Y-86517619D02*
X150595236Y-86470000D01*
X150595236Y-86470000D02*
X150642855Y-86374761D01*
X150642855Y-86374761D02*
X150642855Y-85993809D01*
X150642855Y-85993809D02*
X150595236Y-85898571D01*
X150595236Y-85898571D02*
X150499998Y-85850952D01*
X150499998Y-85850952D02*
X150309522Y-85850952D01*
X150309522Y-85850952D02*
X150214284Y-85898571D01*
X150214284Y-85898571D02*
X150166665Y-85993809D01*
X150166665Y-85993809D02*
X150166665Y-86089047D01*
X150166665Y-86089047D02*
X150642855Y-86184285D01*
X149738093Y-86517619D02*
X149738093Y-85850952D01*
X149738093Y-86041428D02*
X149690474Y-85946190D01*
X149690474Y-85946190D02*
X149642855Y-85898571D01*
X149642855Y-85898571D02*
X149547617Y-85850952D01*
X149547617Y-85850952D02*
X149452379Y-85850952D01*
X147880950Y-86517619D02*
X148357140Y-86517619D01*
X148357140Y-86517619D02*
X148357140Y-85517619D01*
X147547616Y-85993809D02*
X147214283Y-85993809D01*
X147071426Y-86517619D02*
X147547616Y-86517619D01*
X147547616Y-86517619D02*
X147547616Y-85517619D01*
X147547616Y-85517619D02*
X147071426Y-85517619D01*
X146642854Y-86517619D02*
X146642854Y-85517619D01*
X146642854Y-85517619D02*
X146404759Y-85517619D01*
X146404759Y-85517619D02*
X146261902Y-85565238D01*
X146261902Y-85565238D02*
X146166664Y-85660476D01*
X146166664Y-85660476D02*
X146119045Y-85755714D01*
X146119045Y-85755714D02*
X146071426Y-85946190D01*
X146071426Y-85946190D02*
X146071426Y-86089047D01*
X146071426Y-86089047D02*
X146119045Y-86279523D01*
X146119045Y-86279523D02*
X146166664Y-86374761D01*
X146166664Y-86374761D02*
X146261902Y-86470000D01*
X146261902Y-86470000D02*
X146404759Y-86517619D01*
X146404759Y-86517619D02*
X146642854Y-86517619D01*
X145690473Y-86470000D02*
X145595235Y-86517619D01*
X145595235Y-86517619D02*
X145404759Y-86517619D01*
X145404759Y-86517619D02*
X145309521Y-86470000D01*
X145309521Y-86470000D02*
X145261902Y-86374761D01*
X145261902Y-86374761D02*
X145261902Y-86327142D01*
X145261902Y-86327142D02*
X145309521Y-86231904D01*
X145309521Y-86231904D02*
X145404759Y-86184285D01*
X145404759Y-86184285D02*
X145547616Y-86184285D01*
X145547616Y-86184285D02*
X145642854Y-86136666D01*
X145642854Y-86136666D02*
X145690473Y-86041428D01*
X145690473Y-86041428D02*
X145690473Y-85993809D01*
X145690473Y-85993809D02*
X145642854Y-85898571D01*
X145642854Y-85898571D02*
X145547616Y-85850952D01*
X145547616Y-85850952D02*
X145404759Y-85850952D01*
X145404759Y-85850952D02*
X145309521Y-85898571D01*
X155785714Y-87137619D02*
X156261904Y-87137619D01*
X156261904Y-87137619D02*
X156309523Y-87613809D01*
X156309523Y-87613809D02*
X156261904Y-87566190D01*
X156261904Y-87566190D02*
X156166666Y-87518571D01*
X156166666Y-87518571D02*
X155928571Y-87518571D01*
X155928571Y-87518571D02*
X155833333Y-87566190D01*
X155833333Y-87566190D02*
X155785714Y-87613809D01*
X155785714Y-87613809D02*
X155738095Y-87709047D01*
X155738095Y-87709047D02*
X155738095Y-87947142D01*
X155738095Y-87947142D02*
X155785714Y-88042380D01*
X155785714Y-88042380D02*
X155833333Y-88090000D01*
X155833333Y-88090000D02*
X155928571Y-88137619D01*
X155928571Y-88137619D02*
X156166666Y-88137619D01*
X156166666Y-88137619D02*
X156261904Y-88090000D01*
X156261904Y-88090000D02*
X156309523Y-88042380D01*
X155404761Y-88518571D02*
X155357142Y-88470952D01*
X155357142Y-88470952D02*
X155261904Y-88328095D01*
X155261904Y-88328095D02*
X155214285Y-88232857D01*
X155214285Y-88232857D02*
X155166666Y-88090000D01*
X155166666Y-88090000D02*
X155119047Y-87851904D01*
X155119047Y-87851904D02*
X155119047Y-87661428D01*
X155119047Y-87661428D02*
X155166666Y-87423333D01*
X155166666Y-87423333D02*
X155214285Y-87280476D01*
X155214285Y-87280476D02*
X155261904Y-87185238D01*
X155261904Y-87185238D02*
X155357142Y-87042380D01*
X155357142Y-87042380D02*
X155404761Y-86994761D01*
X153976189Y-87137619D02*
X153738094Y-88137619D01*
X153738094Y-88137619D02*
X153547618Y-87423333D01*
X153547618Y-87423333D02*
X153357142Y-88137619D01*
X153357142Y-88137619D02*
X153119047Y-87137619D01*
X152309523Y-88137619D02*
X152309523Y-87613809D01*
X152309523Y-87613809D02*
X152357142Y-87518571D01*
X152357142Y-87518571D02*
X152452380Y-87470952D01*
X152452380Y-87470952D02*
X152642856Y-87470952D01*
X152642856Y-87470952D02*
X152738094Y-87518571D01*
X152309523Y-88090000D02*
X152404761Y-88137619D01*
X152404761Y-88137619D02*
X152642856Y-88137619D01*
X152642856Y-88137619D02*
X152738094Y-88090000D01*
X152738094Y-88090000D02*
X152785713Y-87994761D01*
X152785713Y-87994761D02*
X152785713Y-87899523D01*
X152785713Y-87899523D02*
X152738094Y-87804285D01*
X152738094Y-87804285D02*
X152642856Y-87756666D01*
X152642856Y-87756666D02*
X152404761Y-87756666D01*
X152404761Y-87756666D02*
X152309523Y-87709047D01*
X151880951Y-88090000D02*
X151785713Y-88137619D01*
X151785713Y-88137619D02*
X151595237Y-88137619D01*
X151595237Y-88137619D02*
X151499999Y-88090000D01*
X151499999Y-88090000D02*
X151452380Y-87994761D01*
X151452380Y-87994761D02*
X151452380Y-87947142D01*
X151452380Y-87947142D02*
X151499999Y-87851904D01*
X151499999Y-87851904D02*
X151595237Y-87804285D01*
X151595237Y-87804285D02*
X151738094Y-87804285D01*
X151738094Y-87804285D02*
X151833332Y-87756666D01*
X151833332Y-87756666D02*
X151880951Y-87661428D01*
X151880951Y-87661428D02*
X151880951Y-87613809D01*
X151880951Y-87613809D02*
X151833332Y-87518571D01*
X151833332Y-87518571D02*
X151738094Y-87470952D01*
X151738094Y-87470952D02*
X151595237Y-87470952D01*
X151595237Y-87470952D02*
X151499999Y-87518571D01*
X151023808Y-88137619D02*
X151023808Y-87137619D01*
X150595237Y-88137619D02*
X150595237Y-87613809D01*
X150595237Y-87613809D02*
X150642856Y-87518571D01*
X150642856Y-87518571D02*
X150738094Y-87470952D01*
X150738094Y-87470952D02*
X150880951Y-87470952D01*
X150880951Y-87470952D02*
X150976189Y-87518571D01*
X150976189Y-87518571D02*
X151023808Y-87566190D01*
X149357141Y-88137619D02*
X149357141Y-87137619D01*
X149357141Y-87613809D02*
X148785713Y-87613809D01*
X148785713Y-88137619D02*
X148785713Y-87137619D01*
X147880951Y-88137619D02*
X147880951Y-87613809D01*
X147880951Y-87613809D02*
X147928570Y-87518571D01*
X147928570Y-87518571D02*
X148023808Y-87470952D01*
X148023808Y-87470952D02*
X148214284Y-87470952D01*
X148214284Y-87470952D02*
X148309522Y-87518571D01*
X147880951Y-88090000D02*
X147976189Y-88137619D01*
X147976189Y-88137619D02*
X148214284Y-88137619D01*
X148214284Y-88137619D02*
X148309522Y-88090000D01*
X148309522Y-88090000D02*
X148357141Y-87994761D01*
X148357141Y-87994761D02*
X148357141Y-87899523D01*
X148357141Y-87899523D02*
X148309522Y-87804285D01*
X148309522Y-87804285D02*
X148214284Y-87756666D01*
X148214284Y-87756666D02*
X147976189Y-87756666D01*
X147976189Y-87756666D02*
X147880951Y-87709047D01*
X147404760Y-87470952D02*
X147404760Y-88137619D01*
X147404760Y-87566190D02*
X147357141Y-87518571D01*
X147357141Y-87518571D02*
X147261903Y-87470952D01*
X147261903Y-87470952D02*
X147119046Y-87470952D01*
X147119046Y-87470952D02*
X147023808Y-87518571D01*
X147023808Y-87518571D02*
X146976189Y-87613809D01*
X146976189Y-87613809D02*
X146976189Y-88137619D01*
X146071427Y-88137619D02*
X146071427Y-87137619D01*
X146071427Y-88090000D02*
X146166665Y-88137619D01*
X146166665Y-88137619D02*
X146357141Y-88137619D01*
X146357141Y-88137619D02*
X146452379Y-88090000D01*
X146452379Y-88090000D02*
X146499998Y-88042380D01*
X146499998Y-88042380D02*
X146547617Y-87947142D01*
X146547617Y-87947142D02*
X146547617Y-87661428D01*
X146547617Y-87661428D02*
X146499998Y-87566190D01*
X146499998Y-87566190D02*
X146452379Y-87518571D01*
X146452379Y-87518571D02*
X146357141Y-87470952D01*
X146357141Y-87470952D02*
X146166665Y-87470952D01*
X146166665Y-87470952D02*
X146071427Y-87518571D01*
X145642855Y-88090000D02*
X145547617Y-88137619D01*
X145547617Y-88137619D02*
X145357141Y-88137619D01*
X145357141Y-88137619D02*
X145261903Y-88090000D01*
X145261903Y-88090000D02*
X145214284Y-87994761D01*
X145214284Y-87994761D02*
X145214284Y-87947142D01*
X145214284Y-87947142D02*
X145261903Y-87851904D01*
X145261903Y-87851904D02*
X145357141Y-87804285D01*
X145357141Y-87804285D02*
X145499998Y-87804285D01*
X145499998Y-87804285D02*
X145595236Y-87756666D01*
X145595236Y-87756666D02*
X145642855Y-87661428D01*
X145642855Y-87661428D02*
X145642855Y-87613809D01*
X145642855Y-87613809D02*
X145595236Y-87518571D01*
X145595236Y-87518571D02*
X145499998Y-87470952D01*
X145499998Y-87470952D02*
X145357141Y-87470952D01*
X145357141Y-87470952D02*
X145261903Y-87518571D01*
X144785712Y-88042380D02*
X144738093Y-88090000D01*
X144738093Y-88090000D02*
X144785712Y-88137619D01*
X144785712Y-88137619D02*
X144833331Y-88090000D01*
X144833331Y-88090000D02*
X144785712Y-88042380D01*
X144785712Y-88042380D02*
X144785712Y-88137619D01*
X144785712Y-87756666D02*
X144833331Y-87185238D01*
X144833331Y-87185238D02*
X144785712Y-87137619D01*
X144785712Y-87137619D02*
X144738093Y-87185238D01*
X144738093Y-87185238D02*
X144785712Y-87756666D01*
X144785712Y-87756666D02*
X144785712Y-87137619D01*
X144309522Y-88042380D02*
X144261903Y-88090000D01*
X144261903Y-88090000D02*
X144309522Y-88137619D01*
X144309522Y-88137619D02*
X144357141Y-88090000D01*
X144357141Y-88090000D02*
X144309522Y-88042380D01*
X144309522Y-88042380D02*
X144309522Y-88137619D01*
X144309522Y-87756666D02*
X144357141Y-87185238D01*
X144357141Y-87185238D02*
X144309522Y-87137619D01*
X144309522Y-87137619D02*
X144261903Y-87185238D01*
X144261903Y-87185238D02*
X144309522Y-87756666D01*
X144309522Y-87756666D02*
X144309522Y-87137619D01*
X143833332Y-88042380D02*
X143785713Y-88090000D01*
X143785713Y-88090000D02*
X143833332Y-88137619D01*
X143833332Y-88137619D02*
X143880951Y-88090000D01*
X143880951Y-88090000D02*
X143833332Y-88042380D01*
X143833332Y-88042380D02*
X143833332Y-88137619D01*
X143833332Y-87756666D02*
X143880951Y-87185238D01*
X143880951Y-87185238D02*
X143833332Y-87137619D01*
X143833332Y-87137619D02*
X143785713Y-87185238D01*
X143785713Y-87185238D02*
X143833332Y-87756666D01*
X143833332Y-87756666D02*
X143833332Y-87137619D01*
X143357142Y-88042380D02*
X143309523Y-88090000D01*
X143309523Y-88090000D02*
X143357142Y-88137619D01*
X143357142Y-88137619D02*
X143404761Y-88090000D01*
X143404761Y-88090000D02*
X143357142Y-88042380D01*
X143357142Y-88042380D02*
X143357142Y-88137619D01*
X143357142Y-87756666D02*
X143404761Y-87185238D01*
X143404761Y-87185238D02*
X143357142Y-87137619D01*
X143357142Y-87137619D02*
X143309523Y-87185238D01*
X143309523Y-87185238D02*
X143357142Y-87756666D01*
X143357142Y-87756666D02*
X143357142Y-87137619D01*
X142880952Y-88042380D02*
X142833333Y-88090000D01*
X142833333Y-88090000D02*
X142880952Y-88137619D01*
X142880952Y-88137619D02*
X142928571Y-88090000D01*
X142928571Y-88090000D02*
X142880952Y-88042380D01*
X142880952Y-88042380D02*
X142880952Y-88137619D01*
X142880952Y-87756666D02*
X142928571Y-87185238D01*
X142928571Y-87185238D02*
X142880952Y-87137619D01*
X142880952Y-87137619D02*
X142833333Y-87185238D01*
X142833333Y-87185238D02*
X142880952Y-87756666D01*
X142880952Y-87756666D02*
X142880952Y-87137619D01*
X155833333Y-88757619D02*
X156023809Y-88757619D01*
X156023809Y-88757619D02*
X156119047Y-88805238D01*
X156119047Y-88805238D02*
X156166666Y-88852857D01*
X156166666Y-88852857D02*
X156261904Y-88995714D01*
X156261904Y-88995714D02*
X156309523Y-89186190D01*
X156309523Y-89186190D02*
X156309523Y-89567142D01*
X156309523Y-89567142D02*
X156261904Y-89662380D01*
X156261904Y-89662380D02*
X156214285Y-89710000D01*
X156214285Y-89710000D02*
X156119047Y-89757619D01*
X156119047Y-89757619D02*
X155928571Y-89757619D01*
X155928571Y-89757619D02*
X155833333Y-89710000D01*
X155833333Y-89710000D02*
X155785714Y-89662380D01*
X155785714Y-89662380D02*
X155738095Y-89567142D01*
X155738095Y-89567142D02*
X155738095Y-89329047D01*
X155738095Y-89329047D02*
X155785714Y-89233809D01*
X155785714Y-89233809D02*
X155833333Y-89186190D01*
X155833333Y-89186190D02*
X155928571Y-89138571D01*
X155928571Y-89138571D02*
X156119047Y-89138571D01*
X156119047Y-89138571D02*
X156214285Y-89186190D01*
X156214285Y-89186190D02*
X156261904Y-89233809D01*
X156261904Y-89233809D02*
X156309523Y-89329047D01*
X155404761Y-90138571D02*
X155357142Y-90090952D01*
X155357142Y-90090952D02*
X155261904Y-89948095D01*
X155261904Y-89948095D02*
X155214285Y-89852857D01*
X155214285Y-89852857D02*
X155166666Y-89710000D01*
X155166666Y-89710000D02*
X155119047Y-89471904D01*
X155119047Y-89471904D02*
X155119047Y-89281428D01*
X155119047Y-89281428D02*
X155166666Y-89043333D01*
X155166666Y-89043333D02*
X155214285Y-88900476D01*
X155214285Y-88900476D02*
X155261904Y-88805238D01*
X155261904Y-88805238D02*
X155357142Y-88662380D01*
X155357142Y-88662380D02*
X155404761Y-88614761D01*
X153738094Y-89662380D02*
X153690475Y-89710000D01*
X153690475Y-89710000D02*
X153738094Y-89757619D01*
X153738094Y-89757619D02*
X153785713Y-89710000D01*
X153785713Y-89710000D02*
X153738094Y-89662380D01*
X153738094Y-89662380D02*
X153738094Y-89757619D01*
X153928570Y-88805238D02*
X153833332Y-88757619D01*
X153833332Y-88757619D02*
X153595237Y-88757619D01*
X153595237Y-88757619D02*
X153499999Y-88805238D01*
X153499999Y-88805238D02*
X153452380Y-88900476D01*
X153452380Y-88900476D02*
X153452380Y-88995714D01*
X153452380Y-88995714D02*
X153499999Y-89090952D01*
X153499999Y-89090952D02*
X153547618Y-89138571D01*
X153547618Y-89138571D02*
X153642856Y-89186190D01*
X153642856Y-89186190D02*
X153690475Y-89233809D01*
X153690475Y-89233809D02*
X153738094Y-89329047D01*
X153738094Y-89329047D02*
X153738094Y-89376666D01*
X152880951Y-89662380D02*
X152833332Y-89710000D01*
X152833332Y-89710000D02*
X152880951Y-89757619D01*
X152880951Y-89757619D02*
X152928570Y-89710000D01*
X152928570Y-89710000D02*
X152880951Y-89662380D01*
X152880951Y-89662380D02*
X152880951Y-89757619D01*
X153071427Y-88805238D02*
X152976189Y-88757619D01*
X152976189Y-88757619D02*
X152738094Y-88757619D01*
X152738094Y-88757619D02*
X152642856Y-88805238D01*
X152642856Y-88805238D02*
X152595237Y-88900476D01*
X152595237Y-88900476D02*
X152595237Y-88995714D01*
X152595237Y-88995714D02*
X152642856Y-89090952D01*
X152642856Y-89090952D02*
X152690475Y-89138571D01*
X152690475Y-89138571D02*
X152785713Y-89186190D01*
X152785713Y-89186190D02*
X152833332Y-89233809D01*
X152833332Y-89233809D02*
X152880951Y-89329047D01*
X152880951Y-89329047D02*
X152880951Y-89376666D01*
X152023808Y-89662380D02*
X151976189Y-89710000D01*
X151976189Y-89710000D02*
X152023808Y-89757619D01*
X152023808Y-89757619D02*
X152071427Y-89710000D01*
X152071427Y-89710000D02*
X152023808Y-89662380D01*
X152023808Y-89662380D02*
X152023808Y-89757619D01*
X152214284Y-88805238D02*
X152119046Y-88757619D01*
X152119046Y-88757619D02*
X151880951Y-88757619D01*
X151880951Y-88757619D02*
X151785713Y-88805238D01*
X151785713Y-88805238D02*
X151738094Y-88900476D01*
X151738094Y-88900476D02*
X151738094Y-88995714D01*
X151738094Y-88995714D02*
X151785713Y-89090952D01*
X151785713Y-89090952D02*
X151833332Y-89138571D01*
X151833332Y-89138571D02*
X151928570Y-89186190D01*
X151928570Y-89186190D02*
X151976189Y-89233809D01*
X151976189Y-89233809D02*
X152023808Y-89329047D01*
X152023808Y-89329047D02*
X152023808Y-89376666D01*
X151166665Y-89662380D02*
X151119046Y-89710000D01*
X151119046Y-89710000D02*
X151166665Y-89757619D01*
X151166665Y-89757619D02*
X151214284Y-89710000D01*
X151214284Y-89710000D02*
X151166665Y-89662380D01*
X151166665Y-89662380D02*
X151166665Y-89757619D01*
X151357141Y-88805238D02*
X151261903Y-88757619D01*
X151261903Y-88757619D02*
X151023808Y-88757619D01*
X151023808Y-88757619D02*
X150928570Y-88805238D01*
X150928570Y-88805238D02*
X150880951Y-88900476D01*
X150880951Y-88900476D02*
X150880951Y-88995714D01*
X150880951Y-88995714D02*
X150928570Y-89090952D01*
X150928570Y-89090952D02*
X150976189Y-89138571D01*
X150976189Y-89138571D02*
X151071427Y-89186190D01*
X151071427Y-89186190D02*
X151119046Y-89233809D01*
X151119046Y-89233809D02*
X151166665Y-89329047D01*
X151166665Y-89329047D02*
X151166665Y-89376666D01*
X150309522Y-89662380D02*
X150261903Y-89710000D01*
X150261903Y-89710000D02*
X150309522Y-89757619D01*
X150309522Y-89757619D02*
X150357141Y-89710000D01*
X150357141Y-89710000D02*
X150309522Y-89662380D01*
X150309522Y-89662380D02*
X150309522Y-89757619D01*
X150499998Y-88805238D02*
X150404760Y-88757619D01*
X150404760Y-88757619D02*
X150166665Y-88757619D01*
X150166665Y-88757619D02*
X150071427Y-88805238D01*
X150071427Y-88805238D02*
X150023808Y-88900476D01*
X150023808Y-88900476D02*
X150023808Y-88995714D01*
X150023808Y-88995714D02*
X150071427Y-89090952D01*
X150071427Y-89090952D02*
X150119046Y-89138571D01*
X150119046Y-89138571D02*
X150214284Y-89186190D01*
X150214284Y-89186190D02*
X150261903Y-89233809D01*
X150261903Y-89233809D02*
X150309522Y-89329047D01*
X150309522Y-89329047D02*
X150309522Y-89376666D01*
X149452379Y-89662380D02*
X149404760Y-89710000D01*
X149404760Y-89710000D02*
X149452379Y-89757619D01*
X149452379Y-89757619D02*
X149499998Y-89710000D01*
X149499998Y-89710000D02*
X149452379Y-89662380D01*
X149452379Y-89662380D02*
X149452379Y-89757619D01*
X149642855Y-88805238D02*
X149547617Y-88757619D01*
X149547617Y-88757619D02*
X149309522Y-88757619D01*
X149309522Y-88757619D02*
X149214284Y-88805238D01*
X149214284Y-88805238D02*
X149166665Y-88900476D01*
X149166665Y-88900476D02*
X149166665Y-88995714D01*
X149166665Y-88995714D02*
X149214284Y-89090952D01*
X149214284Y-89090952D02*
X149261903Y-89138571D01*
X149261903Y-89138571D02*
X149357141Y-89186190D01*
X149357141Y-89186190D02*
X149404760Y-89233809D01*
X149404760Y-89233809D02*
X149452379Y-89329047D01*
X149452379Y-89329047D02*
X149452379Y-89376666D01*
X148595236Y-89662380D02*
X148547617Y-89710000D01*
X148547617Y-89710000D02*
X148595236Y-89757619D01*
X148595236Y-89757619D02*
X148642855Y-89710000D01*
X148642855Y-89710000D02*
X148595236Y-89662380D01*
X148595236Y-89662380D02*
X148595236Y-89757619D01*
X148785712Y-88805238D02*
X148690474Y-88757619D01*
X148690474Y-88757619D02*
X148452379Y-88757619D01*
X148452379Y-88757619D02*
X148357141Y-88805238D01*
X148357141Y-88805238D02*
X148309522Y-88900476D01*
X148309522Y-88900476D02*
X148309522Y-88995714D01*
X148309522Y-88995714D02*
X148357141Y-89090952D01*
X148357141Y-89090952D02*
X148404760Y-89138571D01*
X148404760Y-89138571D02*
X148499998Y-89186190D01*
X148499998Y-89186190D02*
X148547617Y-89233809D01*
X148547617Y-89233809D02*
X148595236Y-89329047D01*
X148595236Y-89329047D02*
X148595236Y-89376666D01*
X156357142Y-90377619D02*
X155690476Y-90377619D01*
X155690476Y-90377619D02*
X156119047Y-91377619D01*
X155404761Y-91758571D02*
X155357142Y-91710952D01*
X155357142Y-91710952D02*
X155261904Y-91568095D01*
X155261904Y-91568095D02*
X155214285Y-91472857D01*
X155214285Y-91472857D02*
X155166666Y-91330000D01*
X155166666Y-91330000D02*
X155119047Y-91091904D01*
X155119047Y-91091904D02*
X155119047Y-90901428D01*
X155119047Y-90901428D02*
X155166666Y-90663333D01*
X155166666Y-90663333D02*
X155214285Y-90520476D01*
X155214285Y-90520476D02*
X155261904Y-90425238D01*
X155261904Y-90425238D02*
X155357142Y-90282380D01*
X155357142Y-90282380D02*
X155404761Y-90234761D01*
X153880951Y-91377619D02*
X153880951Y-90377619D01*
X153880951Y-90377619D02*
X153499999Y-90377619D01*
X153499999Y-90377619D02*
X153404761Y-90425238D01*
X153404761Y-90425238D02*
X153357142Y-90472857D01*
X153357142Y-90472857D02*
X153309523Y-90568095D01*
X153309523Y-90568095D02*
X153309523Y-90710952D01*
X153309523Y-90710952D02*
X153357142Y-90806190D01*
X153357142Y-90806190D02*
X153404761Y-90853809D01*
X153404761Y-90853809D02*
X153499999Y-90901428D01*
X153499999Y-90901428D02*
X153880951Y-90901428D01*
X152880951Y-91377619D02*
X152880951Y-90710952D01*
X152880951Y-90901428D02*
X152833332Y-90806190D01*
X152833332Y-90806190D02*
X152785713Y-90758571D01*
X152785713Y-90758571D02*
X152690475Y-90710952D01*
X152690475Y-90710952D02*
X152595237Y-90710952D01*
X152119046Y-91377619D02*
X152214284Y-91330000D01*
X152214284Y-91330000D02*
X152261903Y-91282380D01*
X152261903Y-91282380D02*
X152309522Y-91187142D01*
X152309522Y-91187142D02*
X152309522Y-90901428D01*
X152309522Y-90901428D02*
X152261903Y-90806190D01*
X152261903Y-90806190D02*
X152214284Y-90758571D01*
X152214284Y-90758571D02*
X152119046Y-90710952D01*
X152119046Y-90710952D02*
X151976189Y-90710952D01*
X151976189Y-90710952D02*
X151880951Y-90758571D01*
X151880951Y-90758571D02*
X151833332Y-90806190D01*
X151833332Y-90806190D02*
X151785713Y-90901428D01*
X151785713Y-90901428D02*
X151785713Y-91187142D01*
X151785713Y-91187142D02*
X151833332Y-91282380D01*
X151833332Y-91282380D02*
X151880951Y-91330000D01*
X151880951Y-91330000D02*
X151976189Y-91377619D01*
X151976189Y-91377619D02*
X152119046Y-91377619D01*
X151499998Y-90710952D02*
X151119046Y-90710952D01*
X151357141Y-91377619D02*
X151357141Y-90520476D01*
X151357141Y-90520476D02*
X151309522Y-90425238D01*
X151309522Y-90425238D02*
X151214284Y-90377619D01*
X151214284Y-90377619D02*
X151119046Y-90377619D01*
X150785712Y-91377619D02*
X150785712Y-90710952D01*
X150785712Y-90377619D02*
X150833331Y-90425238D01*
X150833331Y-90425238D02*
X150785712Y-90472857D01*
X150785712Y-90472857D02*
X150738093Y-90425238D01*
X150738093Y-90425238D02*
X150785712Y-90377619D01*
X150785712Y-90377619D02*
X150785712Y-90472857D01*
X150452379Y-90710952D02*
X150071427Y-90710952D01*
X150309522Y-90377619D02*
X150309522Y-91234761D01*
X150309522Y-91234761D02*
X150261903Y-91330000D01*
X150261903Y-91330000D02*
X150166665Y-91377619D01*
X150166665Y-91377619D02*
X150071427Y-91377619D01*
X153785714Y-104257619D02*
X154261904Y-104257619D01*
X154261904Y-104257619D02*
X154261904Y-103257619D01*
X153452380Y-103733809D02*
X153119047Y-103733809D01*
X152976190Y-104257619D02*
X153452380Y-104257619D01*
X153452380Y-104257619D02*
X153452380Y-103257619D01*
X153452380Y-103257619D02*
X152976190Y-103257619D01*
X152547618Y-104257619D02*
X152547618Y-103257619D01*
X152547618Y-103257619D02*
X152309523Y-103257619D01*
X152309523Y-103257619D02*
X152166666Y-103305238D01*
X152166666Y-103305238D02*
X152071428Y-103400476D01*
X152071428Y-103400476D02*
X152023809Y-103495714D01*
X152023809Y-103495714D02*
X151976190Y-103686190D01*
X151976190Y-103686190D02*
X151976190Y-103829047D01*
X151976190Y-103829047D02*
X152023809Y-104019523D01*
X152023809Y-104019523D02*
X152071428Y-104114761D01*
X152071428Y-104114761D02*
X152166666Y-104210000D01*
X152166666Y-104210000D02*
X152309523Y-104257619D01*
X152309523Y-104257619D02*
X152547618Y-104257619D01*
X150642856Y-104257619D02*
X150738094Y-104210000D01*
X150738094Y-104210000D02*
X150785713Y-104162380D01*
X150785713Y-104162380D02*
X150833332Y-104067142D01*
X150833332Y-104067142D02*
X150833332Y-103781428D01*
X150833332Y-103781428D02*
X150785713Y-103686190D01*
X150785713Y-103686190D02*
X150738094Y-103638571D01*
X150738094Y-103638571D02*
X150642856Y-103590952D01*
X150642856Y-103590952D02*
X150499999Y-103590952D01*
X150499999Y-103590952D02*
X150404761Y-103638571D01*
X150404761Y-103638571D02*
X150357142Y-103686190D01*
X150357142Y-103686190D02*
X150309523Y-103781428D01*
X150309523Y-103781428D02*
X150309523Y-104067142D01*
X150309523Y-104067142D02*
X150357142Y-104162380D01*
X150357142Y-104162380D02*
X150404761Y-104210000D01*
X150404761Y-104210000D02*
X150499999Y-104257619D01*
X150499999Y-104257619D02*
X150642856Y-104257619D01*
X149880951Y-104257619D02*
X149880951Y-103590952D01*
X149880951Y-103781428D02*
X149833332Y-103686190D01*
X149833332Y-103686190D02*
X149785713Y-103638571D01*
X149785713Y-103638571D02*
X149690475Y-103590952D01*
X149690475Y-103590952D02*
X149595237Y-103590952D01*
X149261903Y-104257619D02*
X149261903Y-103590952D01*
X149261903Y-103257619D02*
X149309522Y-103305238D01*
X149309522Y-103305238D02*
X149261903Y-103352857D01*
X149261903Y-103352857D02*
X149214284Y-103305238D01*
X149214284Y-103305238D02*
X149261903Y-103257619D01*
X149261903Y-103257619D02*
X149261903Y-103352857D01*
X148404761Y-104210000D02*
X148499999Y-104257619D01*
X148499999Y-104257619D02*
X148690475Y-104257619D01*
X148690475Y-104257619D02*
X148785713Y-104210000D01*
X148785713Y-104210000D02*
X148833332Y-104114761D01*
X148833332Y-104114761D02*
X148833332Y-103733809D01*
X148833332Y-103733809D02*
X148785713Y-103638571D01*
X148785713Y-103638571D02*
X148690475Y-103590952D01*
X148690475Y-103590952D02*
X148499999Y-103590952D01*
X148499999Y-103590952D02*
X148404761Y-103638571D01*
X148404761Y-103638571D02*
X148357142Y-103733809D01*
X148357142Y-103733809D02*
X148357142Y-103829047D01*
X148357142Y-103829047D02*
X148833332Y-103924285D01*
X147928570Y-103590952D02*
X147928570Y-104257619D01*
X147928570Y-103686190D02*
X147880951Y-103638571D01*
X147880951Y-103638571D02*
X147785713Y-103590952D01*
X147785713Y-103590952D02*
X147642856Y-103590952D01*
X147642856Y-103590952D02*
X147547618Y-103638571D01*
X147547618Y-103638571D02*
X147499999Y-103733809D01*
X147499999Y-103733809D02*
X147499999Y-104257619D01*
X147166665Y-103590952D02*
X146785713Y-103590952D01*
X147023808Y-103257619D02*
X147023808Y-104114761D01*
X147023808Y-104114761D02*
X146976189Y-104210000D01*
X146976189Y-104210000D02*
X146880951Y-104257619D01*
X146880951Y-104257619D02*
X146785713Y-104257619D01*
X146023808Y-104257619D02*
X146023808Y-103733809D01*
X146023808Y-103733809D02*
X146071427Y-103638571D01*
X146071427Y-103638571D02*
X146166665Y-103590952D01*
X146166665Y-103590952D02*
X146357141Y-103590952D01*
X146357141Y-103590952D02*
X146452379Y-103638571D01*
X146023808Y-104210000D02*
X146119046Y-104257619D01*
X146119046Y-104257619D02*
X146357141Y-104257619D01*
X146357141Y-104257619D02*
X146452379Y-104210000D01*
X146452379Y-104210000D02*
X146499998Y-104114761D01*
X146499998Y-104114761D02*
X146499998Y-104019523D01*
X146499998Y-104019523D02*
X146452379Y-103924285D01*
X146452379Y-103924285D02*
X146357141Y-103876666D01*
X146357141Y-103876666D02*
X146119046Y-103876666D01*
X146119046Y-103876666D02*
X146023808Y-103829047D01*
X145690474Y-103590952D02*
X145309522Y-103590952D01*
X145547617Y-103257619D02*
X145547617Y-104114761D01*
X145547617Y-104114761D02*
X145499998Y-104210000D01*
X145499998Y-104210000D02*
X145404760Y-104257619D01*
X145404760Y-104257619D02*
X145309522Y-104257619D01*
X144976188Y-104257619D02*
X144976188Y-103590952D01*
X144976188Y-103257619D02*
X145023807Y-103305238D01*
X145023807Y-103305238D02*
X144976188Y-103352857D01*
X144976188Y-103352857D02*
X144928569Y-103305238D01*
X144928569Y-103305238D02*
X144976188Y-103257619D01*
X144976188Y-103257619D02*
X144976188Y-103352857D01*
X144357141Y-104257619D02*
X144452379Y-104210000D01*
X144452379Y-104210000D02*
X144499998Y-104162380D01*
X144499998Y-104162380D02*
X144547617Y-104067142D01*
X144547617Y-104067142D02*
X144547617Y-103781428D01*
X144547617Y-103781428D02*
X144499998Y-103686190D01*
X144499998Y-103686190D02*
X144452379Y-103638571D01*
X144452379Y-103638571D02*
X144357141Y-103590952D01*
X144357141Y-103590952D02*
X144214284Y-103590952D01*
X144214284Y-103590952D02*
X144119046Y-103638571D01*
X144119046Y-103638571D02*
X144071427Y-103686190D01*
X144071427Y-103686190D02*
X144023808Y-103781428D01*
X144023808Y-103781428D02*
X144023808Y-104067142D01*
X144023808Y-104067142D02*
X144071427Y-104162380D01*
X144071427Y-104162380D02*
X144119046Y-104210000D01*
X144119046Y-104210000D02*
X144214284Y-104257619D01*
X144214284Y-104257619D02*
X144357141Y-104257619D01*
X143595236Y-103590952D02*
X143595236Y-104257619D01*
X143595236Y-103686190D02*
X143547617Y-103638571D01*
X143547617Y-103638571D02*
X143452379Y-103590952D01*
X143452379Y-103590952D02*
X143309522Y-103590952D01*
X143309522Y-103590952D02*
X143214284Y-103638571D01*
X143214284Y-103638571D02*
X143166665Y-103733809D01*
X143166665Y-103733809D02*
X143166665Y-104257619D01*
X141928569Y-104257619D02*
X141928569Y-103590952D01*
X141928569Y-103686190D02*
X141880950Y-103638571D01*
X141880950Y-103638571D02*
X141785712Y-103590952D01*
X141785712Y-103590952D02*
X141642855Y-103590952D01*
X141642855Y-103590952D02*
X141547617Y-103638571D01*
X141547617Y-103638571D02*
X141499998Y-103733809D01*
X141499998Y-103733809D02*
X141499998Y-104257619D01*
X141499998Y-103733809D02*
X141452379Y-103638571D01*
X141452379Y-103638571D02*
X141357141Y-103590952D01*
X141357141Y-103590952D02*
X141214284Y-103590952D01*
X141214284Y-103590952D02*
X141119045Y-103638571D01*
X141119045Y-103638571D02*
X141071426Y-103733809D01*
X141071426Y-103733809D02*
X141071426Y-104257619D01*
X140166665Y-104257619D02*
X140166665Y-103733809D01*
X140166665Y-103733809D02*
X140214284Y-103638571D01*
X140214284Y-103638571D02*
X140309522Y-103590952D01*
X140309522Y-103590952D02*
X140499998Y-103590952D01*
X140499998Y-103590952D02*
X140595236Y-103638571D01*
X140166665Y-104210000D02*
X140261903Y-104257619D01*
X140261903Y-104257619D02*
X140499998Y-104257619D01*
X140499998Y-104257619D02*
X140595236Y-104210000D01*
X140595236Y-104210000D02*
X140642855Y-104114761D01*
X140642855Y-104114761D02*
X140642855Y-104019523D01*
X140642855Y-104019523D02*
X140595236Y-103924285D01*
X140595236Y-103924285D02*
X140499998Y-103876666D01*
X140499998Y-103876666D02*
X140261903Y-103876666D01*
X140261903Y-103876666D02*
X140166665Y-103829047D01*
X139833331Y-103590952D02*
X139452379Y-103590952D01*
X139690474Y-103257619D02*
X139690474Y-104114761D01*
X139690474Y-104114761D02*
X139642855Y-104210000D01*
X139642855Y-104210000D02*
X139547617Y-104257619D01*
X139547617Y-104257619D02*
X139452379Y-104257619D01*
X139261902Y-103590952D02*
X138880950Y-103590952D01*
X139119045Y-103257619D02*
X139119045Y-104114761D01*
X139119045Y-104114761D02*
X139071426Y-104210000D01*
X139071426Y-104210000D02*
X138976188Y-104257619D01*
X138976188Y-104257619D02*
X138880950Y-104257619D01*
X138166664Y-104210000D02*
X138261902Y-104257619D01*
X138261902Y-104257619D02*
X138452378Y-104257619D01*
X138452378Y-104257619D02*
X138547616Y-104210000D01*
X138547616Y-104210000D02*
X138595235Y-104114761D01*
X138595235Y-104114761D02*
X138595235Y-103733809D01*
X138595235Y-103733809D02*
X138547616Y-103638571D01*
X138547616Y-103638571D02*
X138452378Y-103590952D01*
X138452378Y-103590952D02*
X138261902Y-103590952D01*
X138261902Y-103590952D02*
X138166664Y-103638571D01*
X138166664Y-103638571D02*
X138119045Y-103733809D01*
X138119045Y-103733809D02*
X138119045Y-103829047D01*
X138119045Y-103829047D02*
X138595235Y-103924285D01*
X137690473Y-104257619D02*
X137690473Y-103590952D01*
X137690473Y-103781428D02*
X137642854Y-103686190D01*
X137642854Y-103686190D02*
X137595235Y-103638571D01*
X137595235Y-103638571D02*
X137499997Y-103590952D01*
X137499997Y-103590952D02*
X137404759Y-103590952D01*
X137119044Y-104210000D02*
X137023806Y-104257619D01*
X137023806Y-104257619D02*
X136833330Y-104257619D01*
X136833330Y-104257619D02*
X136738092Y-104210000D01*
X136738092Y-104210000D02*
X136690473Y-104114761D01*
X136690473Y-104114761D02*
X136690473Y-104067142D01*
X136690473Y-104067142D02*
X136738092Y-103971904D01*
X136738092Y-103971904D02*
X136833330Y-103924285D01*
X136833330Y-103924285D02*
X136976187Y-103924285D01*
X136976187Y-103924285D02*
X137071425Y-103876666D01*
X137071425Y-103876666D02*
X137119044Y-103781428D01*
X137119044Y-103781428D02*
X137119044Y-103733809D01*
X137119044Y-103733809D02*
X137071425Y-103638571D01*
X137071425Y-103638571D02*
X136976187Y-103590952D01*
X136976187Y-103590952D02*
X136833330Y-103590952D01*
X136833330Y-103590952D02*
X136738092Y-103638571D01*
X136261901Y-104162380D02*
X136214282Y-104210000D01*
X136214282Y-104210000D02*
X136261901Y-104257619D01*
X136261901Y-104257619D02*
X136309520Y-104210000D01*
X136309520Y-104210000D02*
X136261901Y-104162380D01*
X136261901Y-104162380D02*
X136261901Y-104257619D01*
X136261901Y-103876666D02*
X136309520Y-103305238D01*
X136309520Y-103305238D02*
X136261901Y-103257619D01*
X136261901Y-103257619D02*
X136214282Y-103305238D01*
X136214282Y-103305238D02*
X136261901Y-103876666D01*
X136261901Y-103876666D02*
X136261901Y-103257619D01*
X154309523Y-105830000D02*
X154214285Y-105877619D01*
X154214285Y-105877619D02*
X154023809Y-105877619D01*
X154023809Y-105877619D02*
X153928571Y-105830000D01*
X153928571Y-105830000D02*
X153880952Y-105734761D01*
X153880952Y-105734761D02*
X153880952Y-105687142D01*
X153880952Y-105687142D02*
X153928571Y-105591904D01*
X153928571Y-105591904D02*
X154023809Y-105544285D01*
X154023809Y-105544285D02*
X154166666Y-105544285D01*
X154166666Y-105544285D02*
X154261904Y-105496666D01*
X154261904Y-105496666D02*
X154309523Y-105401428D01*
X154309523Y-105401428D02*
X154309523Y-105353809D01*
X154309523Y-105353809D02*
X154261904Y-105258571D01*
X154261904Y-105258571D02*
X154166666Y-105210952D01*
X154166666Y-105210952D02*
X154023809Y-105210952D01*
X154023809Y-105210952D02*
X153928571Y-105258571D01*
X153023809Y-105210952D02*
X153023809Y-106210952D01*
X153023809Y-105830000D02*
X153119047Y-105877619D01*
X153119047Y-105877619D02*
X153309523Y-105877619D01*
X153309523Y-105877619D02*
X153404761Y-105830000D01*
X153404761Y-105830000D02*
X153452380Y-105782380D01*
X153452380Y-105782380D02*
X153499999Y-105687142D01*
X153499999Y-105687142D02*
X153499999Y-105401428D01*
X153499999Y-105401428D02*
X153452380Y-105306190D01*
X153452380Y-105306190D02*
X153404761Y-105258571D01*
X153404761Y-105258571D02*
X153309523Y-105210952D01*
X153309523Y-105210952D02*
X153119047Y-105210952D01*
X153119047Y-105210952D02*
X153023809Y-105258571D01*
X152119047Y-105210952D02*
X152119047Y-105877619D01*
X152547618Y-105210952D02*
X152547618Y-105734761D01*
X152547618Y-105734761D02*
X152499999Y-105830000D01*
X152499999Y-105830000D02*
X152404761Y-105877619D01*
X152404761Y-105877619D02*
X152261904Y-105877619D01*
X152261904Y-105877619D02*
X152166666Y-105830000D01*
X152166666Y-105830000D02*
X152119047Y-105782380D01*
X151214285Y-105877619D02*
X151214285Y-105353809D01*
X151214285Y-105353809D02*
X151261904Y-105258571D01*
X151261904Y-105258571D02*
X151357142Y-105210952D01*
X151357142Y-105210952D02*
X151547618Y-105210952D01*
X151547618Y-105210952D02*
X151642856Y-105258571D01*
X151214285Y-105830000D02*
X151309523Y-105877619D01*
X151309523Y-105877619D02*
X151547618Y-105877619D01*
X151547618Y-105877619D02*
X151642856Y-105830000D01*
X151642856Y-105830000D02*
X151690475Y-105734761D01*
X151690475Y-105734761D02*
X151690475Y-105639523D01*
X151690475Y-105639523D02*
X151642856Y-105544285D01*
X151642856Y-105544285D02*
X151547618Y-105496666D01*
X151547618Y-105496666D02*
X151309523Y-105496666D01*
X151309523Y-105496666D02*
X151214285Y-105449047D01*
X150738094Y-105877619D02*
X150738094Y-105210952D01*
X150738094Y-105401428D02*
X150690475Y-105306190D01*
X150690475Y-105306190D02*
X150642856Y-105258571D01*
X150642856Y-105258571D02*
X150547618Y-105210952D01*
X150547618Y-105210952D02*
X150452380Y-105210952D01*
X149738094Y-105830000D02*
X149833332Y-105877619D01*
X149833332Y-105877619D02*
X150023808Y-105877619D01*
X150023808Y-105877619D02*
X150119046Y-105830000D01*
X150119046Y-105830000D02*
X150166665Y-105734761D01*
X150166665Y-105734761D02*
X150166665Y-105353809D01*
X150166665Y-105353809D02*
X150119046Y-105258571D01*
X150119046Y-105258571D02*
X150023808Y-105210952D01*
X150023808Y-105210952D02*
X149833332Y-105210952D01*
X149833332Y-105210952D02*
X149738094Y-105258571D01*
X149738094Y-105258571D02*
X149690475Y-105353809D01*
X149690475Y-105353809D02*
X149690475Y-105449047D01*
X149690475Y-105449047D02*
X150166665Y-105544285D01*
X148499998Y-105877619D02*
X148499998Y-104877619D01*
X148071427Y-105877619D02*
X148071427Y-105353809D01*
X148071427Y-105353809D02*
X148119046Y-105258571D01*
X148119046Y-105258571D02*
X148214284Y-105210952D01*
X148214284Y-105210952D02*
X148357141Y-105210952D01*
X148357141Y-105210952D02*
X148452379Y-105258571D01*
X148452379Y-105258571D02*
X148499998Y-105306190D01*
X147452379Y-105877619D02*
X147547617Y-105830000D01*
X147547617Y-105830000D02*
X147595236Y-105782380D01*
X147595236Y-105782380D02*
X147642855Y-105687142D01*
X147642855Y-105687142D02*
X147642855Y-105401428D01*
X147642855Y-105401428D02*
X147595236Y-105306190D01*
X147595236Y-105306190D02*
X147547617Y-105258571D01*
X147547617Y-105258571D02*
X147452379Y-105210952D01*
X147452379Y-105210952D02*
X147309522Y-105210952D01*
X147309522Y-105210952D02*
X147214284Y-105258571D01*
X147214284Y-105258571D02*
X147166665Y-105306190D01*
X147166665Y-105306190D02*
X147119046Y-105401428D01*
X147119046Y-105401428D02*
X147119046Y-105687142D01*
X147119046Y-105687142D02*
X147166665Y-105782380D01*
X147166665Y-105782380D02*
X147214284Y-105830000D01*
X147214284Y-105830000D02*
X147309522Y-105877619D01*
X147309522Y-105877619D02*
X147452379Y-105877619D01*
X146547617Y-105877619D02*
X146642855Y-105830000D01*
X146642855Y-105830000D02*
X146690474Y-105734761D01*
X146690474Y-105734761D02*
X146690474Y-104877619D01*
X145785712Y-105830000D02*
X145880950Y-105877619D01*
X145880950Y-105877619D02*
X146071426Y-105877619D01*
X146071426Y-105877619D02*
X146166664Y-105830000D01*
X146166664Y-105830000D02*
X146214283Y-105734761D01*
X146214283Y-105734761D02*
X146214283Y-105353809D01*
X146214283Y-105353809D02*
X146166664Y-105258571D01*
X146166664Y-105258571D02*
X146071426Y-105210952D01*
X146071426Y-105210952D02*
X145880950Y-105210952D01*
X145880950Y-105210952D02*
X145785712Y-105258571D01*
X145785712Y-105258571D02*
X145738093Y-105353809D01*
X145738093Y-105353809D02*
X145738093Y-105449047D01*
X145738093Y-105449047D02*
X146214283Y-105544285D01*
X144547616Y-105496666D02*
X143785712Y-105496666D01*
X143309521Y-105210952D02*
X142547617Y-105496666D01*
X142547617Y-105496666D02*
X143309521Y-105782380D01*
X141357140Y-105830000D02*
X141261902Y-105877619D01*
X141261902Y-105877619D02*
X141071426Y-105877619D01*
X141071426Y-105877619D02*
X140976188Y-105830000D01*
X140976188Y-105830000D02*
X140928569Y-105734761D01*
X140928569Y-105734761D02*
X140928569Y-105687142D01*
X140928569Y-105687142D02*
X140976188Y-105591904D01*
X140976188Y-105591904D02*
X141071426Y-105544285D01*
X141071426Y-105544285D02*
X141214283Y-105544285D01*
X141214283Y-105544285D02*
X141309521Y-105496666D01*
X141309521Y-105496666D02*
X141357140Y-105401428D01*
X141357140Y-105401428D02*
X141357140Y-105353809D01*
X141357140Y-105353809D02*
X141309521Y-105258571D01*
X141309521Y-105258571D02*
X141214283Y-105210952D01*
X141214283Y-105210952D02*
X141071426Y-105210952D01*
X141071426Y-105210952D02*
X140976188Y-105258571D01*
X140499997Y-105877619D02*
X140499997Y-104877619D01*
X140071426Y-105877619D02*
X140071426Y-105353809D01*
X140071426Y-105353809D02*
X140119045Y-105258571D01*
X140119045Y-105258571D02*
X140214283Y-105210952D01*
X140214283Y-105210952D02*
X140357140Y-105210952D01*
X140357140Y-105210952D02*
X140452378Y-105258571D01*
X140452378Y-105258571D02*
X140499997Y-105306190D01*
X139452378Y-105877619D02*
X139547616Y-105830000D01*
X139547616Y-105830000D02*
X139595235Y-105782380D01*
X139595235Y-105782380D02*
X139642854Y-105687142D01*
X139642854Y-105687142D02*
X139642854Y-105401428D01*
X139642854Y-105401428D02*
X139595235Y-105306190D01*
X139595235Y-105306190D02*
X139547616Y-105258571D01*
X139547616Y-105258571D02*
X139452378Y-105210952D01*
X139452378Y-105210952D02*
X139309521Y-105210952D01*
X139309521Y-105210952D02*
X139214283Y-105258571D01*
X139214283Y-105258571D02*
X139166664Y-105306190D01*
X139166664Y-105306190D02*
X139119045Y-105401428D01*
X139119045Y-105401428D02*
X139119045Y-105687142D01*
X139119045Y-105687142D02*
X139166664Y-105782380D01*
X139166664Y-105782380D02*
X139214283Y-105830000D01*
X139214283Y-105830000D02*
X139309521Y-105877619D01*
X139309521Y-105877619D02*
X139452378Y-105877619D01*
X138690473Y-105877619D02*
X138690473Y-105210952D01*
X138690473Y-105401428D02*
X138642854Y-105306190D01*
X138642854Y-105306190D02*
X138595235Y-105258571D01*
X138595235Y-105258571D02*
X138499997Y-105210952D01*
X138499997Y-105210952D02*
X138404759Y-105210952D01*
X138214282Y-105210952D02*
X137833330Y-105210952D01*
X138071425Y-104877619D02*
X138071425Y-105734761D01*
X138071425Y-105734761D02*
X138023806Y-105830000D01*
X138023806Y-105830000D02*
X137928568Y-105877619D01*
X137928568Y-105877619D02*
X137833330Y-105877619D01*
X136595234Y-105877619D02*
X136690472Y-105830000D01*
X136690472Y-105830000D02*
X136738091Y-105734761D01*
X136738091Y-105734761D02*
X136738091Y-104877619D01*
X135833329Y-105830000D02*
X135928567Y-105877619D01*
X135928567Y-105877619D02*
X136119043Y-105877619D01*
X136119043Y-105877619D02*
X136214281Y-105830000D01*
X136214281Y-105830000D02*
X136261900Y-105734761D01*
X136261900Y-105734761D02*
X136261900Y-105353809D01*
X136261900Y-105353809D02*
X136214281Y-105258571D01*
X136214281Y-105258571D02*
X136119043Y-105210952D01*
X136119043Y-105210952D02*
X135928567Y-105210952D01*
X135928567Y-105210952D02*
X135833329Y-105258571D01*
X135833329Y-105258571D02*
X135785710Y-105353809D01*
X135785710Y-105353809D02*
X135785710Y-105449047D01*
X135785710Y-105449047D02*
X136261900Y-105544285D01*
X134928567Y-105877619D02*
X134928567Y-105353809D01*
X134928567Y-105353809D02*
X134976186Y-105258571D01*
X134976186Y-105258571D02*
X135071424Y-105210952D01*
X135071424Y-105210952D02*
X135261900Y-105210952D01*
X135261900Y-105210952D02*
X135357138Y-105258571D01*
X134928567Y-105830000D02*
X135023805Y-105877619D01*
X135023805Y-105877619D02*
X135261900Y-105877619D01*
X135261900Y-105877619D02*
X135357138Y-105830000D01*
X135357138Y-105830000D02*
X135404757Y-105734761D01*
X135404757Y-105734761D02*
X135404757Y-105639523D01*
X135404757Y-105639523D02*
X135357138Y-105544285D01*
X135357138Y-105544285D02*
X135261900Y-105496666D01*
X135261900Y-105496666D02*
X135023805Y-105496666D01*
X135023805Y-105496666D02*
X134928567Y-105449047D01*
X134023805Y-105877619D02*
X134023805Y-104877619D01*
X134023805Y-105830000D02*
X134119043Y-105877619D01*
X134119043Y-105877619D02*
X134309519Y-105877619D01*
X134309519Y-105877619D02*
X134404757Y-105830000D01*
X134404757Y-105830000D02*
X134452376Y-105782380D01*
X134452376Y-105782380D02*
X134499995Y-105687142D01*
X134499995Y-105687142D02*
X134499995Y-105401428D01*
X134499995Y-105401428D02*
X134452376Y-105306190D01*
X134452376Y-105306190D02*
X134404757Y-105258571D01*
X134404757Y-105258571D02*
X134309519Y-105210952D01*
X134309519Y-105210952D02*
X134119043Y-105210952D01*
X134119043Y-105210952D02*
X134023805Y-105258571D01*
%TO.C,BT2*%
X151655000Y-60025333D02*
X151455000Y-60092000D01*
X151455000Y-60092000D02*
X151388333Y-60158666D01*
X151388333Y-60158666D02*
X151321666Y-60292000D01*
X151321666Y-60292000D02*
X151321666Y-60492000D01*
X151321666Y-60492000D02*
X151388333Y-60625333D01*
X151388333Y-60625333D02*
X151455000Y-60692000D01*
X151455000Y-60692000D02*
X151588333Y-60758666D01*
X151588333Y-60758666D02*
X152121666Y-60758666D01*
X152121666Y-60758666D02*
X152121666Y-59358666D01*
X152121666Y-59358666D02*
X151655000Y-59358666D01*
X151655000Y-59358666D02*
X151521666Y-59425333D01*
X151521666Y-59425333D02*
X151455000Y-59492000D01*
X151455000Y-59492000D02*
X151388333Y-59625333D01*
X151388333Y-59625333D02*
X151388333Y-59758666D01*
X151388333Y-59758666D02*
X151455000Y-59892000D01*
X151455000Y-59892000D02*
X151521666Y-59958666D01*
X151521666Y-59958666D02*
X151655000Y-60025333D01*
X151655000Y-60025333D02*
X152121666Y-60025333D01*
X150921666Y-59358666D02*
X150121666Y-59358666D01*
X150521666Y-60758666D02*
X150521666Y-59358666D01*
X149721666Y-59492000D02*
X149654999Y-59425333D01*
X149654999Y-59425333D02*
X149521666Y-59358666D01*
X149521666Y-59358666D02*
X149188333Y-59358666D01*
X149188333Y-59358666D02*
X149054999Y-59425333D01*
X149054999Y-59425333D02*
X148988333Y-59492000D01*
X148988333Y-59492000D02*
X148921666Y-59625333D01*
X148921666Y-59625333D02*
X148921666Y-59758666D01*
X148921666Y-59758666D02*
X148988333Y-59958666D01*
X148988333Y-59958666D02*
X149788333Y-60758666D01*
X149788333Y-60758666D02*
X148921666Y-60758666D01*
%TO.C,JP1*%
X146108333Y-39162619D02*
X146108333Y-39876904D01*
X146108333Y-39876904D02*
X146155952Y-40019761D01*
X146155952Y-40019761D02*
X146251190Y-40115000D01*
X146251190Y-40115000D02*
X146394047Y-40162619D01*
X146394047Y-40162619D02*
X146489285Y-40162619D01*
X145632142Y-40162619D02*
X145632142Y-39162619D01*
X145632142Y-39162619D02*
X145251190Y-39162619D01*
X145251190Y-39162619D02*
X145155952Y-39210238D01*
X145155952Y-39210238D02*
X145108333Y-39257857D01*
X145108333Y-39257857D02*
X145060714Y-39353095D01*
X145060714Y-39353095D02*
X145060714Y-39495952D01*
X145060714Y-39495952D02*
X145108333Y-39591190D01*
X145108333Y-39591190D02*
X145155952Y-39638809D01*
X145155952Y-39638809D02*
X145251190Y-39686428D01*
X145251190Y-39686428D02*
X145632142Y-39686428D01*
X144108333Y-40162619D02*
X144679761Y-40162619D01*
X144394047Y-40162619D02*
X144394047Y-39162619D01*
X144394047Y-39162619D02*
X144489285Y-39305476D01*
X144489285Y-39305476D02*
X144584523Y-39400714D01*
X144584523Y-39400714D02*
X144679761Y-39448333D01*
D11*
%TO.C,BT2*%
X155050000Y-78500000D02*
X150000000Y-78500000D01*
X155050000Y-73570000D02*
X155050000Y-78500000D01*
X155050000Y-67530000D02*
X155050000Y-63000000D01*
X155050000Y-63000000D02*
X150500000Y-63000000D01*
X139000000Y-78500000D02*
X133950000Y-78500000D01*
X138500000Y-63000000D02*
X133950000Y-63000000D01*
X133950000Y-78500000D02*
X133950000Y-73570000D01*
X133950000Y-63000000D02*
X133950000Y-67530000D01*
D12*
%TO.C,JP1*%
X146675000Y-42500000D02*
X146675000Y-40500000D01*
X146675000Y-40500000D02*
X143875000Y-40500000D01*
X143875000Y-42500000D02*
X146675000Y-42500000D01*
X143875000Y-40500000D02*
X143875000Y-42500000D01*
%TD*%
%LPC*%
D13*
%TO.C,REF\u002A\u002A*%
X119000000Y-43000000D03*
%TD*%
D14*
%TO.C,U1*%
X177000000Y-90100000D03*
X177000000Y-81900000D03*
D15*
X177000000Y-88000000D03*
X177000000Y-86000000D03*
X177000000Y-84000000D03*
%TD*%
D16*
%TO.C,BT2*%
X144500000Y-70500000D03*
D17*
X154900000Y-69000000D03*
X154900000Y-72100000D03*
X134100000Y-72100000D03*
X134100000Y-69000000D03*
%TD*%
D18*
%TO.C,JP1*%
X146000000Y-41500000D03*
D19*
X144550000Y-41500000D03*
%TD*%
D20*
%TO.C,D2*%
X161460000Y-52500000D03*
D21*
X164000000Y-52500000D03*
%TD*%
D20*
%TO.C,D3*%
X144500000Y-95500000D03*
D21*
X147040000Y-95500000D03*
%TD*%
D20*
%TO.C,D1*%
X125460000Y-51500000D03*
D21*
X128000000Y-51500000D03*
%TD*%
%LPD*%
M02*
