%TF.GenerationSoftware,KiCad,Pcbnew,7.0.2*%
%TF.CreationDate,2023-06-01T22:42:41-04:00*%
%TF.ProjectId,sectr-soldering-kit,73656374-722d-4736-9f6c-646572696e67,rev?*%
%TF.SameCoordinates,Original*%
%TF.FileFunction,Drillmap*%
%TF.FilePolarity,Positive*%
%FSLAX45Y45*%
G04 Gerber Fmt 4.5, Leading zero omitted, Abs format (unit mm)*
G04 Created by KiCad (PCBNEW 7.0.2) date 2023-06-01 22:42:41*
%MOMM*%
%LPD*%
G01*
G04 APERTURE LIST*
%ADD10C,0.150000*%
%ADD11C,0.200000*%
%ADD12C,0.530000*%
G04 APERTURE END LIST*
D10*
X18100000Y-12900000D02*
X18100000Y-4500000D01*
X17300000Y-13700000D02*
X18100000Y-12900000D01*
X17300000Y-13700000D02*
X11650000Y-13700000D01*
X11650000Y-3700000D02*
X17300000Y-3700000D01*
X10850000Y-4500000D02*
X11650000Y-3700000D01*
X11650000Y-13700000D02*
X10850000Y-12900000D01*
X18100000Y-4500000D02*
X17300000Y-3700000D01*
X10850000Y-12900000D02*
X10850000Y-4500000D01*
D11*
D12*
X11635000Y-4035000D02*
X12165000Y-4565000D01*
X12165000Y-4035000D02*
X11635000Y-4565000D01*
D11*
X11090119Y-14020024D02*
X11090119Y-13820024D01*
X11090119Y-13820024D02*
X11137738Y-13820024D01*
X11137738Y-13820024D02*
X11166310Y-13829548D01*
X11166310Y-13829548D02*
X11185357Y-13848595D01*
X11185357Y-13848595D02*
X11194881Y-13867643D01*
X11194881Y-13867643D02*
X11204405Y-13905738D01*
X11204405Y-13905738D02*
X11204405Y-13934309D01*
X11204405Y-13934309D02*
X11194881Y-13972405D01*
X11194881Y-13972405D02*
X11185357Y-13991452D01*
X11185357Y-13991452D02*
X11166310Y-14010500D01*
X11166310Y-14010500D02*
X11137738Y-14020024D01*
X11137738Y-14020024D02*
X11090119Y-14020024D01*
X11290119Y-14020024D02*
X11290119Y-13886690D01*
X11290119Y-13924786D02*
X11299643Y-13905738D01*
X11299643Y-13905738D02*
X11309167Y-13896214D01*
X11309167Y-13896214D02*
X11328214Y-13886690D01*
X11328214Y-13886690D02*
X11347262Y-13886690D01*
X11413928Y-14020024D02*
X11413928Y-13886690D01*
X11413928Y-13820024D02*
X11404405Y-13829548D01*
X11404405Y-13829548D02*
X11413928Y-13839071D01*
X11413928Y-13839071D02*
X11423452Y-13829548D01*
X11423452Y-13829548D02*
X11413928Y-13820024D01*
X11413928Y-13820024D02*
X11413928Y-13839071D01*
X11537738Y-14020024D02*
X11518690Y-14010500D01*
X11518690Y-14010500D02*
X11509167Y-13991452D01*
X11509167Y-13991452D02*
X11509167Y-13820024D01*
X11642500Y-14020024D02*
X11623452Y-14010500D01*
X11623452Y-14010500D02*
X11613928Y-13991452D01*
X11613928Y-13991452D02*
X11613928Y-13820024D01*
X11871071Y-14020024D02*
X11871071Y-13820024D01*
X11871071Y-13820024D02*
X11937738Y-13962881D01*
X11937738Y-13962881D02*
X12004405Y-13820024D01*
X12004405Y-13820024D02*
X12004405Y-14020024D01*
X12185357Y-14020024D02*
X12185357Y-13915262D01*
X12185357Y-13915262D02*
X12175833Y-13896214D01*
X12175833Y-13896214D02*
X12156786Y-13886690D01*
X12156786Y-13886690D02*
X12118690Y-13886690D01*
X12118690Y-13886690D02*
X12099643Y-13896214D01*
X12185357Y-14010500D02*
X12166309Y-14020024D01*
X12166309Y-14020024D02*
X12118690Y-14020024D01*
X12118690Y-14020024D02*
X12099643Y-14010500D01*
X12099643Y-14010500D02*
X12090119Y-13991452D01*
X12090119Y-13991452D02*
X12090119Y-13972405D01*
X12090119Y-13972405D02*
X12099643Y-13953357D01*
X12099643Y-13953357D02*
X12118690Y-13943833D01*
X12118690Y-13943833D02*
X12166309Y-13943833D01*
X12166309Y-13943833D02*
X12185357Y-13934309D01*
X12280595Y-13886690D02*
X12280595Y-14086690D01*
X12280595Y-13896214D02*
X12299643Y-13886690D01*
X12299643Y-13886690D02*
X12337738Y-13886690D01*
X12337738Y-13886690D02*
X12356786Y-13896214D01*
X12356786Y-13896214D02*
X12366309Y-13905738D01*
X12366309Y-13905738D02*
X12375833Y-13924786D01*
X12375833Y-13924786D02*
X12375833Y-13981928D01*
X12375833Y-13981928D02*
X12366309Y-14000976D01*
X12366309Y-14000976D02*
X12356786Y-14010500D01*
X12356786Y-14010500D02*
X12337738Y-14020024D01*
X12337738Y-14020024D02*
X12299643Y-14020024D01*
X12299643Y-14020024D02*
X12280595Y-14010500D01*
X12461548Y-14000976D02*
X12471071Y-14010500D01*
X12471071Y-14010500D02*
X12461548Y-14020024D01*
X12461548Y-14020024D02*
X12452024Y-14010500D01*
X12452024Y-14010500D02*
X12461548Y-14000976D01*
X12461548Y-14000976D02*
X12461548Y-14020024D01*
X12461548Y-13896214D02*
X12471071Y-13905738D01*
X12471071Y-13905738D02*
X12461548Y-13915262D01*
X12461548Y-13915262D02*
X12452024Y-13905738D01*
X12452024Y-13905738D02*
X12461548Y-13896214D01*
X12461548Y-13896214D02*
X12461548Y-13915262D01*
X10642500Y-14247500D02*
X10842500Y-14447500D01*
X10842500Y-14247500D02*
X10642500Y-14447500D01*
X11185357Y-14240024D02*
X11090119Y-14240024D01*
X11090119Y-14240024D02*
X11080595Y-14335262D01*
X11080595Y-14335262D02*
X11090119Y-14325738D01*
X11090119Y-14325738D02*
X11109167Y-14316214D01*
X11109167Y-14316214D02*
X11156786Y-14316214D01*
X11156786Y-14316214D02*
X11175833Y-14325738D01*
X11175833Y-14325738D02*
X11185357Y-14335262D01*
X11185357Y-14335262D02*
X11194881Y-14354309D01*
X11194881Y-14354309D02*
X11194881Y-14401928D01*
X11194881Y-14401928D02*
X11185357Y-14420976D01*
X11185357Y-14420976D02*
X11175833Y-14430500D01*
X11175833Y-14430500D02*
X11156786Y-14440024D01*
X11156786Y-14440024D02*
X11109167Y-14440024D01*
X11109167Y-14440024D02*
X11090119Y-14430500D01*
X11090119Y-14430500D02*
X11080595Y-14420976D01*
X11280595Y-14420976D02*
X11290119Y-14430500D01*
X11290119Y-14430500D02*
X11280595Y-14440024D01*
X11280595Y-14440024D02*
X11271071Y-14430500D01*
X11271071Y-14430500D02*
X11280595Y-14420976D01*
X11280595Y-14420976D02*
X11280595Y-14440024D01*
X11356786Y-14240024D02*
X11480595Y-14240024D01*
X11480595Y-14240024D02*
X11413928Y-14316214D01*
X11413928Y-14316214D02*
X11442500Y-14316214D01*
X11442500Y-14316214D02*
X11461548Y-14325738D01*
X11461548Y-14325738D02*
X11471071Y-14335262D01*
X11471071Y-14335262D02*
X11480595Y-14354309D01*
X11480595Y-14354309D02*
X11480595Y-14401928D01*
X11480595Y-14401928D02*
X11471071Y-14420976D01*
X11471071Y-14420976D02*
X11461548Y-14430500D01*
X11461548Y-14430500D02*
X11442500Y-14440024D01*
X11442500Y-14440024D02*
X11385357Y-14440024D01*
X11385357Y-14440024D02*
X11366309Y-14430500D01*
X11366309Y-14430500D02*
X11356786Y-14420976D01*
X11604405Y-14240024D02*
X11623452Y-14240024D01*
X11623452Y-14240024D02*
X11642500Y-14249548D01*
X11642500Y-14249548D02*
X11652024Y-14259071D01*
X11652024Y-14259071D02*
X11661548Y-14278119D01*
X11661548Y-14278119D02*
X11671071Y-14316214D01*
X11671071Y-14316214D02*
X11671071Y-14363833D01*
X11671071Y-14363833D02*
X11661548Y-14401928D01*
X11661548Y-14401928D02*
X11652024Y-14420976D01*
X11652024Y-14420976D02*
X11642500Y-14430500D01*
X11642500Y-14430500D02*
X11623452Y-14440024D01*
X11623452Y-14440024D02*
X11604405Y-14440024D01*
X11604405Y-14440024D02*
X11585357Y-14430500D01*
X11585357Y-14430500D02*
X11575833Y-14420976D01*
X11575833Y-14420976D02*
X11566309Y-14401928D01*
X11566309Y-14401928D02*
X11556786Y-14363833D01*
X11556786Y-14363833D02*
X11556786Y-14316214D01*
X11556786Y-14316214D02*
X11566309Y-14278119D01*
X11566309Y-14278119D02*
X11575833Y-14259071D01*
X11575833Y-14259071D02*
X11585357Y-14249548D01*
X11585357Y-14249548D02*
X11604405Y-14240024D01*
X11794881Y-14240024D02*
X11813929Y-14240024D01*
X11813929Y-14240024D02*
X11832976Y-14249548D01*
X11832976Y-14249548D02*
X11842500Y-14259071D01*
X11842500Y-14259071D02*
X11852024Y-14278119D01*
X11852024Y-14278119D02*
X11861548Y-14316214D01*
X11861548Y-14316214D02*
X11861548Y-14363833D01*
X11861548Y-14363833D02*
X11852024Y-14401928D01*
X11852024Y-14401928D02*
X11842500Y-14420976D01*
X11842500Y-14420976D02*
X11832976Y-14430500D01*
X11832976Y-14430500D02*
X11813929Y-14440024D01*
X11813929Y-14440024D02*
X11794881Y-14440024D01*
X11794881Y-14440024D02*
X11775833Y-14430500D01*
X11775833Y-14430500D02*
X11766309Y-14420976D01*
X11766309Y-14420976D02*
X11756786Y-14401928D01*
X11756786Y-14401928D02*
X11747262Y-14363833D01*
X11747262Y-14363833D02*
X11747262Y-14316214D01*
X11747262Y-14316214D02*
X11756786Y-14278119D01*
X11756786Y-14278119D02*
X11766309Y-14259071D01*
X11766309Y-14259071D02*
X11775833Y-14249548D01*
X11775833Y-14249548D02*
X11794881Y-14240024D01*
X11947262Y-14440024D02*
X11947262Y-14306690D01*
X11947262Y-14325738D02*
X11956786Y-14316214D01*
X11956786Y-14316214D02*
X11975833Y-14306690D01*
X11975833Y-14306690D02*
X12004405Y-14306690D01*
X12004405Y-14306690D02*
X12023452Y-14316214D01*
X12023452Y-14316214D02*
X12032976Y-14335262D01*
X12032976Y-14335262D02*
X12032976Y-14440024D01*
X12032976Y-14335262D02*
X12042500Y-14316214D01*
X12042500Y-14316214D02*
X12061548Y-14306690D01*
X12061548Y-14306690D02*
X12090119Y-14306690D01*
X12090119Y-14306690D02*
X12109167Y-14316214D01*
X12109167Y-14316214D02*
X12118690Y-14335262D01*
X12118690Y-14335262D02*
X12118690Y-14440024D01*
X12213929Y-14440024D02*
X12213929Y-14306690D01*
X12213929Y-14325738D02*
X12223452Y-14316214D01*
X12223452Y-14316214D02*
X12242500Y-14306690D01*
X12242500Y-14306690D02*
X12271071Y-14306690D01*
X12271071Y-14306690D02*
X12290119Y-14316214D01*
X12290119Y-14316214D02*
X12299643Y-14335262D01*
X12299643Y-14335262D02*
X12299643Y-14440024D01*
X12299643Y-14335262D02*
X12309167Y-14316214D01*
X12309167Y-14316214D02*
X12328214Y-14306690D01*
X12328214Y-14306690D02*
X12356786Y-14306690D01*
X12356786Y-14306690D02*
X12375833Y-14316214D01*
X12375833Y-14316214D02*
X12385357Y-14335262D01*
X12385357Y-14335262D02*
X12385357Y-14440024D01*
X12775833Y-14230500D02*
X12604405Y-14487643D01*
X13032976Y-14240024D02*
X13052024Y-14240024D01*
X13052024Y-14240024D02*
X13071072Y-14249548D01*
X13071072Y-14249548D02*
X13080595Y-14259071D01*
X13080595Y-14259071D02*
X13090119Y-14278119D01*
X13090119Y-14278119D02*
X13099643Y-14316214D01*
X13099643Y-14316214D02*
X13099643Y-14363833D01*
X13099643Y-14363833D02*
X13090119Y-14401928D01*
X13090119Y-14401928D02*
X13080595Y-14420976D01*
X13080595Y-14420976D02*
X13071072Y-14430500D01*
X13071072Y-14430500D02*
X13052024Y-14440024D01*
X13052024Y-14440024D02*
X13032976Y-14440024D01*
X13032976Y-14440024D02*
X13013929Y-14430500D01*
X13013929Y-14430500D02*
X13004405Y-14420976D01*
X13004405Y-14420976D02*
X12994881Y-14401928D01*
X12994881Y-14401928D02*
X12985357Y-14363833D01*
X12985357Y-14363833D02*
X12985357Y-14316214D01*
X12985357Y-14316214D02*
X12994881Y-14278119D01*
X12994881Y-14278119D02*
X13004405Y-14259071D01*
X13004405Y-14259071D02*
X13013929Y-14249548D01*
X13013929Y-14249548D02*
X13032976Y-14240024D01*
X13185357Y-14420976D02*
X13194881Y-14430500D01*
X13194881Y-14430500D02*
X13185357Y-14440024D01*
X13185357Y-14440024D02*
X13175833Y-14430500D01*
X13175833Y-14430500D02*
X13185357Y-14420976D01*
X13185357Y-14420976D02*
X13185357Y-14440024D01*
X13271072Y-14259071D02*
X13280595Y-14249548D01*
X13280595Y-14249548D02*
X13299643Y-14240024D01*
X13299643Y-14240024D02*
X13347262Y-14240024D01*
X13347262Y-14240024D02*
X13366310Y-14249548D01*
X13366310Y-14249548D02*
X13375833Y-14259071D01*
X13375833Y-14259071D02*
X13385357Y-14278119D01*
X13385357Y-14278119D02*
X13385357Y-14297167D01*
X13385357Y-14297167D02*
X13375833Y-14325738D01*
X13375833Y-14325738D02*
X13261548Y-14440024D01*
X13261548Y-14440024D02*
X13385357Y-14440024D01*
X13509167Y-14240024D02*
X13528214Y-14240024D01*
X13528214Y-14240024D02*
X13547262Y-14249548D01*
X13547262Y-14249548D02*
X13556786Y-14259071D01*
X13556786Y-14259071D02*
X13566310Y-14278119D01*
X13566310Y-14278119D02*
X13575833Y-14316214D01*
X13575833Y-14316214D02*
X13575833Y-14363833D01*
X13575833Y-14363833D02*
X13566310Y-14401928D01*
X13566310Y-14401928D02*
X13556786Y-14420976D01*
X13556786Y-14420976D02*
X13547262Y-14430500D01*
X13547262Y-14430500D02*
X13528214Y-14440024D01*
X13528214Y-14440024D02*
X13509167Y-14440024D01*
X13509167Y-14440024D02*
X13490119Y-14430500D01*
X13490119Y-14430500D02*
X13480595Y-14420976D01*
X13480595Y-14420976D02*
X13471072Y-14401928D01*
X13471072Y-14401928D02*
X13461548Y-14363833D01*
X13461548Y-14363833D02*
X13461548Y-14316214D01*
X13461548Y-14316214D02*
X13471072Y-14278119D01*
X13471072Y-14278119D02*
X13480595Y-14259071D01*
X13480595Y-14259071D02*
X13490119Y-14249548D01*
X13490119Y-14249548D02*
X13509167Y-14240024D01*
X13690119Y-14325738D02*
X13671072Y-14316214D01*
X13671072Y-14316214D02*
X13661548Y-14306690D01*
X13661548Y-14306690D02*
X13652024Y-14287643D01*
X13652024Y-14287643D02*
X13652024Y-14278119D01*
X13652024Y-14278119D02*
X13661548Y-14259071D01*
X13661548Y-14259071D02*
X13671072Y-14249548D01*
X13671072Y-14249548D02*
X13690119Y-14240024D01*
X13690119Y-14240024D02*
X13728214Y-14240024D01*
X13728214Y-14240024D02*
X13747262Y-14249548D01*
X13747262Y-14249548D02*
X13756786Y-14259071D01*
X13756786Y-14259071D02*
X13766310Y-14278119D01*
X13766310Y-14278119D02*
X13766310Y-14287643D01*
X13766310Y-14287643D02*
X13756786Y-14306690D01*
X13756786Y-14306690D02*
X13747262Y-14316214D01*
X13747262Y-14316214D02*
X13728214Y-14325738D01*
X13728214Y-14325738D02*
X13690119Y-14325738D01*
X13690119Y-14325738D02*
X13671072Y-14335262D01*
X13671072Y-14335262D02*
X13661548Y-14344786D01*
X13661548Y-14344786D02*
X13652024Y-14363833D01*
X13652024Y-14363833D02*
X13652024Y-14401928D01*
X13652024Y-14401928D02*
X13661548Y-14420976D01*
X13661548Y-14420976D02*
X13671072Y-14430500D01*
X13671072Y-14430500D02*
X13690119Y-14440024D01*
X13690119Y-14440024D02*
X13728214Y-14440024D01*
X13728214Y-14440024D02*
X13747262Y-14430500D01*
X13747262Y-14430500D02*
X13756786Y-14420976D01*
X13756786Y-14420976D02*
X13766310Y-14401928D01*
X13766310Y-14401928D02*
X13766310Y-14363833D01*
X13766310Y-14363833D02*
X13756786Y-14344786D01*
X13756786Y-14344786D02*
X13747262Y-14335262D01*
X13747262Y-14335262D02*
X13728214Y-14325738D01*
X13832976Y-14240024D02*
X13966310Y-14240024D01*
X13966310Y-14240024D02*
X13880595Y-14440024D01*
X14032976Y-14240024D02*
X14032976Y-14278119D01*
X14109167Y-14240024D02*
X14109167Y-14278119D01*
X14404405Y-14516214D02*
X14394881Y-14506690D01*
X14394881Y-14506690D02*
X14375834Y-14478119D01*
X14375834Y-14478119D02*
X14366310Y-14459071D01*
X14366310Y-14459071D02*
X14356786Y-14430500D01*
X14356786Y-14430500D02*
X14347262Y-14382881D01*
X14347262Y-14382881D02*
X14347262Y-14344786D01*
X14347262Y-14344786D02*
X14356786Y-14297167D01*
X14356786Y-14297167D02*
X14366310Y-14268595D01*
X14366310Y-14268595D02*
X14375834Y-14249548D01*
X14375834Y-14249548D02*
X14394881Y-14220976D01*
X14394881Y-14220976D02*
X14404405Y-14211452D01*
X14585357Y-14440024D02*
X14471072Y-14440024D01*
X14528214Y-14440024D02*
X14528214Y-14240024D01*
X14528214Y-14240024D02*
X14509167Y-14268595D01*
X14509167Y-14268595D02*
X14490119Y-14287643D01*
X14490119Y-14287643D02*
X14471072Y-14297167D01*
X14823453Y-14440024D02*
X14823453Y-14240024D01*
X14909167Y-14440024D02*
X14909167Y-14335262D01*
X14909167Y-14335262D02*
X14899643Y-14316214D01*
X14899643Y-14316214D02*
X14880596Y-14306690D01*
X14880596Y-14306690D02*
X14852024Y-14306690D01*
X14852024Y-14306690D02*
X14832976Y-14316214D01*
X14832976Y-14316214D02*
X14823453Y-14325738D01*
X15032976Y-14440024D02*
X15013929Y-14430500D01*
X15013929Y-14430500D02*
X15004405Y-14420976D01*
X15004405Y-14420976D02*
X14994881Y-14401928D01*
X14994881Y-14401928D02*
X14994881Y-14344786D01*
X14994881Y-14344786D02*
X15004405Y-14325738D01*
X15004405Y-14325738D02*
X15013929Y-14316214D01*
X15013929Y-14316214D02*
X15032976Y-14306690D01*
X15032976Y-14306690D02*
X15061548Y-14306690D01*
X15061548Y-14306690D02*
X15080596Y-14316214D01*
X15080596Y-14316214D02*
X15090119Y-14325738D01*
X15090119Y-14325738D02*
X15099643Y-14344786D01*
X15099643Y-14344786D02*
X15099643Y-14401928D01*
X15099643Y-14401928D02*
X15090119Y-14420976D01*
X15090119Y-14420976D02*
X15080596Y-14430500D01*
X15080596Y-14430500D02*
X15061548Y-14440024D01*
X15061548Y-14440024D02*
X15032976Y-14440024D01*
X15213929Y-14440024D02*
X15194881Y-14430500D01*
X15194881Y-14430500D02*
X15185357Y-14411452D01*
X15185357Y-14411452D02*
X15185357Y-14240024D01*
X15366310Y-14430500D02*
X15347262Y-14440024D01*
X15347262Y-14440024D02*
X15309167Y-14440024D01*
X15309167Y-14440024D02*
X15290119Y-14430500D01*
X15290119Y-14430500D02*
X15280596Y-14411452D01*
X15280596Y-14411452D02*
X15280596Y-14335262D01*
X15280596Y-14335262D02*
X15290119Y-14316214D01*
X15290119Y-14316214D02*
X15309167Y-14306690D01*
X15309167Y-14306690D02*
X15347262Y-14306690D01*
X15347262Y-14306690D02*
X15366310Y-14316214D01*
X15366310Y-14316214D02*
X15375834Y-14335262D01*
X15375834Y-14335262D02*
X15375834Y-14354309D01*
X15375834Y-14354309D02*
X15280596Y-14373357D01*
X15442500Y-14516214D02*
X15452024Y-14506690D01*
X15452024Y-14506690D02*
X15471072Y-14478119D01*
X15471072Y-14478119D02*
X15480596Y-14459071D01*
X15480596Y-14459071D02*
X15490119Y-14430500D01*
X15490119Y-14430500D02*
X15499643Y-14382881D01*
X15499643Y-14382881D02*
X15499643Y-14344786D01*
X15499643Y-14344786D02*
X15490119Y-14297167D01*
X15490119Y-14297167D02*
X15480596Y-14268595D01*
X15480596Y-14268595D02*
X15471072Y-14249548D01*
X15471072Y-14249548D02*
X15452024Y-14220976D01*
X15452024Y-14220976D02*
X15442500Y-14211452D01*
X15804405Y-14516214D02*
X15794881Y-14506690D01*
X15794881Y-14506690D02*
X15775834Y-14478119D01*
X15775834Y-14478119D02*
X15766310Y-14459071D01*
X15766310Y-14459071D02*
X15756786Y-14430500D01*
X15756786Y-14430500D02*
X15747262Y-14382881D01*
X15747262Y-14382881D02*
X15747262Y-14344786D01*
X15747262Y-14344786D02*
X15756786Y-14297167D01*
X15756786Y-14297167D02*
X15766310Y-14268595D01*
X15766310Y-14268595D02*
X15775834Y-14249548D01*
X15775834Y-14249548D02*
X15794881Y-14220976D01*
X15794881Y-14220976D02*
X15804405Y-14211452D01*
X15880596Y-14306690D02*
X15880596Y-14440024D01*
X15880596Y-14325738D02*
X15890119Y-14316214D01*
X15890119Y-14316214D02*
X15909167Y-14306690D01*
X15909167Y-14306690D02*
X15937738Y-14306690D01*
X15937738Y-14306690D02*
X15956786Y-14316214D01*
X15956786Y-14316214D02*
X15966310Y-14335262D01*
X15966310Y-14335262D02*
X15966310Y-14440024D01*
X16090119Y-14440024D02*
X16071072Y-14430500D01*
X16071072Y-14430500D02*
X16061548Y-14420976D01*
X16061548Y-14420976D02*
X16052024Y-14401928D01*
X16052024Y-14401928D02*
X16052024Y-14344786D01*
X16052024Y-14344786D02*
X16061548Y-14325738D01*
X16061548Y-14325738D02*
X16071072Y-14316214D01*
X16071072Y-14316214D02*
X16090119Y-14306690D01*
X16090119Y-14306690D02*
X16118691Y-14306690D01*
X16118691Y-14306690D02*
X16137738Y-14316214D01*
X16137738Y-14316214D02*
X16147262Y-14325738D01*
X16147262Y-14325738D02*
X16156786Y-14344786D01*
X16156786Y-14344786D02*
X16156786Y-14401928D01*
X16156786Y-14401928D02*
X16147262Y-14420976D01*
X16147262Y-14420976D02*
X16137738Y-14430500D01*
X16137738Y-14430500D02*
X16118691Y-14440024D01*
X16118691Y-14440024D02*
X16090119Y-14440024D01*
X16213929Y-14306690D02*
X16290119Y-14306690D01*
X16242500Y-14240024D02*
X16242500Y-14411452D01*
X16242500Y-14411452D02*
X16252024Y-14430500D01*
X16252024Y-14430500D02*
X16271072Y-14440024D01*
X16271072Y-14440024D02*
X16290119Y-14440024D01*
X16509167Y-14306690D02*
X16509167Y-14506690D01*
X16509167Y-14316214D02*
X16528215Y-14306690D01*
X16528215Y-14306690D02*
X16566310Y-14306690D01*
X16566310Y-14306690D02*
X16585358Y-14316214D01*
X16585358Y-14316214D02*
X16594881Y-14325738D01*
X16594881Y-14325738D02*
X16604405Y-14344786D01*
X16604405Y-14344786D02*
X16604405Y-14401928D01*
X16604405Y-14401928D02*
X16594881Y-14420976D01*
X16594881Y-14420976D02*
X16585358Y-14430500D01*
X16585358Y-14430500D02*
X16566310Y-14440024D01*
X16566310Y-14440024D02*
X16528215Y-14440024D01*
X16528215Y-14440024D02*
X16509167Y-14430500D01*
X16718691Y-14440024D02*
X16699643Y-14430500D01*
X16699643Y-14430500D02*
X16690119Y-14411452D01*
X16690119Y-14411452D02*
X16690119Y-14240024D01*
X16880596Y-14440024D02*
X16880596Y-14335262D01*
X16880596Y-14335262D02*
X16871072Y-14316214D01*
X16871072Y-14316214D02*
X16852024Y-14306690D01*
X16852024Y-14306690D02*
X16813929Y-14306690D01*
X16813929Y-14306690D02*
X16794881Y-14316214D01*
X16880596Y-14430500D02*
X16861548Y-14440024D01*
X16861548Y-14440024D02*
X16813929Y-14440024D01*
X16813929Y-14440024D02*
X16794881Y-14430500D01*
X16794881Y-14430500D02*
X16785358Y-14411452D01*
X16785358Y-14411452D02*
X16785358Y-14392405D01*
X16785358Y-14392405D02*
X16794881Y-14373357D01*
X16794881Y-14373357D02*
X16813929Y-14363833D01*
X16813929Y-14363833D02*
X16861548Y-14363833D01*
X16861548Y-14363833D02*
X16880596Y-14354309D01*
X16947262Y-14306690D02*
X17023453Y-14306690D01*
X16975834Y-14240024D02*
X16975834Y-14411452D01*
X16975834Y-14411452D02*
X16985358Y-14430500D01*
X16985358Y-14430500D02*
X17004405Y-14440024D01*
X17004405Y-14440024D02*
X17023453Y-14440024D01*
X17166310Y-14430500D02*
X17147262Y-14440024D01*
X17147262Y-14440024D02*
X17109167Y-14440024D01*
X17109167Y-14440024D02*
X17090120Y-14430500D01*
X17090120Y-14430500D02*
X17080596Y-14411452D01*
X17080596Y-14411452D02*
X17080596Y-14335262D01*
X17080596Y-14335262D02*
X17090120Y-14316214D01*
X17090120Y-14316214D02*
X17109167Y-14306690D01*
X17109167Y-14306690D02*
X17147262Y-14306690D01*
X17147262Y-14306690D02*
X17166310Y-14316214D01*
X17166310Y-14316214D02*
X17175834Y-14335262D01*
X17175834Y-14335262D02*
X17175834Y-14354309D01*
X17175834Y-14354309D02*
X17080596Y-14373357D01*
X17347262Y-14440024D02*
X17347262Y-14240024D01*
X17347262Y-14430500D02*
X17328215Y-14440024D01*
X17328215Y-14440024D02*
X17290120Y-14440024D01*
X17290120Y-14440024D02*
X17271072Y-14430500D01*
X17271072Y-14430500D02*
X17261548Y-14420976D01*
X17261548Y-14420976D02*
X17252024Y-14401928D01*
X17252024Y-14401928D02*
X17252024Y-14344786D01*
X17252024Y-14344786D02*
X17261548Y-14325738D01*
X17261548Y-14325738D02*
X17271072Y-14316214D01*
X17271072Y-14316214D02*
X17290120Y-14306690D01*
X17290120Y-14306690D02*
X17328215Y-14306690D01*
X17328215Y-14306690D02*
X17347262Y-14316214D01*
X17423453Y-14516214D02*
X17432977Y-14506690D01*
X17432977Y-14506690D02*
X17452024Y-14478119D01*
X17452024Y-14478119D02*
X17461548Y-14459071D01*
X17461548Y-14459071D02*
X17471072Y-14430500D01*
X17471072Y-14430500D02*
X17480596Y-14382881D01*
X17480596Y-14382881D02*
X17480596Y-14344786D01*
X17480596Y-14344786D02*
X17471072Y-14297167D01*
X17471072Y-14297167D02*
X17461548Y-14268595D01*
X17461548Y-14268595D02*
X17452024Y-14249548D01*
X17452024Y-14249548D02*
X17432977Y-14220976D01*
X17432977Y-14220976D02*
X17423453Y-14211452D01*
M02*
