%TF.GenerationSoftware,KiCad,Pcbnew,7.0.2*%
%TF.CreationDate,2023-06-01T22:40:15-04:00*%
%TF.ProjectId,sectr-soldering-kit,73656374-722d-4736-9f6c-646572696e67,rev?*%
%TF.SameCoordinates,Original*%
%TF.FileFunction,Copper,L1,Top*%
%TF.FilePolarity,Positive*%
%FSLAX46Y46*%
G04 Gerber Fmt 4.6, Leading zero omitted, Abs format (unit mm)*
G04 Created by KiCad (PCBNEW 7.0.2) date 2023-06-01 22:40:15*
%MOMM*%
%LPD*%
G01*
G04 APERTURE LIST*
%TA.AperFunction,ComponentPad*%
%ADD10C,1.650000*%
%TD*%
%TA.AperFunction,ComponentPad*%
%ADD11C,1.524000*%
%TD*%
%TA.AperFunction,ComponentPad*%
%ADD12C,2.300000*%
%TD*%
%TA.AperFunction,ComponentPad*%
%ADD13R,1.800000X1.800000*%
%TD*%
%TA.AperFunction,ComponentPad*%
%ADD14C,1.800000*%
%TD*%
%TA.AperFunction,ViaPad*%
%ADD15C,0.800000*%
%TD*%
%TA.AperFunction,Conductor*%
%ADD16C,1.000000*%
%TD*%
%TA.AperFunction,Conductor*%
%ADD17C,0.250000*%
%TD*%
G04 APERTURE END LIST*
D10*
%TO.P,U1,1*%
%TO.N,unconnected-(U1-Pad1)*%
X177000000Y-90100000D03*
X177000000Y-81900000D03*
D11*
%TO.P,U1,2*%
%TO.N,Net-(D1-A)*%
X177000000Y-88000000D03*
%TO.P,U1,3*%
%TO.N,Net-(JP1-B)*%
X177000000Y-86000000D03*
%TO.P,U1,4*%
%TO.N,unconnected-(U1-Pad4)*%
X177000000Y-84000000D03*
%TD*%
D12*
%TO.P,BT2,P1*%
%TO.N,Net-(JP1-B)*%
X154900000Y-69000000D03*
%TO.P,BT2,P2*%
X154900000Y-72100000D03*
%TO.P,BT2,P3*%
X134100000Y-72100000D03*
%TO.P,BT2,P4*%
X134100000Y-69000000D03*
%TD*%
D13*
%TO.P,D2,1,K*%
%TO.N,Net-(D1-K)*%
X161460000Y-52500000D03*
D14*
%TO.P,D2,2,A*%
%TO.N,Net-(D1-A)*%
X164000000Y-52500000D03*
%TD*%
D13*
%TO.P,D3,1,K*%
%TO.N,Net-(D1-K)*%
X144500000Y-95500000D03*
D14*
%TO.P,D3,2,A*%
%TO.N,Net-(D1-A)*%
X147040000Y-95500000D03*
%TD*%
D13*
%TO.P,D1,1,K*%
%TO.N,Net-(D1-K)*%
X125460000Y-51500000D03*
D14*
%TO.P,D1,2,A*%
%TO.N,Net-(D1-A)*%
X128000000Y-51500000D03*
%TD*%
D15*
%TO.N,Net-(D1-K)*%
X144500000Y-70500000D03*
X144500000Y-61000000D03*
X145000000Y-52500000D03*
%TO.N,Net-(D1-A)*%
X164500000Y-88000000D03*
X164000000Y-43000000D03*
X128500000Y-43000000D03*
X147500000Y-88000000D03*
%TO.N,Net-(JP1-B)*%
X134500000Y-41500000D03*
X172000000Y-72000000D03*
X172000000Y-86000000D03*
%TD*%
D16*
%TO.N,Net-(D1-K)*%
X144500000Y-53000000D02*
X145000000Y-52500000D01*
X144460000Y-70540000D02*
X144500000Y-70500000D01*
X144500000Y-61000000D02*
X144500000Y-53000000D01*
X144460000Y-95500000D02*
X144460000Y-70540000D01*
%TO.N,Net-(D1-A)*%
X128000000Y-43500000D02*
X128500000Y-43000000D01*
X164000000Y-87500000D02*
X164500000Y-88000000D01*
X147500000Y-88000000D02*
X147500000Y-95000000D01*
X164000000Y-52500000D02*
X164000000Y-43000000D01*
X164000000Y-52500000D02*
X164000000Y-87500000D01*
X128000000Y-51500000D02*
X128000000Y-43500000D01*
X147500000Y-95000000D02*
X147000000Y-95500000D01*
%TO.N,Net-(JP1-B)*%
X134100000Y-69000000D02*
X134100000Y-41900000D01*
X134100000Y-41900000D02*
X134500000Y-41500000D01*
X134100000Y-72100000D02*
X134100000Y-69000000D01*
X154900000Y-72100000D02*
X154900000Y-69000000D01*
X172000000Y-72000000D02*
X172000000Y-86000000D01*
X134100000Y-69000000D02*
X154900000Y-69000000D01*
D17*
%TO.N,unconnected-(U1-Pad1)*%
X178087000Y-89013000D02*
X177000000Y-90100000D01*
X177000000Y-81900000D02*
X178087000Y-82987000D01*
X178087000Y-82987000D02*
X178087000Y-89013000D01*
%TD*%
M02*
